<svg width="24" height="24" viewBox="0 0 24 24" fill="none" xmlns="http://www.w3.org/2000/svg">
<path opacity="0.32" d="M2.28099 19.9075C2.36966 20.7661 2.93261 21.4457 3.77688 21.6255C5.1095 21.9092 7.6216 22.25 12 22.25C16.3784 22.25 18.8905 21.9092 20.2232 21.6255C21.0674 21.4457 21.6304 20.7661 21.719 19.9075C21.8505 18.6344 22 16.2969 22 12.25C22 8.20305 21.8505 5.8656 21.719 4.59251C21.6304 3.73389 21.0674 3.05424 20.2231 2.87451C18.8905 2.59081 16.3784 2.25 12 2.25C7.6216 2.25 5.1095 2.59081 3.77688 2.87451C2.93261 3.05424 2.36966 3.73389 2.28099 4.59251C2.14952 5.8656 2 8.20305 2 12.25C2 16.2969 2.14952 18.6344 2.28099 19.9075Z" fill="#637381"/>
<path d="M13.9382 14.1059C15.263 13.4083 16.1663 12.018 16.1663 10.4166C16.1663 8.1155 14.3008 6.25 11.9996 6.25C9.69841 6.25 7.83291 8.1155 7.83291 10.4166C7.83291 12.018 8.73626 13.4084 10.0612 14.106C8.28691 14.7819 6.93216 16.3592 6.51251 18.3029C6.45446 18.5719 6.60246 18.8481 6.87341 18.8971C7.84581 19.0731 9.45616 19.25 12.0006 19.25C14.545 19.25 16.1554 19.0731 17.1278 18.8971C17.3977 18.8483 17.5454 18.5731 17.4876 18.3051C17.0685 16.3603 15.7133 14.7821 13.9382 14.1059Z" fill="#637381"/>
</svg>
