<svg width="24" height="24" viewBox="0 0 24 24" fill="none" xmlns="http://www.w3.org/2000/svg">
<path d="M12 2.5C10.0716 2.5 8.18657 3.07183 6.58319 4.14317C4.97982 5.21451 3.73013 6.73726 2.99218 8.51884C2.25422 10.3004 2.06114 12.2608 2.43735 14.1521C2.81355 16.0434 3.74215 17.7807 5.10571 19.1443C6.46928 20.5079 8.20656 21.4365 10.0979 21.8127C11.9892 22.1889 13.9496 21.9958 15.7312 21.2578C17.5127 20.5199 19.0355 19.2702 20.1068 17.6668C21.1782 16.0634 21.75 14.1784 21.75 12.25C21.7473 9.66498 20.7192 7.18661 18.8913 5.35872C17.0634 3.53084 14.585 2.50273 12 2.5ZM12 18.25C11.7775 18.25 11.56 18.184 11.375 18.0604C11.19 17.9368 11.0458 17.7611 10.9606 17.5555C10.8755 17.35 10.8532 17.1238 10.8966 16.9055C10.94 16.6873 11.0472 16.4868 11.2045 16.3295C11.3618 16.1722 11.5623 16.065 11.7805 16.0216C11.9988 15.9782 12.225 16.0005 12.4305 16.0856C12.6361 16.1708 12.8118 16.315 12.9354 16.5C13.059 16.685 13.125 16.9025 13.125 17.125C13.125 17.4234 13.0065 17.7095 12.7955 17.9205C12.5845 18.1315 12.2984 18.25 12 18.25ZM12.75 13.6825V13.75C12.75 13.9489 12.671 14.1397 12.5303 14.2803C12.3897 14.421 12.1989 14.5 12 14.5C11.8011 14.5 11.6103 14.421 11.4697 14.2803C11.329 14.1397 11.25 13.9489 11.25 13.75V13C11.25 12.8011 11.329 12.6103 11.4697 12.4697C11.6103 12.329 11.8011 12.25 12 12.25C13.2403 12.25 14.25 11.4062 14.25 10.375C14.25 9.34375 13.2403 8.5 12 8.5C10.7597 8.5 9.75 9.34375 9.75 10.375V10.75C9.75 10.9489 9.67099 11.1397 9.53033 11.2803C9.38968 11.421 9.19892 11.5 9 11.5C8.80109 11.5 8.61033 11.421 8.46967 11.2803C8.32902 11.1397 8.25 10.9489 8.25 10.75V10.375C8.25 8.51406 9.93188 7 12 7C14.0681 7 15.75 8.51406 15.75 10.375C15.75 12.0044 14.46 13.3684 12.75 13.6825Z" fill="#637381"/>
</svg>
