<svg width="24" height="25" viewBox="0 0 24 25" fill="none" xmlns="http://www.w3.org/2000/svg">
<path opacity="0.32" d="M12 22.25C17.5228 22.25 22 20.683 22 18.75C22 16.817 17.5228 15.25 12 15.25C6.47715 15.25 2 16.817 2 18.75C2 20.683 6.47715 22.25 12 22.25Z" fill="#4F4D9E"/>
<path d="M12 1.5C12.1989 1.5 12.3897 1.57902 12.5303 1.71967C12.671 1.86032 12.75 2.05109 12.75 2.25V3.286L17.758 5.79L17.812 5.817C18.546 6.184 19.172 6.497 19.608 6.801C20.05 7.11 20.514 7.557 20.514 8.25C20.514 8.943 20.05 9.39 19.608 9.699C19.172 10.003 18.546 10.316 17.812 10.683L12.75 13.213V18.25C12.75 18.4489 12.671 18.6397 12.5303 18.7803C12.3897 18.921 12.1989 19 12 19C11.8011 19 11.6103 18.921 11.4697 18.7803C11.329 18.6397 11.25 18.4489 11.25 18.25V2.25C11.25 2.05109 11.329 1.86032 11.4697 1.71967C11.6103 1.57902 11.8011 1.5 12 1.5Z" fill="#4F4D9E"/>
</svg>
