<svg width="46" height="46" viewBox="0 0 46 46" fill="none" xmlns="http://www.w3.org/2000/svg">
<g clip-path="url(#clip0_2897_82943)">
<path d="M38.3334 15.3331H32.5834V11.9023C32.5834 6.89976 28.9226 2.43393 23.9392 1.95476C18.2276 1.4181 13.4167 5.9031 13.4167 11.4998V15.3331H7.66675V42.1664H38.3334V15.3331ZM23.0001 32.5831C20.8917 32.5831 19.1667 30.8581 19.1667 28.7498C19.1667 26.6414 20.8917 24.9164 23.0001 24.9164C25.1084 24.9164 26.8334 26.6414 26.8334 28.7498C26.8334 30.8581 25.1084 32.5831 23.0001 32.5831ZM17.2501 15.3331V11.4998C17.2501 8.3181 19.8184 5.74976 23.0001 5.74976C26.1817 5.74976 28.7501 8.3181 28.7501 11.4998V15.3331H17.2501Z" fill="#919EAB"/>
</g>
<defs>
<clipPath id="clip0_2897_82943">
<rect width="46" height="46" fill="white"/>
</clipPath>
</defs>
</svg>
