<svg width="24" height="24" viewBox="0 0 24 24" fill="none" xmlns="http://www.w3.org/2000/svg">
<g opacity="0.32">
<path d="M12.5859 8.01946C12.8526 7.48353 13.0025 6.87933 13.0025 6.24011C13.0025 5.60089 12.8526 4.99669 12.5859 4.46076C13.1322 3.72036 14.0108 3.24011 15.0015 3.24011C16.6584 3.24011 18.0015 4.58326 18.0015 6.24011C18.0015 7.89697 16.6584 9.24011 15.0015 9.24011C14.0108 9.24011 13.1322 8.75986 12.5859 8.01946Z" fill="#637381"/>
<path d="M14.0613 20.0059C14.6579 20.1567 15.3135 20.2401 16.0015 20.2401C18.763 20.2401 21.0015 18.897 21.0015 17.2401C21.0015 15.5833 18.763 14.2401 16.0015 14.2401C15.3126 14.2401 14.6561 14.3237 14.0589 14.475C15.2628 15.1934 16.0025 16.1679 16.0025 17.2411C16.0025 18.3136 15.2638 19.2876 14.0613 20.0059Z" fill="#637381"/>
</g>
<path d="M9 10.2401C11.2091 10.2401 13 8.44925 13 6.24011C13 4.03097 11.2091 2.24011 9 2.24011C6.79086 2.24011 5 4.03097 5 6.24011C5 8.44925 6.79086 10.2401 9 10.2401Z" fill="#637381"/>
<path d="M9 21.2411C12.866 21.2411 16 19.4503 16 17.2411C16 15.032 12.866 13.2411 9 13.2411C5.13401 13.2411 2 15.032 2 17.2411C2 19.4503 5.13401 21.2411 9 21.2411Z" fill="#637381"/>
</svg>
