<svg width="24" height="24" viewBox="0 0 24 24" fill="none" xmlns="http://www.w3.org/2000/svg">
<g clip-path="url(#clip0_1961_19486)">
<path opacity="0.3" d="M9.1 5.25L5 9.35V15.15L9.1 19.25H14.9L19 15.15V9.35L14.9 5.25H9.1ZM12 17.25C11.45 17.25 11 16.8 11 16.25C11 15.7 11.45 15.25 12 15.25C12.55 15.25 13 15.7 13 16.25C13 16.8 12.55 17.25 12 17.25ZM13 14.25H11V7.25H13V14.25Z" fill="#637381"/>
<path d="M15.73 3.25H8.27L3 8.52V15.98L8.27 21.25H15.73L21 15.98V8.52L15.73 3.25ZM19 15.15L14.9 19.25H9.1L5 15.15V9.35L9.1 5.25H14.9L19 9.35V15.15Z" fill="#637381"/>
<path d="M12 17.25C12.5523 17.25 13 16.8023 13 16.25C13 15.6977 12.5523 15.25 12 15.25C11.4477 15.25 11 15.6977 11 16.25C11 16.8023 11.4477 17.25 12 17.25Z" fill="#637381"/>
<path d="M11 7.25H13V14.25H11V7.25Z" fill="#637381"/>
</g>
<defs>
<clipPath id="clip0_1961_19486">
<rect width="24" height="24" fill="white" transform="translate(0 0.25)"/>
</clipPath>
</defs>
</svg>
