<svg width="24" height="24" viewBox="0 0 24 24" fill="none" xmlns="http://www.w3.org/2000/svg">
<path opacity="0.32" fill-rule="evenodd" clip-rule="evenodd" d="M2.12411 8.25H21.8758C21.9467 9.45109 22 11.0766 22 13.25C22 16.7343 21.8631 18.8105 21.7362 19.9871C21.6422 20.8588 21.0518 21.531 20.1903 21.6942C18.8494 21.9483 16.3428 22.25 12 22.25C7.65725 22.25 5.15055 21.9483 3.80967 21.6942C2.94826 21.531 2.35785 20.8588 2.26379 19.9871C2.13682 18.8105 2 16.7343 2 13.25C2 11.0766 2.05324 9.45109 2.12411 8.25ZM6.5 12.9315C6.5 12.3306 6.93315 11.8582 7.5337 11.8368C8.3136 11.809 9.6669 11.7775 12 11.7569C14.5069 11.7348 15.8826 11.7697 16.6312 11.8099C17.1554 11.8381 17.5 12.2446 17.5 12.7696V13.1607C17.5 13.7226 17.1157 14.1593 16.5543 14.184C15.7898 14.2175 14.4235 14.25 12 14.25C9.5765 14.25 8.21025 14.2175 7.44565 14.184C6.88435 14.1593 6.5 13.7226 6.5 13.1607V12.9315ZM6.5 17.3391C6.5 16.7776 6.8844 16.3293 7.44515 16.3003C7.97275 16.2731 8.7795 16.2501 10 16.2501C11.2205 16.2501 12.0272 16.2731 12.5548 16.3003C13.1156 16.3293 13.5 16.7776 13.5 17.3391V17.6611C13.5 18.2226 13.1156 18.6708 12.5548 18.6998C12.0272 18.7271 11.2205 18.7501 10 18.7501C8.7795 18.7501 7.97275 18.7271 7.44515 18.6998C6.8844 18.6708 6.5 18.2226 6.5 17.6611V17.3391Z" fill="#637381"/>
<path d="M17.916 2.28126C18.2286 2.30703 18.4434 2.53598 18.4646 2.84889C18.4841 3.13636 18.501 3.57917 18.501 4.25C18.501 4.35776 18.5005 4.45964 18.4997 4.55593C19.2009 4.63632 19.7571 4.72356 20.1912 4.80581C21.0526 4.96901 21.643 5.64115 21.7371 6.51285C21.7849 6.9555 21.834 7.52555 21.8768 8.25H2.125C2.16775 7.52555 2.21691 6.9555 2.26468 6.51285C2.35873 5.64115 2.94915 4.96902 3.81056 4.80581C4.24467 4.72356 4.80098 4.6363 5.50222 4.55591C5.50142 4.45962 5.50097 4.35775 5.50097 4.25C5.50097 3.57917 5.51787 3.13636 5.53737 2.84889C5.55857 2.53598 5.77337 2.30703 6.08592 2.28126C6.29862 2.26372 6.59477 2.25 7.00097 2.25C7.40717 2.25 7.70333 2.26372 7.91603 2.28126C8.22858 2.30703 8.44337 2.53598 8.46457 2.84889C8.48407 3.13636 8.50097 3.57917 8.50097 4.25C8.50097 4.27539 8.50098 4.30047 8.50093 4.32521C9.50743 4.27844 10.6676 4.25 12.0009 4.25C13.3342 4.25 14.4945 4.27845 15.501 4.32522L15.501 4.25C15.501 3.57917 15.5179 3.13636 15.5374 2.84889C15.5586 2.53598 15.7734 2.30703 16.0859 2.28126C16.2986 2.26372 16.5948 2.25 17.001 2.25C17.4072 2.25 17.7033 2.26372 17.916 2.28126Z" fill="#637381"/>
<path fill-rule="evenodd" clip-rule="evenodd" d="M7.53467 11.8368C6.93412 11.8581 6.50097 12.3305 6.50097 12.9315V13.1607C6.50097 13.7225 6.88532 14.1593 7.44662 14.1839C8.21122 14.2174 9.57747 14.25 12.001 14.25C14.4245 14.25 15.7907 14.2174 16.5553 14.1839C17.1166 14.1593 17.501 13.7225 17.501 13.1607V12.7696C17.501 12.2446 17.1564 11.8381 16.6322 11.8099C15.8835 11.7696 14.5079 11.7347 12.001 11.7569C9.66787 11.7774 8.31457 11.809 7.53467 11.8368ZM7.44613 16.3003C6.88538 16.3293 6.50097 16.7775 6.50097 17.339V17.661C6.50097 18.2225 6.88538 18.6708 7.44613 18.6998C7.97372 18.727 8.78047 18.75 10.001 18.75C11.2215 18.75 12.0282 18.727 12.5558 18.6998C13.1166 18.6708 13.501 18.2225 13.501 17.661V17.339C13.501 16.7775 13.1166 16.3293 12.5558 16.3003C12.0282 16.273 11.2215 16.25 10.001 16.25C8.78047 16.25 7.97372 16.273 7.44613 16.3003Z" fill="#637381"/>
</svg>
