<svg width="609" height="528" viewBox="0 0 609 528" fill="none" xmlns="http://www.w3.org/2000/svg">
<g clip-path="url(#clip0_1384_21568)">
<path d="M297.107 458.072H297.006C294.05 458.072 291.056 458.009 288.113 457.896C287.499 457.871 287.011 457.358 287.036 456.732C287.061 456.119 287.574 455.631 288.201 455.656C291.119 455.768 294.088 455.819 297.006 455.819H297.107C297.72 455.819 298.221 456.319 298.221 456.933C298.221 457.546 297.72 458.046 297.107 458.046V458.072ZM306.05 457.896C305.449 457.896 304.961 457.421 304.936 456.82C304.911 456.207 305.387 455.681 306.013 455.656C308.969 455.543 311.963 455.368 314.906 455.13C315.52 455.08 316.059 455.543 316.109 456.156C316.159 456.77 315.696 457.308 315.082 457.358C312.113 457.596 309.082 457.771 306.1 457.884C306.088 457.884 306.075 457.884 306.05 457.884V457.896ZM279.207 457.383C279.207 457.383 279.144 457.383 279.119 457.383C276.138 457.158 273.131 456.857 270.163 456.519C269.549 456.444 269.111 455.894 269.186 455.28C269.261 454.667 269.812 454.229 270.426 454.304C273.357 454.642 276.351 454.93 279.294 455.168C279.908 455.218 280.372 455.756 280.322 456.369C280.271 456.958 279.783 457.396 279.207 457.396V457.383ZM323.913 456.494C323.349 456.494 322.873 456.081 322.798 455.506C322.723 454.892 323.161 454.342 323.775 454.267C326.719 453.916 329.687 453.516 332.606 453.052C333.22 452.952 333.783 453.378 333.884 453.979C333.984 454.592 333.558 455.155 332.957 455.255C330.013 455.718 327.007 456.131 324.038 456.482C323.988 456.482 323.95 456.482 323.9 456.482L323.913 456.494ZM261.419 455.318C261.419 455.318 261.307 455.318 261.244 455.305C258.288 454.842 255.307 454.317 252.388 453.741C251.787 453.616 251.386 453.027 251.511 452.427C251.636 451.826 252.225 451.425 252.826 451.55C255.72 452.126 258.676 452.639 261.607 453.103C262.221 453.203 262.634 453.766 262.534 454.379C262.447 454.93 261.971 455.33 261.432 455.33L261.419 455.318ZM341.6 453.716C341.074 453.716 340.61 453.353 340.497 452.815C340.372 452.214 340.773 451.626 341.374 451.5C344.28 450.925 347.212 450.286 350.08 449.598C350.681 449.448 351.283 449.823 351.433 450.424C351.571 451.025 351.207 451.626 350.606 451.776C347.7 452.477 344.744 453.115 341.813 453.703C341.738 453.716 341.662 453.728 341.6 453.728V453.716ZM243.858 451.851C243.77 451.851 243.682 451.851 243.595 451.826C240.689 451.137 237.757 450.374 234.889 449.56C234.288 449.398 233.949 448.772 234.112 448.184C234.275 447.595 234.901 447.245 235.49 447.408C238.334 448.209 241.24 448.96 244.121 449.648C244.722 449.786 245.098 450.399 244.947 451C244.822 451.513 244.371 451.863 243.858 451.863V451.851ZM359.011 449.548C358.523 449.548 358.072 449.222 357.934 448.734C357.771 448.146 358.109 447.52 358.711 447.358C361.554 446.557 364.423 445.68 367.241 444.767C367.83 444.579 368.456 444.892 368.656 445.48C368.844 446.068 368.531 446.694 367.942 446.894C365.099 447.821 362.205 448.697 359.324 449.51C359.224 449.535 359.124 449.548 359.024 449.548H359.011ZM226.609 447.007C226.496 447.007 226.384 446.995 226.258 446.957C223.415 446.031 220.534 445.042 217.728 444.003C217.152 443.79 216.851 443.152 217.064 442.564C217.277 441.988 217.916 441.688 218.505 441.9C221.285 442.927 224.129 443.903 226.947 444.817C227.536 445.004 227.862 445.643 227.661 446.231C227.511 446.707 227.073 447.007 226.597 447.007H226.609ZM376.034 444.016C375.583 444.016 375.158 443.74 374.982 443.29C374.769 442.714 375.07 442.063 375.646 441.85C378.414 440.824 381.195 439.735 383.913 438.609C384.49 438.371 385.141 438.646 385.379 439.209C385.617 439.785 385.341 440.436 384.778 440.674C382.022 441.813 379.216 442.914 376.423 443.941C376.297 443.991 376.16 444.016 376.034 444.016ZM209.761 440.812C209.624 440.812 209.473 440.786 209.335 440.724C206.567 439.585 203.786 438.358 201.068 437.107C200.504 436.844 200.266 436.18 200.517 435.617C200.78 435.054 201.444 434.816 202.008 435.067C204.701 436.306 207.456 437.507 210.187 438.646C210.763 438.884 211.026 439.535 210.788 440.111C210.613 440.536 210.187 440.799 209.749 440.799L209.761 440.812ZM392.531 437.182C392.106 437.182 391.705 436.944 391.517 436.531C391.254 435.968 391.504 435.304 392.068 435.041C394.749 433.802 397.442 432.501 400.06 431.161C400.611 430.886 401.287 431.099 401.563 431.65C401.838 432.2 401.625 432.876 401.074 433.152C398.419 434.503 395.701 435.83 392.995 437.069C392.845 437.144 392.682 437.169 392.531 437.169V437.182ZM193.477 433.289C193.302 433.289 193.126 433.252 192.964 433.164C190.296 431.812 187.627 430.373 185.022 428.909C184.483 428.608 184.295 427.92 184.596 427.382C184.897 426.843 185.586 426.656 186.124 426.956C188.705 428.408 191.36 429.822 193.991 431.161C194.542 431.437 194.755 432.113 194.479 432.663C194.279 433.051 193.891 433.277 193.477 433.277V433.289ZM408.452 429.059C408.064 429.059 407.676 428.858 407.475 428.483C407.175 427.945 407.363 427.269 407.901 426.956C410.469 425.517 413.062 424.002 415.58 422.45C416.106 422.125 416.795 422.287 417.12 422.813C417.446 423.339 417.283 424.027 416.757 424.353C414.214 425.917 411.609 427.444 409.003 428.896C408.828 428.996 408.64 429.034 408.452 429.034V429.059ZM177.832 424.528C177.632 424.528 177.431 424.478 177.243 424.365C174.7 422.801 172.145 421.173 169.665 419.509C169.151 419.171 169.013 418.47 169.352 417.957C169.69 417.444 170.391 417.306 170.905 417.644C173.373 419.296 175.89 420.911 178.421 422.45C178.947 422.776 179.11 423.464 178.784 423.99C178.571 424.328 178.208 424.528 177.832 424.528ZM423.697 419.709C423.333 419.709 422.983 419.534 422.77 419.208C422.432 418.695 422.569 418.007 423.083 417.656C425.538 416.017 427.993 414.302 430.386 412.562C430.887 412.199 431.588 412.312 431.951 412.813C432.315 413.313 432.202 414.014 431.701 414.377C429.296 416.129 426.816 417.857 424.323 419.521C424.135 419.646 423.91 419.709 423.697 419.709ZM162.938 414.565C162.713 414.565 162.475 414.49 162.287 414.352C159.869 412.6 157.452 410.76 155.109 408.92C154.621 408.532 154.546 407.831 154.921 407.355C155.31 406.867 156.011 406.792 156.487 407.168C158.805 408.995 161.197 410.81 163.59 412.55C164.091 412.913 164.203 413.614 163.84 414.114C163.627 414.415 163.276 414.577 162.938 414.577V414.565ZM438.164 409.195C437.839 409.195 437.501 409.045 437.288 408.77C436.899 408.282 436.987 407.581 437.476 407.205C439.793 405.378 442.11 403.475 444.365 401.56C444.841 401.16 445.542 401.21 445.943 401.686C446.344 402.161 446.294 402.862 445.818 403.263C443.551 405.203 441.208 407.118 438.866 408.97C438.666 409.133 438.415 409.208 438.177 409.208L438.164 409.195ZM148.871 403.475C148.608 403.475 148.358 403.388 148.145 403.213C145.878 401.273 143.61 399.257 141.418 397.23C140.967 396.804 140.942 396.103 141.356 395.653C141.769 395.202 142.483 395.177 142.934 395.59C145.101 397.593 147.343 399.583 149.598 401.51C150.074 401.911 150.124 402.612 149.723 403.087C149.498 403.35 149.184 403.475 148.871 403.475ZM451.768 397.58C451.467 397.58 451.167 397.455 450.941 397.217C450.528 396.767 450.553 396.053 451.004 395.64C453.171 393.638 455.338 391.56 457.43 389.47C457.868 389.032 458.57 389.032 459.008 389.47C459.447 389.908 459.447 390.609 459.008 391.047C456.891 393.162 454.712 395.252 452.52 397.28C452.307 397.48 452.031 397.58 451.755 397.58H451.768ZM135.719 391.322C135.431 391.322 135.143 391.209 134.93 390.997C132.813 388.881 130.721 386.704 128.692 384.513C128.266 384.063 128.303 383.349 128.754 382.936C129.205 382.511 129.919 382.548 130.333 382.999C132.337 385.164 134.416 387.329 136.508 389.42C136.946 389.858 136.946 390.559 136.508 390.997C136.295 391.209 136.007 391.322 135.719 391.322ZM464.432 384.926C464.156 384.926 463.893 384.826 463.668 384.626C463.217 384.2 463.192 383.499 463.605 383.049C465.609 380.883 467.614 378.643 469.53 376.39C469.931 375.927 470.632 375.864 471.108 376.265C471.572 376.665 471.635 377.366 471.234 377.842C469.292 380.107 467.275 382.373 465.246 384.563C465.021 384.801 464.72 384.926 464.419 384.926H464.432ZM123.568 378.192C123.255 378.192 122.942 378.055 122.717 377.804C120.775 375.539 118.858 373.198 117.005 370.858C116.616 370.37 116.704 369.669 117.192 369.293C117.681 368.905 118.382 368.993 118.758 369.481C120.587 371.797 122.491 374.112 124.408 376.353C124.808 376.816 124.758 377.529 124.282 377.93C124.069 378.105 123.819 378.192 123.556 378.192H123.568ZM476.081 371.334C475.843 371.334 475.593 371.258 475.392 371.096C474.904 370.708 474.829 370.007 475.205 369.531C477.033 367.216 478.85 364.825 480.591 362.434C480.954 361.934 481.656 361.821 482.157 362.184C482.658 362.547 482.77 363.248 482.407 363.749C480.641 366.164 478.812 368.58 476.958 370.921C476.733 371.196 476.407 371.346 476.081 371.346V371.334ZM112.47 364.149C112.119 364.149 111.781 363.986 111.568 363.686C109.815 361.27 108.086 358.792 106.42 356.327C106.082 355.813 106.22 355.125 106.733 354.775C107.247 354.437 107.936 354.574 108.286 355.075C109.927 357.528 111.643 359.981 113.385 362.372C113.748 362.873 113.635 363.573 113.134 363.936C112.934 364.087 112.708 364.149 112.47 364.149ZM486.628 356.852C486.415 356.852 486.203 356.79 486.002 356.664C485.489 356.327 485.351 355.626 485.702 355.112C487.355 352.659 488.971 350.131 490.524 347.615C490.85 347.09 491.539 346.927 492.065 347.252C492.591 347.578 492.754 348.266 492.428 348.792C490.862 351.333 489.221 353.886 487.555 356.364C487.342 356.689 486.979 356.865 486.628 356.865V356.852ZM102.524 349.305C102.148 349.305 101.785 349.117 101.572 348.767C100.007 346.226 98.4783 343.622 97.0253 341.032C96.7246 340.493 96.9125 339.818 97.4512 339.505C97.9898 339.204 98.6662 339.392 98.9794 339.93C100.42 342.496 101.936 345.074 103.489 347.59C103.814 348.116 103.652 348.804 103.126 349.13C102.938 349.242 102.737 349.292 102.537 349.292L102.524 349.305ZM496.023 341.582C495.835 341.582 495.647 341.532 495.472 341.445C494.933 341.144 494.745 340.456 495.046 339.918C496.499 337.339 497.915 334.686 499.267 332.057C499.543 331.507 500.219 331.294 500.771 331.569C501.322 331.845 501.535 332.52 501.259 333.071C499.894 335.737 498.466 338.403 497 341.007C496.8 341.37 496.411 341.582 496.023 341.582ZM93.7685 333.735C93.3676 333.735 92.9668 333.509 92.7664 333.121C91.4135 330.468 90.0857 327.752 88.8331 325.048C88.5701 324.485 88.8206 323.822 89.3843 323.559C89.948 323.296 90.6118 323.546 90.8749 324.11C92.115 326.788 93.4177 329.479 94.7706 332.095C95.0461 332.646 94.8332 333.322 94.282 333.597C94.1192 333.685 93.9438 333.722 93.7685 333.722V333.735ZM504.178 325.624C504.015 325.624 503.865 325.586 503.714 325.524C503.151 325.261 502.913 324.598 503.163 324.034C504.403 321.343 505.618 318.59 506.746 315.861C506.984 315.286 507.635 315.023 508.211 315.261C508.787 315.498 509.05 316.149 508.812 316.725C507.673 319.491 506.445 322.27 505.192 324.986C505.004 325.399 504.604 325.637 504.178 325.637V325.624ZM86.2652 317.526C85.8268 317.526 85.4135 317.263 85.2256 316.838C84.0857 314.084 82.9834 311.28 81.9437 308.489C81.7308 307.913 82.0314 307.263 82.6076 307.05C83.1838 306.837 83.8352 307.137 84.0481 307.713C85.0753 310.479 86.165 313.258 87.2924 315.974C87.5304 316.55 87.2548 317.201 86.6911 317.438C86.5533 317.501 86.403 317.526 86.2652 317.526ZM511.055 309.052C510.929 309.052 510.792 309.027 510.666 308.977C510.09 308.765 509.789 308.126 510.002 307.538C511.03 304.759 512.019 301.918 512.934 299.102C513.121 298.514 513.76 298.188 514.349 298.389C514.938 298.576 515.263 299.215 515.063 299.803C514.136 302.644 513.146 305.51 512.107 308.327C511.944 308.777 511.518 309.052 511.055 309.052ZM80.0648 300.767C79.5888 300.767 79.1503 300.466 79 299.991C78.0731 297.149 77.1963 294.258 76.3821 291.392C76.2192 290.804 76.5574 290.178 77.1587 290.015C77.7599 289.852 78.3737 290.19 78.5366 290.791C79.3382 293.632 80.2151 296.499 81.1295 299.315C81.3174 299.903 81.0042 300.529 80.4155 300.729C80.3028 300.767 80.1775 300.779 80.0648 300.779V300.767ZM516.591 292.018C516.491 292.018 516.391 292.005 516.291 291.98C515.702 291.818 515.351 291.192 515.514 290.603C516.316 287.762 517.067 284.858 517.756 281.992C517.894 281.391 518.508 281.016 519.109 281.166C519.71 281.304 520.086 281.917 519.936 282.518C519.247 285.422 518.483 288.351 517.668 291.217C517.531 291.705 517.08 292.03 516.591 292.03V292.018ZM75.1921 283.557C74.691 283.557 74.2275 283.206 74.1023 282.706C73.4008 279.802 72.762 276.848 72.1732 273.919C72.048 273.318 72.4488 272.73 73.0501 272.605C73.6513 272.48 74.2401 272.88 74.3653 273.481C74.9415 276.385 75.5804 279.301 76.2693 282.18C76.4196 282.781 76.0438 283.382 75.4426 283.532C75.3549 283.557 75.2672 283.557 75.1795 283.557H75.1921ZM520.762 274.608C520.687 274.608 520.612 274.608 520.549 274.583C519.948 274.457 519.547 273.869 519.673 273.268C520.249 270.377 520.775 267.423 521.226 264.507C521.326 263.894 521.89 263.481 522.504 263.581C523.117 263.681 523.531 264.244 523.43 264.857C522.967 267.811 522.441 270.79 521.865 273.706C521.764 274.245 521.289 274.608 520.762 274.608ZM71.7098 265.996C71.1711 265.996 70.6951 265.608 70.6075 265.058C70.144 262.116 69.7306 259.112 69.3799 256.146C69.3047 255.533 69.7432 254.982 70.3569 254.907C70.9707 254.832 71.5219 255.27 71.597 255.883C71.9478 258.825 72.3486 261.791 72.8121 264.707C72.9123 265.321 72.4864 265.884 71.8851 265.984C71.8225 265.984 71.7724 265.996 71.7098 265.996ZM523.543 256.935C523.543 256.935 523.456 256.935 523.405 256.935C522.792 256.859 522.353 256.309 522.428 255.695C522.767 252.767 523.067 249.775 523.293 246.834C523.343 246.221 523.881 245.758 524.495 245.808C525.109 245.858 525.572 246.396 525.522 247.009C525.297 249.988 524.996 252.992 524.646 255.958C524.583 256.522 524.094 256.947 523.531 256.947L523.543 256.935ZM69.6054 248.236C69.0292 248.236 68.5406 247.785 68.4905 247.209C68.2525 244.243 68.0772 241.214 67.9644 238.235C67.9394 237.622 68.4154 237.096 69.0417 237.071C69.6555 237.046 70.1816 237.522 70.2066 238.148C70.3194 241.102 70.4947 244.093 70.7327 247.034C70.7828 247.648 70.3194 248.186 69.7056 248.236C69.6805 248.236 69.6429 248.236 69.6179 248.236H69.6054ZM524.921 239.099C524.921 239.099 524.896 239.099 524.884 239.099C524.27 239.074 523.781 238.561 523.806 237.935C523.919 234.981 523.982 231.99 523.982 229.036V228.635C523.982 228.022 524.483 227.521 525.096 227.521C525.71 227.521 526.211 228.022 526.211 228.635V229.036C526.211 232.027 526.149 235.044 526.036 238.022C526.011 238.623 525.522 239.099 524.921 239.099ZM68.9039 230.35C68.2901 230.35 67.7891 229.849 67.7891 229.236V229.036C67.7891 226.119 67.8392 223.166 67.9519 220.249C67.977 219.636 68.4905 219.148 69.1168 219.173C69.7306 219.198 70.2192 219.711 70.1941 220.337C70.0814 223.216 70.0313 226.145 70.0313 229.036V229.236C70.0313 229.849 69.5302 230.35 68.9164 230.35H68.9039ZM524.909 220.813C524.307 220.813 523.819 220.337 523.794 219.736C523.668 216.782 523.493 213.791 523.268 210.85C523.218 210.236 523.681 209.698 524.295 209.648C524.909 209.598 525.447 210.061 525.497 210.674C525.735 213.653 525.911 216.67 526.036 219.649C526.061 220.262 525.585 220.788 524.959 220.813C524.946 220.813 524.934 220.813 524.909 220.813ZM69.5803 212.477C69.5803 212.477 69.5177 212.477 69.4926 212.477C68.8788 212.427 68.4154 211.888 68.4655 211.275C68.691 208.296 68.9791 205.28 69.3298 202.326C69.4049 201.713 69.9561 201.275 70.5699 201.35C71.1837 201.425 71.6221 201.976 71.5469 202.589C71.2087 205.518 70.9206 208.497 70.6951 211.45C70.645 212.039 70.1565 212.477 69.5803 212.477ZM523.493 202.964C522.929 202.964 522.453 202.551 522.378 201.976C522.028 199.047 521.614 196.068 521.151 193.152C521.051 192.538 521.464 191.975 522.078 191.875C522.691 191.775 523.268 192.188 523.355 192.801C523.819 195.742 524.245 198.746 524.595 201.713C524.671 202.326 524.232 202.877 523.618 202.952C523.568 202.952 523.531 202.952 523.481 202.952L523.493 202.964ZM71.6471 194.704C71.6471 194.704 71.5344 194.704 71.4718 194.691C70.858 194.591 70.4446 194.028 70.5448 193.414C71.0083 190.461 71.5344 187.482 72.1106 184.553C72.2359 183.952 72.8121 183.552 73.4259 183.677C74.0271 183.802 74.428 184.378 74.3027 184.991C73.7265 187.882 73.2129 190.836 72.7495 193.765C72.6618 194.316 72.1858 194.716 71.6471 194.716V194.704ZM520.687 185.304C520.161 185.304 519.698 184.941 519.585 184.403C519.009 181.499 518.357 178.583 517.668 175.704C517.518 175.103 517.894 174.502 518.495 174.352C519.096 174.202 519.698 174.577 519.848 175.178C520.549 178.082 521.201 181.036 521.777 183.965C521.902 184.565 521.501 185.154 520.9 185.279C520.825 185.291 520.75 185.304 520.675 185.304H520.687ZM75.1044 177.143C75.0167 177.143 74.929 177.143 74.8413 177.118C74.2401 176.98 73.8643 176.367 74.0146 175.766C74.7035 172.863 75.4676 169.934 76.2693 167.068C76.4322 166.467 77.0585 166.129 77.6472 166.292C78.2485 166.454 78.5867 167.08 78.4238 167.668C77.6222 170.51 76.8706 173.413 76.1942 176.292C76.0689 176.805 75.618 177.156 75.1044 177.156V177.143ZM516.491 167.906C516.002 167.906 515.552 167.581 515.414 167.093C514.612 164.251 513.735 161.385 512.821 158.582C512.633 157.993 512.946 157.367 513.535 157.167C514.124 156.979 514.75 157.292 514.95 157.881C515.877 160.722 516.767 163.613 517.568 166.479C517.731 167.068 517.393 167.693 516.792 167.856C516.691 167.881 516.591 167.894 516.491 167.894V167.906ZM79.9395 159.921C79.8268 159.921 79.714 159.908 79.5888 159.871C79 159.683 78.6744 159.045 78.8748 158.469C79.8017 155.628 80.7913 152.749 81.8184 149.945C82.0314 149.37 82.6702 149.069 83.259 149.282C83.8352 149.495 84.1358 150.133 83.9228 150.721C82.8957 153.5 81.9186 156.341 81.0042 159.157C80.8539 159.633 80.4155 159.933 79.9395 159.933V159.921ZM510.929 150.897C510.478 150.897 510.052 150.621 509.877 150.171C508.85 147.404 507.76 144.626 506.62 141.91C506.382 141.334 506.658 140.683 507.222 140.445C507.798 140.208 508.449 140.483 508.687 141.046C509.827 143.787 510.942 146.603 511.969 149.395C512.182 149.97 511.894 150.621 511.305 150.834C511.18 150.884 511.042 150.909 510.917 150.909L510.929 150.897ZM86.14 143.074C86.0022 143.074 85.8519 143.049 85.7141 142.986C85.1379 142.748 84.8748 142.098 85.1128 141.522C86.2527 138.756 87.4678 135.977 88.7204 133.261C88.9834 132.698 89.6473 132.46 90.211 132.71C90.7747 132.973 91.0127 133.637 90.7622 134.2C89.5221 136.891 88.3195 139.644 87.1797 142.373C87.0043 142.798 86.5784 143.061 86.14 143.061V143.074ZM504.065 134.425C503.639 134.425 503.238 134.187 503.05 133.774C501.81 131.096 500.495 128.417 499.155 125.789C498.879 125.238 499.092 124.562 499.643 124.287C500.194 123.999 500.871 124.224 501.146 124.775C502.499 127.428 503.827 130.145 505.08 132.836C505.343 133.399 505.092 134.062 504.541 134.325C504.391 134.4 504.228 134.425 504.065 134.425ZM93.6557 126.79C93.4803 126.79 93.3175 126.753 93.1547 126.665C92.6035 126.39 92.3906 125.714 92.6662 125.163C94.019 122.497 95.4595 119.831 96.9125 117.215C97.2132 116.677 97.9021 116.489 98.4407 116.79C98.9794 117.09 99.1673 117.778 98.8666 118.317C97.4136 120.895 95.9981 123.548 94.6578 126.177C94.4574 126.565 94.0691 126.79 93.6557 126.79ZM495.923 118.529C495.535 118.529 495.146 118.329 494.946 117.954C493.493 115.388 491.977 112.809 490.436 110.294C490.111 109.768 490.274 109.08 490.8 108.754C491.326 108.429 492.015 108.591 492.34 109.117C493.906 111.658 495.434 114.261 496.9 116.852C497.201 117.39 497.013 118.066 496.474 118.379C496.299 118.479 496.111 118.517 495.923 118.517V118.529ZM102.424 111.157C102.224 111.157 102.023 111.107 101.835 110.995C101.309 110.669 101.146 109.981 101.472 109.455C103.038 106.914 104.666 104.361 106.332 101.87C106.67 101.357 107.372 101.219 107.886 101.557C108.399 101.895 108.537 102.596 108.199 103.109C106.558 105.562 104.929 108.091 103.389 110.619C103.176 110.957 102.812 111.157 102.437 111.157H102.424ZM486.541 103.31C486.178 103.31 485.827 103.134 485.614 102.809C483.973 100.356 482.257 97.9025 480.516 95.5244C480.152 95.0238 480.265 94.3229 480.766 93.9599C481.267 93.5969 481.969 93.7096 482.332 94.2102C484.086 96.6259 485.827 99.0916 487.493 101.57C487.831 102.083 487.706 102.771 487.192 103.122C487.004 103.247 486.779 103.31 486.566 103.31H486.541ZM112.382 96.2754C112.157 96.2754 111.919 96.2003 111.731 96.0626C111.23 95.6997 111.117 94.9987 111.481 94.4981C113.234 92.0825 115.063 89.6668 116.917 87.3263C117.305 86.8381 118.007 86.763 118.483 87.1385C118.971 87.5265 119.046 88.2274 118.671 88.7031C116.842 91.0311 115.025 93.4217 113.284 95.8123C113.071 96.1127 112.721 96.2754 112.382 96.2754ZM475.994 88.8658C475.668 88.8658 475.342 88.7156 475.117 88.4402C473.288 86.1247 471.384 83.8092 469.455 81.5688C469.054 81.1057 469.104 80.3922 469.58 79.9917C470.044 79.5912 470.758 79.6413 471.159 80.1169C473.1 82.3823 475.029 84.7104 476.871 87.0509C477.259 87.539 477.171 88.24 476.683 88.6154C476.482 88.7782 476.232 88.8532 475.994 88.8532V88.8658ZM123.481 82.2196C123.218 82.2196 122.967 82.132 122.754 81.9568C122.278 81.5563 122.228 80.8553 122.629 80.3797C124.57 78.1143 126.575 75.8488 128.604 73.6585C129.017 73.2079 129.731 73.1828 130.182 73.5959C130.633 74.0089 130.658 74.7224 130.245 75.1729C128.241 77.3508 126.249 79.5912 124.32 81.8316C124.094 82.0944 123.781 82.2196 123.468 82.2196H123.481ZM464.357 75.2856C464.056 75.2856 463.756 75.1604 463.53 74.9226C461.513 72.7573 459.434 70.592 457.342 68.5143C456.904 68.0762 456.904 67.3753 457.342 66.9372C457.781 66.4991 458.482 66.4991 458.92 66.9372C461.037 69.04 463.129 71.2178 465.159 73.4081C465.584 73.8587 465.547 74.5722 465.096 74.9852C464.883 75.1855 464.607 75.2856 464.332 75.2856H464.357ZM135.631 69.065C135.343 69.065 135.055 68.9523 134.842 68.7396C134.404 68.3015 134.404 67.6006 134.842 67.1625C136.959 65.0473 139.138 62.957 141.331 60.9294C141.781 60.5038 142.495 60.5414 142.909 60.992C143.335 61.4426 143.297 62.156 142.846 62.569C140.679 64.5716 138.512 66.6493 136.433 68.7396C136.22 68.9523 135.932 69.065 135.644 69.065H135.631ZM451.68 62.6441C451.405 62.6441 451.142 62.544 450.916 62.3437C448.749 60.3411 446.494 58.351 444.252 56.436C443.776 56.0355 443.726 55.3346 444.127 54.859C444.528 54.3834 445.229 54.3333 445.705 54.7338C447.973 56.6739 450.24 58.6765 452.432 60.7041C452.883 61.1171 452.92 61.8306 452.494 62.2812C452.269 62.519 451.968 62.6441 451.668 62.6441H451.68ZM148.771 56.9117C148.458 56.9117 148.145 56.774 147.919 56.5237C147.518 56.0606 147.569 55.3471 148.045 54.9466C150.312 53.0066 152.654 51.0916 154.997 49.2392C155.485 48.8512 156.187 48.9388 156.562 49.4269C156.951 49.9151 156.863 50.616 156.375 50.9915C154.057 52.8188 151.74 54.7213 149.498 56.6488C149.285 56.824 149.034 56.9117 148.771 56.9117ZM438.052 51.029C437.814 51.029 437.563 50.9539 437.363 50.7912C435.033 48.9638 432.64 47.1489 430.248 45.4092C429.747 45.0462 429.634 44.3453 429.997 43.8446C430.361 43.344 431.062 43.2313 431.563 43.5943C433.981 45.3466 436.398 47.174 438.741 49.0264C439.229 49.4144 439.304 50.1153 438.929 50.5909C438.703 50.8663 438.377 51.0165 438.052 51.0165V51.029ZM162.813 45.8347C162.462 45.8347 162.124 45.672 161.911 45.3716C161.548 44.871 161.661 44.1701 162.162 43.8071C164.579 42.0548 167.059 40.315 169.527 38.6629C170.041 38.325 170.73 38.4501 171.08 38.9633C171.419 39.4765 171.293 40.1649 170.78 40.5153C168.325 42.1549 165.869 43.8697 163.489 45.6094C163.289 45.7596 163.064 45.8222 162.826 45.8222L162.813 45.8347ZM423.546 40.5028C423.333 40.5028 423.12 40.4402 422.92 40.3151C420.452 38.6754 417.935 37.0483 415.404 35.5088C414.878 35.1834 414.715 34.495 415.029 33.9693C415.354 33.4436 416.043 33.2809 416.569 33.6063C419.112 35.1709 421.667 36.798 424.16 38.4626C424.674 38.8006 424.812 39.5015 424.473 40.0147C424.26 40.3401 423.897 40.5153 423.546 40.5153V40.5028ZM177.669 35.8718C177.293 35.8718 176.93 35.684 176.717 35.3336C176.391 34.8079 176.554 34.1195 177.08 33.7941C179.623 32.2295 182.229 30.7025 184.822 29.2381C185.36 28.9377 186.037 29.1255 186.35 29.6637C186.65 30.2019 186.463 30.8778 185.924 31.1907C183.356 32.63 180.776 34.157 178.258 35.6965C178.07 35.8092 177.87 35.8592 177.669 35.8592V35.8718ZM408.264 31.1406C408.076 31.1406 407.889 31.0905 407.713 31.0029C405.133 29.551 402.477 28.1367 399.834 26.7974C399.283 26.5221 399.07 25.8462 399.346 25.2955C399.621 24.7448 400.298 24.532 400.849 24.8074C403.517 26.1591 406.185 27.586 408.803 29.0504C409.342 29.3508 409.53 30.0392 409.229 30.5774C409.029 30.9403 408.64 31.1531 408.252 31.1531L408.264 31.1406ZM193.252 27.1229C192.851 27.1229 192.45 26.8976 192.25 26.5096C191.974 25.9589 192.187 25.283 192.738 25.0076C195.394 23.6559 198.112 22.3291 200.805 21.0775C201.369 20.8147 202.033 21.065 202.296 21.6282C202.559 22.1915 202.308 22.8548 201.745 23.1177C199.064 24.3568 196.383 25.671 193.753 27.0102C193.59 27.0978 193.415 27.1354 193.239 27.1354L193.252 27.1229ZM392.281 23.005C392.131 23.005 391.968 22.9675 391.817 22.9049C389.124 21.6658 386.369 20.4642 383.638 19.3377C383.062 19.0999 382.799 18.4491 383.037 17.8733C383.275 17.2976 383.926 17.0347 384.502 17.2725C387.27 18.4115 390.051 19.6256 392.769 20.8772C393.333 21.1401 393.571 21.8034 393.321 22.3542C393.133 22.7672 392.732 23.005 392.306 23.005H392.281ZM209.461 19.6256C209.022 19.6256 208.609 19.3628 208.421 18.9372C208.183 18.3615 208.459 17.7106 209.022 17.4728C211.765 16.3338 214.584 15.2324 217.377 14.1935C217.953 13.9808 218.605 14.2686 218.818 14.8569C219.031 15.4327 218.743 16.0835 218.154 16.2963C215.386 17.3226 212.605 18.4115 209.887 19.538C209.749 19.6006 209.598 19.6256 209.461 19.6256ZM375.684 16.1586C375.558 16.1586 375.421 16.1336 375.295 16.0835C372.515 15.0572 369.671 14.0809 366.853 13.1672C366.264 12.9795 365.938 12.3411 366.126 11.7654C366.314 11.1771 366.953 10.8517 367.529 11.0394C370.385 11.9656 373.254 12.9544 376.059 13.9808C376.636 14.1935 376.936 14.8319 376.723 15.4201C376.561 15.8707 376.135 16.1586 375.671 16.1586H375.684ZM226.233 13.4175C225.757 13.4175 225.319 13.1171 225.169 12.6415C224.981 12.0533 225.294 11.4274 225.883 11.2272C228.726 10.301 231.62 9.42483 234.488 8.61127C235.077 8.44856 235.703 8.7865 235.866 9.38728C236.029 9.97555 235.691 10.6014 235.089 10.7641C232.246 11.5651 229.377 12.4413 226.559 13.3549C226.446 13.3925 226.321 13.405 226.208 13.405L226.233 13.4175ZM358.623 10.6514C358.523 10.6514 358.423 10.6389 358.322 10.6139C355.479 9.81283 352.573 9.06186 349.692 8.38598C349.091 8.2483 348.715 7.635 348.865 7.03422C349.003 6.43343 349.617 6.05794 350.218 6.20814C353.124 6.89654 356.055 7.66003 358.936 8.46107C359.537 8.62379 359.876 9.2496 359.713 9.83787C359.575 10.326 359.124 10.6514 358.635 10.6514H358.623ZM243.457 8.54869C242.956 8.54869 242.492 8.19823 242.367 7.69758C242.217 7.0968 242.593 6.49602 243.194 6.34582C246.1 5.64491 249.056 4.99406 251.987 4.41831C252.588 4.29315 253.177 4.69367 253.302 5.29445C253.428 5.89523 253.027 6.4835 252.426 6.60866C249.52 7.18441 246.601 7.82274 243.72 8.52365C243.632 8.54869 243.545 8.54869 243.457 8.54869ZM341.199 6.50853C341.124 6.50853 341.061 6.50853 340.986 6.4835C338.08 5.92027 335.136 5.39458 332.205 4.94399C331.591 4.84386 331.178 4.28063 331.266 3.66733C331.366 3.05403 331.93 2.641 332.543 2.72861C335.5 3.19171 338.481 3.7174 341.412 4.29315C342.013 4.41831 342.414 4.99406 342.289 5.60736C342.189 6.14556 341.713 6.50853 341.186 6.50853H341.199ZM261.019 5.05664C260.48 5.05664 260.004 4.66864 259.916 4.11792C259.816 3.50462 260.242 2.94139 260.843 2.84126C263.787 2.37815 266.793 1.96512 269.762 1.61466C270.376 1.53956 270.927 1.97763 271.002 2.59093C271.077 3.20423 270.639 3.75495 270.025 3.83004C267.081 4.1805 264.113 4.59354 261.194 5.04412C261.131 5.04412 261.081 5.05664 261.019 5.05664ZM323.512 3.75495C323.512 3.75495 323.424 3.75495 323.387 3.75495C320.456 3.41701 317.462 3.12913 314.518 2.90384C313.904 2.85377 313.441 2.31557 313.491 1.70227C313.541 1.08897 314.08 0.625872 314.693 0.675937C317.675 0.90123 320.694 1.18911 323.65 1.53956C324.264 1.61466 324.702 2.16538 324.627 2.77867C324.564 3.35442 324.076 3.76746 323.512 3.76746V3.75495ZM278.806 2.9539C278.23 2.9539 277.741 2.50332 277.691 1.92757C277.641 1.31427 278.104 0.776067 278.718 0.726002C281.687 0.488193 284.718 0.312964 287.699 0.187801C288.313 0.162769 288.839 0.638388 288.864 1.2642C288.889 1.8775 288.413 2.40319 287.787 2.42822C284.831 2.54087 281.837 2.72861 278.894 2.9539C278.868 2.9539 278.831 2.9539 278.806 2.9539ZM305.65 2.40319C305.65 2.40319 305.624 2.40319 305.612 2.40319C302.756 2.30306 299.862 2.24047 297.006 2.24047H296.706C296.092 2.24047 295.591 1.73982 295.591 1.12652C295.591 0.513225 296.092 0.0125732 296.706 0.0125732H297.006C299.9 0.0125732 302.819 0.0626384 305.7 0.175285C306.313 0.200318 306.802 0.713486 306.777 1.3393C306.752 1.94008 306.263 2.4157 305.662 2.4157L305.65 2.40319Z" fill="#00BDBD"/>
<path d="M173.9 87.5641C152.706 65.2725 124.722 51.1291 94.6844 48.0877C76.6842 46.2728 57.1934 48.3004 40.2454 59.102C-18.8408 96.751 -11.4879 246.734 53.2852 295.973C105.407 335.587 166.76 292.881 184.435 275.334C213.157 246.821 209.437 253.981 220.924 248.148C237.358 239.812 246.364 238.911 255.534 238.511C288.352 237.096 328.286 280.928 333.96 326.225C340.988 382.248 291.446 407.581 303.973 441.838C316.637 476.483 382.449 492.016 431.615 478.511C520.238 454.179 602.748 322.357 551.566 223.353C515.954 154.451 424.011 117.766 353.952 146.804C319.192 161.21 317.3 200.774 290.131 201.024C268.423 201.225 256.661 178.72 202.923 118.955C192.314 107.152 182.506 96.6133 173.888 87.5515L173.9 87.5641Z" fill="#ECF3FE"/>
<g filter="url(#filter0_d_1384_21568)">
<path d="M368.469 237.484C368.469 256.296 361.254 273.444 349.442 286.285C337.454 299.327 320.719 307.938 301.968 309.39C300.101 309.541 298.197 309.616 296.293 309.616C294.389 309.616 292.673 309.553 290.894 309.415C272.043 308.026 255.195 299.39 243.145 286.285C231.332 273.444 224.117 256.309 224.117 237.484C224.117 197.645 256.435 165.353 296.306 165.353C336.177 165.353 368.494 197.645 368.494 237.484H368.469Z" fill="#D4E6FC"/>
</g>
<path d="M350.672 285.059C338.459 298.338 321.411 307.112 302.308 308.589C300.404 308.739 298.475 308.815 296.521 308.815C294.567 308.815 292.826 308.752 291.022 308.614C271.819 307.2 254.659 298.401 242.383 285.059L275.176 271.053L275.615 271.003L287.314 269.714L292.676 269.125L296.534 268.7L300.392 269.125L305.74 269.714L317.903 271.053L350.697 285.059H350.672Z" fill="#3B82F4"/>
<path d="M278.956 220.738L278.906 268.65L314.268 268.687L314.318 220.775L278.956 220.738Z" fill="white"/>
<path d="M306.317 271.04L299.941 277.073L302.308 308.602C300.404 308.752 298.475 308.827 296.521 308.827C294.567 308.827 292.826 308.765 291.022 308.627L293.102 277.073L286.738 271.028L286.312 270.615L287.302 269.726L288.467 268.687L296.534 261.453L304.588 268.7L305.728 269.726L306.755 270.64L306.329 271.04H306.317Z" fill="white"/>
<path d="M281.039 232.127H278.972C275.841 232.127 273.285 229.561 273.285 226.432C273.285 223.303 275.853 220.75 278.985 220.75H281.051C284.183 220.75 286.738 223.316 286.738 226.445C286.738 229.574 284.17 232.127 281.039 232.127Z" fill="#3B82F4"/>
<path d="M314.32 232.165H312.253C309.122 232.165 306.566 229.599 306.566 226.47C306.566 223.341 309.134 220.787 312.266 220.787H314.333C317.464 220.787 320.02 223.353 320.02 226.482C320.02 229.611 317.452 232.165 314.32 232.165Z" fill="#3B82F4"/>
<g style="mix-blend-mode:multiply" opacity="0.25">
<path d="M314.333 230.675V243.367C311.226 249.763 301.857 263.706 278.934 264.119L278.971 230.638L314.333 230.675Z" fill="#3A7EC1"/>
</g>
<path d="M310.663 192.275C310.663 192.275 327.16 191.061 315.861 222.527H310.625L310.663 192.275Z" fill="#3B82F4"/>
<path d="M312.804 202.439C312.804 202.439 319.455 188.283 303.084 185.517C286.699 182.738 272.833 196.631 273.309 201.8C273.797 206.97 277.455 222.49 277.455 222.49L312.804 202.451V202.439Z" fill="#3B82F4"/>
<path d="M316.338 204.767L316.313 230.275C316.3 241.615 306.555 250.777 295.018 249.838C284.734 248.987 276.98 240.138 276.98 229.837L277.006 204.729C277.006 202.839 278.559 201.287 280.463 201.287L312.893 201.325C313.845 201.325 314.709 201.713 315.336 202.338C315.962 202.964 316.338 203.828 316.338 204.779V204.767Z" fill="white"/>
<path d="M286.927 271.015H275.152L276.944 261.428L296.522 261.453C296.522 266.747 292.213 271.028 286.927 271.028V271.015Z" fill="#3B82F4"/>
<path d="M306.105 271.04H317.88L316.114 261.465L296.535 261.44C296.535 266.735 300.819 271.028 306.118 271.028L306.105 271.04Z" fill="#3B82F4"/>
<g style="mix-blend-mode:multiply" opacity="0.25">
<path d="M302.395 201.312C294.103 203.127 280.963 208.772 276.992 226.357L277.017 204.729C277.017 202.839 278.57 201.287 280.474 201.287L302.395 201.312Z" fill="#3A7EC1"/>
</g>
<path d="M296.847 232.39C292.651 232.39 289.469 230.663 289.269 230.55C288.43 230.087 288.129 229.036 288.593 228.21C289.056 227.384 290.096 227.071 290.935 227.534C291.186 227.671 296.76 230.625 302.184 227.559C303.01 227.096 304.062 227.384 304.538 228.21C305.002 229.036 304.714 230.087 303.887 230.563C301.457 231.94 299.014 232.403 296.847 232.39Z" fill="#3B82F4"/>
<g style="mix-blend-mode:multiply" opacity="0.25">
<path d="M304.81 418.708C280.447 418.708 256.797 413.939 234.525 404.527C213.018 395.44 193.715 382.436 177.143 365.876C160.571 349.317 147.556 330.017 138.462 308.539C129.042 286.285 124.27 262.655 124.27 238.31C124.27 213.966 129.042 190.335 138.462 168.081C147.556 146.591 160.571 127.303 177.143 110.744C193.715 94.1852 213.03 81.1808 234.525 72.0939C256.797 62.6817 280.447 57.913 304.81 57.913C329.174 57.913 352.823 62.6817 375.095 72.0939C396.602 81.1808 415.905 94.1852 432.477 110.744C449.049 127.303 462.064 146.603 471.158 168.081C480.578 190.335 485.35 213.966 485.35 238.31C485.35 262.655 480.578 286.285 471.158 308.539C462.064 330.03 449.049 349.317 432.477 365.876C415.905 382.436 396.59 395.44 375.095 404.527C352.823 413.939 329.174 418.708 304.81 418.708ZM304.81 95.0238C225.744 95.0238 161.422 159.295 161.422 238.298C161.422 317.301 225.744 381.572 304.81 381.572C383.876 381.572 448.198 317.301 448.198 238.298C448.198 159.295 383.876 95.0238 304.81 95.0238Z" fill="#3A7EC1"/>
</g>
<path d="M297.009 409.446C272.646 409.446 248.996 404.677 226.725 395.265C205.217 386.178 185.914 373.173 169.342 356.614C152.77 340.055 139.755 320.755 130.661 299.277C121.241 277.023 116.469 253.392 116.469 229.048C116.469 204.704 121.241 181.073 130.661 158.819C139.755 137.329 152.77 118.041 169.342 101.482C185.914 84.9231 205.23 71.9187 226.725 62.8318C248.996 53.4196 272.646 48.6509 297.009 48.6509C321.373 48.6509 345.022 53.4196 367.294 62.8318C388.801 71.9187 408.104 84.9231 424.676 101.482C441.249 118.041 454.263 137.341 463.357 158.819C472.777 181.073 477.55 204.704 477.55 229.048C477.55 253.392 472.777 277.023 463.357 299.277C454.263 320.768 441.249 340.055 424.676 356.614C408.104 373.173 388.789 386.178 367.294 395.265C345.022 404.677 321.373 409.446 297.009 409.446ZM297.009 85.7617C217.944 85.7617 153.622 150.033 153.622 229.036C153.622 308.039 217.944 372.31 297.009 372.31C376.075 372.31 440.397 308.039 440.397 229.036C440.397 150.033 376.075 85.7617 297.009 85.7617Z" fill="#1D1DA9"/>
<g style="mix-blend-mode:multiply" opacity="0.25">
<path d="M211.591 134H61.2266C57.9129 134 55.2266 136.684 55.2266 139.995V232.878C55.2266 236.189 57.9129 238.874 61.2266 238.874H211.591C214.905 238.874 217.592 236.189 217.592 232.878V139.995C217.592 136.684 214.905 134 211.591 134Z" fill="#3A7EC1"/>
</g>
<g style="mix-blend-mode:multiply" opacity="0.25">
<path d="M600.658 271.015H414.931C410.331 271.015 406.602 274.742 406.602 279.339V519.664C406.602 524.261 410.331 527.987 414.931 527.987H600.658C605.258 527.987 608.988 524.261 608.988 519.664V279.339C608.988 274.742 605.258 271.015 600.658 271.015Z" fill="#3A7EC1"/>
</g>
<path d="M205.443 125.163H55.0782C51.7644 125.163 49.0781 127.847 49.0781 131.158V224.042C49.0781 227.353 51.7644 230.037 55.0782 230.037H205.443C208.757 230.037 211.443 227.353 211.443 224.042V131.158C211.443 127.847 208.757 125.163 205.443 125.163Z" fill="white"/>
<path d="M88.2601 198.471C99.7925 198.471 109.141 189.129 109.141 177.606C109.141 166.083 99.7925 156.742 88.2601 156.742C76.7277 156.742 67.3789 166.083 67.3789 177.606C67.3789 189.129 76.7277 198.471 88.2601 198.471Z" fill="#ECF3FE"/>
<path d="M190.161 156.504H125.751C123.531 156.504 121.73 158.303 121.73 160.522C121.73 162.74 123.531 164.539 125.751 164.539H190.161C192.382 164.539 194.182 162.74 194.182 160.522C194.182 158.303 192.382 156.504 190.161 156.504Z" fill="#ECF3FE"/>
<path d="M190.161 173.589H125.751C123.531 173.589 121.73 175.387 121.73 177.606C121.73 179.825 123.531 181.624 125.751 181.624H190.161C192.382 181.624 194.182 179.825 194.182 177.606C194.182 175.387 192.382 173.589 190.161 173.589Z" fill="#ECF3FE"/>
<path d="M190.161 198.696H125.751C123.534 198.696 121.73 196.894 121.73 194.678C121.73 192.463 123.534 190.661 125.751 190.661H190.161C192.378 190.661 194.182 192.463 194.182 194.678C194.182 196.894 192.378 198.696 190.161 198.696Z" fill="#ECF3FE"/>
<path d="M211.443 131.158V136.728H49.0781V131.158C49.0781 127.854 51.7587 125.163 55.0782 125.163H205.443C208.75 125.163 211.443 127.841 211.443 131.158Z" fill="#D4E6FC"/>
<path d="M203.037 133.211C204.289 133.211 205.304 132.197 205.304 130.946C205.304 129.694 204.289 128.68 203.037 128.68C201.785 128.68 200.77 129.694 200.77 130.946C200.77 132.197 201.785 133.211 203.037 133.211Z" fill="#3B82F4"/>
<path d="M194.97 133.211C196.223 133.211 197.238 132.197 197.238 130.946C197.238 129.694 196.223 128.68 194.97 128.68C193.718 128.68 192.703 129.694 192.703 130.946C192.703 132.197 193.718 133.211 194.97 133.211Z" fill="#3B82F4"/>
<path d="M186.916 133.211C188.168 133.211 189.183 132.197 189.183 130.946C189.183 129.694 188.168 128.68 186.916 128.68C185.664 128.68 184.648 129.694 184.648 130.946C184.648 132.197 185.664 133.211 186.916 133.211Z" fill="#3B82F4"/>
<path d="M592.763 263.518H407.037C402.437 263.518 398.707 267.245 398.707 271.842V512.167C398.707 516.764 402.437 520.49 407.037 520.49H592.763C597.364 520.49 601.093 516.764 601.093 512.167V271.842C601.093 267.245 597.364 263.518 592.763 263.518Z" fill="white"/>
<path d="M486.677 280.565H421.991C419.923 280.565 418.246 282.238 418.246 284.302C418.246 286.365 419.923 288.038 421.991 288.038H486.677C488.745 288.038 490.422 286.365 490.422 284.302C490.422 282.238 488.745 280.565 486.677 280.565Z" fill="#ECF3FE"/>
<path d="M520.247 299.815H421.991C419.923 299.815 418.246 301.488 418.246 303.552C418.246 305.615 419.923 307.288 421.991 307.288H520.247C522.316 307.288 523.993 305.615 523.993 303.552C523.993 301.488 522.316 299.815 520.247 299.815Z" fill="#ECF3FE"/>
<path d="M520.247 326.538H421.991C419.925 326.538 418.246 324.861 418.246 322.795C418.246 320.73 419.925 319.053 421.991 319.053H520.247C522.314 319.053 523.993 320.73 523.993 322.795C523.993 324.861 522.314 326.538 520.247 326.538Z" fill="#ECF3FE"/>
<path d="M559.692 378.981H461.437C459.37 378.981 457.691 377.304 457.691 375.239C457.691 373.173 459.37 371.496 461.437 371.496H559.692C561.759 371.496 563.438 373.173 563.438 375.239C563.438 377.304 561.759 378.981 559.692 378.981Z" fill="#ECF3FE"/>
<path d="M545.563 500.001H461.437C459.37 500.001 457.691 498.324 457.691 496.259C457.691 494.194 459.37 492.516 461.437 492.516H545.563C547.63 492.516 549.308 494.194 549.308 496.259C549.308 498.324 547.63 500.001 545.563 500.001Z" fill="#ECF3FE"/>
<path d="M516.477 435.016H461.437C459.37 435.016 457.691 433.339 457.691 431.274C457.691 429.209 459.37 427.532 461.437 427.532H516.477C518.544 427.532 520.222 429.209 520.222 431.274C520.222 433.339 518.544 435.016 516.477 435.016Z" fill="#00BDBD"/>
<path d="M579.647 435.016H555.898C553.831 435.016 552.152 433.339 552.152 431.274C552.152 429.209 553.831 427.532 555.898 427.532H579.647C581.714 427.532 583.393 429.209 583.393 431.274C583.393 433.339 581.714 435.016 579.647 435.016Z" fill="#00BDBD"/>
<path d="M582.741 350.644H417.056C416.442 350.644 415.941 350.144 415.941 349.53C415.941 348.917 416.442 348.416 417.056 348.416H582.741C583.354 348.416 583.855 348.917 583.855 349.53C583.855 350.144 583.354 350.644 582.741 350.644Z" fill="#ECF3FE"/>
<path d="M530.247 350.644H469.545C468.931 350.644 468.43 350.144 468.43 349.53C468.43 348.917 468.931 348.416 469.545 348.416H530.247C530.86 348.416 531.361 348.917 531.361 349.53C531.361 350.144 530.86 350.644 530.247 350.644Z" fill="#3B82F4"/>
<path d="M446.433 344.636C448.675 344.636 450.492 342.821 450.492 340.581C450.492 338.341 448.675 336.526 446.433 336.526C444.192 336.526 442.375 338.341 442.375 340.581C442.375 342.821 444.192 344.636 446.433 344.636Z" fill="#ECF3FE"/>
<path d="M499.894 344.636C502.136 344.636 503.953 342.821 503.953 340.581C503.953 338.341 502.136 336.526 499.894 336.526C497.653 336.526 495.836 338.341 495.836 340.581C495.836 342.821 497.653 344.636 499.894 344.636Z" fill="#3B82F4"/>
<path d="M553.355 344.636C555.597 344.636 557.414 342.821 557.414 340.581C557.414 338.341 555.597 336.526 553.355 336.526C551.114 336.526 549.297 338.341 549.297 340.581C549.297 342.821 551.114 344.636 553.355 344.636Z" fill="#ECF3FE"/>
<path d="M436.062 377.204C435.598 377.204 435.223 376.828 435.223 376.365V374.125C435.223 373.662 435.598 373.286 436.062 373.286C436.525 373.286 436.901 373.662 436.901 374.125V376.365C436.901 376.828 436.525 377.204 436.062 377.204Z" fill="#D4E6FC"/>
<path d="M436.062 495.896C435.598 495.896 435.223 495.52 435.223 495.057V490.489C435.223 490.026 435.598 489.65 436.062 489.65C436.525 489.65 436.901 490.026 436.901 490.489V495.057C436.901 495.52 436.525 495.896 436.062 495.896ZM436.062 486.771C435.598 486.771 435.223 486.396 435.223 485.933V481.364C435.223 480.901 435.598 480.526 436.062 480.526C436.525 480.526 436.901 480.901 436.901 481.364V485.933C436.901 486.396 436.525 486.771 436.062 486.771ZM436.062 477.635C435.598 477.635 435.223 477.259 435.223 476.796V472.227C435.223 471.764 435.598 471.389 436.062 471.389C436.525 471.389 436.901 471.764 436.901 472.227V476.796C436.901 477.259 436.525 477.635 436.062 477.635ZM436.062 468.51C435.598 468.51 435.223 468.135 435.223 467.672V463.103C435.223 462.64 435.598 462.264 436.062 462.264C436.525 462.264 436.901 462.64 436.901 463.103V467.672C436.901 468.135 436.525 468.51 436.062 468.51ZM436.062 459.373C435.598 459.373 435.223 458.998 435.223 458.535V453.966C435.223 453.503 435.598 453.128 436.062 453.128C436.525 453.128 436.901 453.503 436.901 453.966V458.535C436.901 458.998 436.525 459.373 436.062 459.373ZM436.062 450.249C435.598 450.249 435.223 449.873 435.223 449.41V444.842C435.223 444.379 435.598 444.003 436.062 444.003C436.525 444.003 436.901 444.379 436.901 444.842V449.41C436.901 449.873 436.525 450.249 436.062 450.249ZM436.062 441.112C435.598 441.112 435.223 440.736 435.223 440.273V435.705C435.223 435.242 435.598 434.866 436.062 434.866C436.525 434.866 436.901 435.242 436.901 435.705V440.273C436.901 440.736 436.525 441.112 436.062 441.112ZM436.062 431.988C435.598 431.988 435.223 431.612 435.223 431.149V426.581C435.223 426.117 435.598 425.742 436.062 425.742C436.525 425.742 436.901 426.117 436.901 426.581V431.149C436.901 431.612 436.525 431.988 436.062 431.988ZM436.062 422.851C435.598 422.851 435.223 422.475 435.223 422.012V417.444C435.223 416.981 435.598 416.605 436.062 416.605C436.525 416.605 436.901 416.981 436.901 417.444V422.012C436.901 422.475 436.525 422.851 436.062 422.851ZM436.062 413.726C435.598 413.726 435.223 413.351 435.223 412.888V408.319C435.223 407.856 435.598 407.481 436.062 407.481C436.525 407.481 436.901 407.856 436.901 408.319V412.888C436.901 413.351 436.525 413.726 436.062 413.726ZM436.062 404.589C435.598 404.589 435.223 404.214 435.223 403.751V399.182C435.223 398.719 435.598 398.344 436.062 398.344C436.525 398.344 436.901 398.719 436.901 399.182V403.751C436.901 404.214 436.525 404.589 436.062 404.589ZM436.062 395.465C435.598 395.465 435.223 395.09 435.223 394.626V390.058C435.223 389.595 435.598 389.219 436.062 389.219C436.525 389.219 436.901 389.595 436.901 390.058V394.626C436.901 395.09 436.525 395.465 436.062 395.465ZM436.062 386.328C435.598 386.328 435.223 385.953 435.223 385.49V380.921C435.223 380.458 435.598 380.083 436.062 380.083C436.525 380.083 436.901 380.458 436.901 380.921V385.49C436.901 385.953 436.525 386.328 436.062 386.328Z" fill="#D4E6FC"/>
<path d="M436.062 502.705C435.598 502.705 435.223 502.329 435.223 501.866V499.626C435.223 499.163 435.598 498.787 436.062 498.787C436.525 498.787 436.901 499.163 436.901 499.626V501.866C436.901 502.329 436.525 502.705 436.062 502.705Z" fill="#D4E6FC"/>
<path d="M436.437 387.818C443.389 387.818 449.025 382.186 449.025 375.239C449.025 368.292 443.389 362.66 436.437 362.66C429.484 362.66 423.848 368.292 423.848 375.239C423.848 382.186 429.484 387.818 436.437 387.818Z" fill="#3B82F4"/>
<path d="M444.054 370.921V379.557C444.054 379.857 443.816 380.108 443.503 380.108H429.348C429.047 380.108 428.797 379.87 428.797 379.569V370.933C428.797 370.783 428.847 370.658 428.947 370.558C429.047 370.458 429.185 370.383 429.348 370.383H443.503C443.653 370.383 443.803 370.445 443.903 370.545C443.991 370.645 444.054 370.771 444.054 370.921Z" fill="white"/>
<path d="M443.905 370.545L436.815 375.239C436.589 375.389 436.289 375.389 436.063 375.239L428.961 370.545C429.061 370.445 429.199 370.37 429.362 370.37H443.516C443.667 370.37 443.817 370.432 443.917 370.533L443.905 370.545Z" fill="#3B82F4"/>
<path d="M443.905 370.545L436.602 373.036C436.376 373.186 436.076 373.186 435.85 373.036L428.961 370.545C429.061 370.445 429.199 370.37 429.362 370.37H443.516C443.667 370.37 443.817 370.432 443.917 370.533L443.905 370.545Z" fill="white"/>
<path d="M436.437 443.866C443.389 443.866 449.025 438.234 449.025 431.287C449.025 424.34 443.389 418.708 436.437 418.708C429.484 418.708 423.848 424.34 423.848 431.287C423.848 438.234 429.484 443.866 436.437 443.866Z" fill="#00BDBD"/>
<path d="M434.908 424.19C435.259 424.378 435.372 424.716 435.409 425.079C435.485 425.804 435.547 426.543 435.597 427.269C435.597 427.382 435.597 427.494 435.597 427.607C435.56 427.945 435.372 428.158 435.034 428.233C434.796 428.283 434.558 428.333 434.32 428.37C434.094 428.408 433.944 428.546 433.869 428.758C433.756 429.034 433.731 429.322 433.794 429.609C434.132 431.287 434.908 432.739 436.048 434.003C436.274 434.266 436.549 434.491 436.825 434.704C437 434.841 437.226 434.891 437.451 434.904C437.614 434.904 437.752 434.854 437.865 434.729C438.015 434.566 438.165 434.403 438.316 434.228C438.616 433.89 438.929 433.827 439.33 434.065C439.543 434.19 439.744 434.341 439.944 434.491C440.32 434.766 440.708 435.042 441.084 435.317C441.184 435.392 441.272 435.467 441.372 435.542C441.622 435.755 441.81 436.005 441.798 436.356C441.773 436.443 441.748 436.531 441.723 436.619C441.61 436.806 441.51 437.019 441.372 437.194C440.783 437.995 439.982 438.433 438.979 438.446C438.779 438.446 438.579 438.408 438.378 438.396C438.228 438.358 438.078 438.308 437.927 438.271C437.752 438.196 437.564 438.121 437.401 438.02C436.537 437.57 435.835 436.919 435.197 436.193C434.432 435.317 433.806 434.353 433.23 433.352C432.528 432.125 431.915 430.861 431.526 429.497C431.313 428.733 431.176 427.97 431.213 427.169C431.213 426.943 431.263 426.706 431.288 426.48C431.326 426.33 431.376 426.18 431.414 426.03C431.426 425.992 431.451 425.967 431.464 425.93C431.915 424.828 432.754 424.24 433.906 424.09C434.157 424.052 434.42 424.09 434.67 424.09C434.758 424.115 434.846 424.14 434.933 424.165L434.908 424.19Z" fill="white"/>
<path d="M524.697 392.01H451.131C449.979 392.01 449.039 391.072 449.039 389.92C449.039 388.769 449.979 387.83 451.131 387.83H524.697C525.85 387.83 526.789 388.769 526.789 389.92C526.789 391.072 525.85 392.01 524.697 392.01Z" fill="#ECF3FE"/>
<path d="M524.697 401.61H451.131C449.979 401.61 449.039 400.672 449.039 399.52C449.039 398.369 449.979 397.43 451.131 397.43H524.697C525.85 397.43 526.789 398.369 526.789 399.52C526.789 400.672 525.85 401.61 524.697 401.61Z" fill="#ECF3FE"/>
<path d="M524.697 451.55H451.131C449.979 451.55 449.039 450.612 449.039 449.46C449.039 448.309 449.979 447.37 451.131 447.37H524.697C525.85 447.37 526.789 448.309 526.789 449.46C526.789 450.612 525.85 451.55 524.697 451.55Z" fill="#ECF3FE"/>
<path d="M524.697 461.138H451.131C449.979 461.138 449.039 460.199 449.039 459.048C449.039 457.896 449.979 456.958 451.131 456.958H524.697C525.85 456.958 526.789 457.896 526.789 459.048C526.789 460.199 525.85 461.138 524.697 461.138Z" fill="#ECF3FE"/>
<path d="M524.694 466.545H451.115C449.96 466.545 449.023 467.481 449.023 468.635V468.648C449.023 469.802 449.96 470.738 451.115 470.738H524.694C525.85 470.738 526.786 469.802 526.786 468.648V468.635C526.786 467.481 525.85 466.545 524.694 466.545Z" fill="#ECF3FE"/>
<path d="M436.437 508.85C443.389 508.85 449.025 503.218 449.025 496.271C449.025 489.324 443.389 483.692 436.437 483.692C429.484 483.692 423.848 489.324 423.848 496.271C423.848 503.218 429.484 508.85 436.437 508.85Z" fill="#3B82F4"/>
<path d="M433.018 502.542C433.018 502.542 443.277 496.447 443.064 496.284C442.851 496.134 432.918 489.988 432.918 489.988L435.273 496.246L433.018 502.542Z" fill="white"/>
<g style="mix-blend-mode:multiply" opacity="0.25">
<path d="M175.363 443.057C188.055 440.064 195.916 427.357 192.92 414.675C189.925 401.993 177.207 394.139 164.516 397.132C151.824 400.125 143.964 412.832 146.959 425.514C149.955 438.196 162.672 446.05 175.363 443.057Z" fill="#3A7EC1"/>
</g>
<g style="mix-blend-mode:multiply" opacity="0.25">
<path d="M473.029 101.338C485.785 98.6331 493.932 86.1075 491.225 73.3612C488.519 60.6148 475.983 52.4744 463.227 55.179C450.47 57.8837 442.323 70.4093 445.03 83.1557C447.737 95.902 460.272 104.042 473.029 101.338Z" fill="#3A7EC1"/>
</g>
<path d="M466.561 98.0526C479.602 98.0526 490.173 87.4896 490.173 74.4594C490.173 61.4293 479.602 50.8662 466.561 50.8662C453.521 50.8662 442.949 61.4293 442.949 74.4594C442.949 87.4896 453.521 98.0526 466.561 98.0526Z" fill="#00BDBD"/>
<path d="M463.694 61.142C464.358 61.505 464.571 62.1308 464.633 62.8192C464.771 64.196 464.884 65.5603 464.997 66.9371C465.009 67.1499 464.997 67.3626 464.972 67.5629C464.897 68.2012 464.546 68.6018 463.907 68.7394C463.469 68.8396 463.018 68.9272 462.579 69.0023C462.153 69.0774 461.878 69.3277 461.727 69.7157C461.527 70.2289 461.477 70.7671 461.59 71.3178C462.228 74.4594 463.681 77.1879 465.823 79.5535C466.262 80.0417 466.763 80.4547 467.277 80.8677C467.602 81.1181 468.016 81.2182 468.441 81.2307C468.742 81.2307 469.005 81.1431 469.218 80.9053C469.494 80.5924 469.782 80.2795 470.07 79.9666C470.646 79.3282 471.222 79.2281 471.974 79.6662C472.375 79.904 472.75 80.1919 473.126 80.4672C473.84 80.9804 474.554 81.5061 475.256 82.0318C475.431 82.1694 475.619 82.3071 475.782 82.4573C476.245 82.8578 476.609 83.3334 476.571 83.9968C476.521 84.1595 476.483 84.3222 476.433 84.4975C476.22 84.8604 476.02 85.2484 475.769 85.5864C474.654 87.1008 473.164 87.9144 471.272 87.9394C470.897 87.9394 470.521 87.8769 470.132 87.8518C469.844 87.7767 469.556 87.6891 469.281 87.614C468.943 87.4638 468.604 87.3261 468.291 87.1509C466.663 86.3123 465.347 85.0857 464.157 83.7214C462.729 82.0818 461.539 80.2795 460.475 78.402C459.159 76.099 458.007 73.7209 457.281 71.1676C456.88 69.7407 456.617 68.3014 456.704 66.8119C456.729 66.3739 456.792 65.9483 456.842 65.5102C456.917 65.2224 457.005 64.9345 457.08 64.6591C457.118 64.5965 457.155 64.534 457.18 64.4714C458.032 62.4187 459.598 61.3048 461.777 61.0294C462.253 60.9668 462.729 61.0294 463.218 61.0294C463.381 61.0795 463.544 61.117 463.719 61.1671L463.694 61.142Z" fill="white"/>
<path d="M129.106 421.486C133.465 421.486 136.998 417.956 136.998 413.601C136.998 409.246 133.465 405.716 129.106 405.716C124.748 405.716 121.215 409.246 121.215 413.601C121.215 417.956 124.748 421.486 129.106 421.486Z" fill="#1D1DA9"/>
<path d="M123.556 398.531C125.881 398.531 127.765 396.649 127.765 394.326C127.765 392.003 125.881 390.12 123.556 390.12C121.232 390.12 119.348 392.003 119.348 394.326C119.348 396.649 121.232 398.531 123.556 398.531Z" fill="#1D1DA9"/>
<path d="M463.018 115.751C466.519 115.751 469.356 112.915 469.356 109.417C469.356 105.92 466.519 103.084 463.018 103.084C459.517 103.084 456.68 105.92 456.68 109.417C456.68 112.915 459.517 115.751 463.018 115.751Z" fill="#00BDBD"/>
<path d="M477.562 123.473C479.665 123.473 481.37 121.77 481.37 119.668C481.37 117.567 479.665 115.863 477.562 115.863C475.459 115.863 473.754 117.567 473.754 119.668C473.754 121.77 475.459 123.473 477.562 123.473Z" fill="#00BDBD"/>
<path d="M49.3893 269.676L48.5751 265.821C46.9968 258.862 40.0573 254.494 33.1052 256.058C26.1406 257.635 21.769 264.569 23.3348 271.504L24.1615 275.434C20.8671 276.71 18.913 280.227 19.7147 283.769L24.8504 306.437C25.7273 310.329 29.6104 312.782 33.5061 311.894L57.0679 306.574C60.9635 305.698 63.4187 301.818 62.5293 297.925L57.3936 275.258C56.5668 271.579 53.0595 269.201 49.3893 269.689V269.676ZM45.6314 295.81L39.4685 297.199L39.4184 292.531C38.2034 292.105 37.2264 291.092 36.9132 289.74C36.4497 287.662 37.7399 285.609 39.8193 285.134C41.8986 284.671 43.9529 285.96 44.4289 288.038C44.717 289.339 44.3162 290.628 43.4769 291.53C44.3037 293.157 45.6314 295.785 45.6314 295.785V295.81ZM46.6711 270.264L26.8672 274.733L26.053 270.915C24.8129 265.458 28.2576 260.014 33.719 258.787C39.1804 257.548 44.6293 260.99 45.8569 266.422L46.6711 270.264Z" fill="#A9BEFF"/>
<path d="M590.611 169.158L591.338 166.967C592.591 163 590.386 158.744 586.415 157.48C582.444 156.228 578.185 158.431 576.933 162.399L576.194 164.627C574.152 164.301 572.135 165.503 571.496 167.518L567.4 180.472C566.699 182.7 567.927 185.078 570.156 185.779L583.609 190.035C585.839 190.736 588.219 189.509 588.92 187.281L593.017 174.327C593.68 172.224 592.616 169.996 590.624 169.158H590.611ZM581.004 181.236L577.484 180.122L578.837 177.756C578.348 177.181 578.148 176.38 578.398 175.616C578.774 174.427 580.039 173.776 581.229 174.152C582.419 174.527 583.071 175.791 582.695 176.98C582.457 177.719 581.881 178.257 581.179 178.457C581.117 179.521 581.004 181.236 581.004 181.236ZM589.058 168.645L577.747 165.065L578.461 162.9C579.451 159.783 582.783 158.056 585.902 159.032C589.021 160.021 590.749 163.35 589.772 166.467L589.046 168.645H589.058Z" fill="#A9BEFF"/>
<path d="M572.798 305.61C572.798 305.61 572.535 305.135 572.171 304.196C571.996 303.72 571.771 303.145 571.42 302.494C571.094 301.831 570.743 301.067 570.217 300.266C569.278 298.614 567.825 296.774 565.858 294.947C563.892 293.132 561.311 291.392 558.155 290.19C555.011 289.014 551.29 288.313 547.357 288.738C543.449 289.177 539.29 290.503 535.733 293.169C533.929 294.446 532.288 296.06 530.898 297.9C530.158 298.802 529.582 299.815 528.956 300.817C528.442 301.881 527.879 302.932 527.49 304.071C525.762 308.564 525.561 313.771 526.914 318.69C528.355 323.584 531.286 327.889 535.131 330.806C536.058 331.582 537.098 332.17 538.1 332.796C539.165 333.322 540.192 333.885 541.294 334.248C543.449 335.074 545.691 335.587 547.908 335.712C552.342 336.1 556.576 335.036 560.121 333.347C563.691 331.632 566.485 329.066 568.526 326.413C570.568 323.734 571.846 320.893 572.56 318.314C573.261 315.724 573.524 313.396 573.449 311.493C573.474 310.542 573.374 309.703 573.299 308.977C573.249 308.239 573.136 307.638 573.036 307.137C572.848 306.149 572.773 305.623 572.823 305.61C572.873 305.598 573.036 306.099 573.299 307.087C573.449 307.576 573.599 308.189 573.687 308.927C573.8 309.666 573.963 310.517 573.963 311.481C574.113 313.421 573.925 315.824 573.274 318.502C572.61 321.181 571.357 324.147 569.278 326.976C567.199 329.779 564.33 332.495 560.61 334.335C556.915 336.15 552.48 337.314 547.82 336.939C545.491 336.814 543.136 336.3 540.843 335.449C539.678 335.061 538.589 334.473 537.474 333.935C536.409 333.284 535.319 332.658 534.342 331.845C530.284 328.791 527.177 324.235 525.649 319.065C524.209 313.871 524.447 308.364 526.275 303.633C526.689 302.431 527.277 301.317 527.829 300.203C528.493 299.152 529.106 298.076 529.883 297.137C531.361 295.209 533.102 293.52 535.006 292.193C538.777 289.414 543.148 288.063 547.244 287.65C551.365 287.262 555.249 288.038 558.493 289.327C561.75 290.628 564.38 292.493 566.359 294.421C568.338 296.361 569.766 298.301 570.656 300.028C571.157 300.854 571.483 301.668 571.771 302.344C572.084 303.02 572.272 303.62 572.409 304.108C572.698 305.085 572.823 305.598 572.785 305.61H572.798Z" fill="#FF8381"/>
<path d="M563.68 292.631C563.755 292.681 563.455 293.182 562.828 294.02C562.49 294.471 562.102 294.984 561.676 295.547C561.45 295.835 561.212 296.161 560.937 296.486C560.636 296.786 560.31 297.099 559.985 297.437C557.454 300.178 553.12 303.533 547.484 305.085C546.782 305.272 546.081 305.448 545.404 305.635C544.703 305.736 544.014 305.836 543.337 305.936C542.999 305.986 542.661 306.036 542.323 306.074C541.985 306.086 541.659 306.099 541.321 306.111C540.657 306.136 540.018 306.174 539.392 306.174C536.886 306.099 534.632 305.786 532.803 305.323C529.12 304.421 527.091 303.182 527.166 303.045C527.241 302.857 529.371 303.758 532.991 304.409C534.795 304.747 536.974 304.947 539.379 304.96C539.98 304.96 540.594 304.884 541.221 304.859C541.534 304.847 541.847 304.822 542.172 304.797C542.486 304.747 542.811 304.697 543.137 304.647C543.788 304.547 544.44 304.446 545.104 304.334C545.755 304.159 546.419 303.983 547.083 303.808C552.457 302.331 556.665 299.277 559.308 296.761C559.659 296.461 559.985 296.173 560.298 295.898C560.586 295.61 560.849 295.309 561.1 295.047C561.588 294.546 562.014 294.095 562.402 293.682C563.129 292.944 563.58 292.556 563.655 292.618L563.68 292.631Z" fill="#FF8381"/>
<path d="M535.507 332.195C535.432 332.145 535.733 331.644 536.359 330.806C536.697 330.355 537.086 329.842 537.512 329.279C537.737 328.991 537.975 328.665 538.251 328.34C538.551 328.04 538.877 327.727 539.203 327.389C541.733 324.648 546.067 321.293 551.704 319.741C552.405 319.554 553.107 319.378 553.783 319.191C554.485 319.09 555.174 318.99 555.85 318.89C556.188 318.84 556.526 318.79 556.852 318.753C557.19 318.74 557.516 318.728 557.854 318.715C558.518 318.69 559.157 318.652 559.783 318.652C562.288 318.728 564.543 319.04 566.372 319.504C570.055 320.405 572.084 321.644 572.009 321.781C571.934 321.969 569.804 321.068 566.184 320.417C564.38 320.079 562.201 319.879 559.796 319.866C559.194 319.866 558.581 319.942 557.954 319.967C557.641 319.979 557.328 320.004 557.002 320.029C556.689 320.079 556.364 320.129 556.038 320.179C555.387 320.28 554.735 320.38 554.071 320.492C553.42 320.668 552.756 320.843 552.092 321.018C546.718 322.495 542.51 325.549 539.867 328.065C539.516 328.365 539.19 328.653 538.877 328.916C538.589 329.204 538.326 329.504 538.075 329.767C537.587 330.268 537.161 330.718 536.773 331.131C536.046 331.87 535.595 332.258 535.52 332.195H535.507Z" fill="#FF8381"/>
<path d="M572.96 306.149C573.06 306.499 562.726 309.753 549.886 313.421C537.035 317.088 526.55 319.766 526.45 319.416C526.35 319.065 536.684 315.811 549.523 312.144C562.363 308.477 572.86 305.798 572.96 306.149Z" fill="#FF8381"/>
<path d="M555.66 335.624C555.309 335.725 552.053 325.411 548.382 312.582C544.712 299.753 542.032 289.264 542.382 289.164C542.733 289.064 545.99 299.377 549.66 312.219C553.33 325.048 556.011 335.537 555.66 335.637V335.624Z" fill="#FF8381"/>
<path d="M555.651 335.587C555.601 335.75 552.52 334.823 548.374 331.832C546.319 330.33 544.002 328.302 541.91 325.637C539.818 322.971 537.989 319.629 536.9 315.861C535.797 312.081 535.634 308.264 536.035 304.897C536.424 301.53 537.325 298.589 538.277 296.236C540.219 291.517 542.261 289.051 542.386 289.151C542.561 289.252 540.82 291.868 539.154 296.561C538.34 298.902 537.563 301.768 537.25 305.022C536.937 308.264 537.125 311.881 538.177 315.486C539.217 319.09 540.933 322.295 542.887 324.898C544.854 327.501 547.008 329.542 548.95 331.094C552.845 334.198 555.739 335.412 555.664 335.599L555.651 335.587Z" fill="#FF8381"/>
<path d="M542.909 289.001C542.959 288.839 546.04 289.765 550.186 292.756C552.241 294.258 554.558 296.286 556.65 298.952C558.742 301.618 560.57 304.96 561.66 308.727C562.763 312.507 562.925 316.324 562.525 319.691C562.136 323.058 561.234 325.999 560.282 328.353C558.341 333.071 556.299 335.537 556.174 335.437C555.998 335.337 557.74 332.721 559.406 328.027C560.22 325.687 560.996 322.82 561.309 319.566C561.623 316.324 561.435 312.707 560.383 309.102C559.343 305.498 557.627 302.294 555.673 299.69C553.706 297.087 551.552 295.047 549.61 293.495C545.714 290.391 542.821 289.177 542.896 288.989L542.909 289.001Z" fill="#FF8381"/>
<path d="M100.733 202.802C103.562 202.802 105.856 200.594 105.856 197.87C105.856 195.147 103.562 192.939 100.733 192.939C97.9031 192.939 95.6094 195.147 95.6094 197.87C95.6094 200.594 97.9031 202.802 100.733 202.802Z" fill="#00BDBD"/>
<path d="M102.8 196.493C102.8 196.581 102.763 196.669 102.7 196.731L99.9069 199.422C99.9069 199.422 99.8818 199.447 99.8693 199.447C99.7565 199.535 99.6062 199.585 99.4559 199.585C99.2805 199.585 99.1052 199.522 98.9799 199.397L98.2283 198.671C98.0906 198.533 98.0906 198.321 98.2283 198.196C98.291 198.133 98.3912 198.095 98.4789 198.095C98.5666 198.095 98.6542 198.133 98.7294 198.196L99.3808 198.821C99.3808 198.821 99.4309 198.846 99.4559 198.846C99.481 198.846 99.506 198.846 99.5311 198.821L102.199 196.256C102.262 196.193 102.349 196.155 102.45 196.155C102.537 196.155 102.625 196.193 102.7 196.256C102.763 196.318 102.8 196.406 102.8 196.493Z" fill="white"/>
<path d="M87.7434 192.951C95.8859 192.951 102.487 186.356 102.487 178.22C102.487 170.084 95.8859 163.488 87.7434 163.488C79.6008 163.488 73 170.084 73 178.22C73 186.356 79.6008 192.951 87.7434 192.951Z" fill="#1F298A"/>
<path d="M87.7675 177.631C89.208 177.631 90.5358 176.93 91.3876 175.867C92.0139 175.091 92.3897 174.102 92.3897 172.988C92.3897 170.447 90.3229 168.344 87.78 168.344C85.2372 168.344 83.1328 170.447 83.1328 172.988C83.1328 174.089 83.4961 175.091 84.1349 175.867C84.9867 176.93 86.3145 177.631 87.7926 177.631H87.7675Z" fill="white"/>
<path d="M95.9351 185.905C95.9351 188.833 79.5508 188.833 79.5508 185.905V182.488C80.2021 177.819 94.6073 177.619 95.9351 182.488V185.905Z" fill="white"/>
<path d="M175.979 447.157C175.578 447.257 175.178 447.357 174.764 447.445C174.626 447.47 174.489 447.508 174.351 447.533C174.038 447.595 173.724 447.658 173.411 447.708C158.43 450.249 143.95 440.586 140.668 425.604C137.536 411.311 145.703 397.167 159.207 392.474C160.284 392.098 161.399 391.785 162.539 391.535C162.952 391.447 163.353 391.36 163.766 391.297C164.167 391.222 164.568 391.172 164.956 391.109C166.171 390.947 167.386 390.871 168.589 390.871C170.38 390.871 172.134 391.022 173.862 391.347C179.198 392.336 184.121 394.827 188.067 398.444C192.251 402.286 195.332 407.405 196.647 413.388C199.929 428.42 190.748 443.277 175.992 447.17L175.979 447.157Z" fill="#2CC3C4"/>
<path d="M161.473 444.416C152.793 441.838 145.728 434.754 143.661 425.304C142.196 418.607 143.423 411.749 147.131 405.991C150.826 400.221 156.551 396.241 163.252 394.776C169.954 393.312 176.818 394.539 182.58 398.243C188.355 401.936 192.338 407.656 193.804 414.352C196.822 428.17 188.042 441.863 174.213 444.879C169.841 445.83 165.482 445.605 161.473 444.416ZM175.803 395.89C171.82 394.714 167.574 394.539 163.39 395.452C156.876 396.879 151.302 400.747 147.707 406.354C144.112 411.961 142.91 418.633 144.338 425.154C147.281 438.596 160.609 447.132 174.062 444.203C187.515 441.262 196.058 427.945 193.127 414.502C191.699 407.994 187.829 402.424 182.217 398.832C180.2 397.543 178.046 396.554 175.816 395.89H175.803Z" fill="white"/>
<path d="M179.284 425.341C179.272 425.191 179.247 425.041 179.234 424.891C179.084 423.777 178.758 422.826 178.27 422.024C177.719 421.111 177.005 420.347 176.103 419.709C175.213 419.071 174.161 418.532 172.959 418.094C171.756 417.656 170.428 417.243 168.975 416.855C168.073 416.617 167.322 416.38 166.708 416.129C166.094 415.879 165.593 415.604 165.205 415.303C164.817 414.99 164.528 414.652 164.353 414.252C164.165 413.864 164.052 413.426 164.002 412.925C163.952 412.425 163.977 411.961 164.09 411.511C164.19 411.073 164.378 410.672 164.654 410.334C164.929 409.984 165.293 409.708 165.744 409.483C166.194 409.258 166.746 409.108 167.397 409.045C168.6 408.932 169.589 409.233 170.391 409.959C171.18 410.685 171.656 411.861 171.819 413.463L178.082 412.85C177.957 411.511 177.643 410.322 177.155 409.27C176.666 408.232 176.028 407.343 175.238 406.617C174.449 405.891 173.535 405.34 172.47 404.94C171.405 404.539 170.253 404.326 168.988 404.289L168.562 399.921L165.092 400.259L165.518 404.564C164.228 404.815 163.075 405.203 162.073 405.741C161.071 406.279 160.219 406.93 159.543 407.706C158.854 408.482 158.366 409.358 158.052 410.334C157.739 411.311 157.639 412.374 157.752 413.513C157.877 414.828 158.215 415.942 158.766 416.843C159.318 417.756 160.032 418.52 160.933 419.146C161.823 419.772 162.875 420.31 164.09 420.735C165.305 421.161 166.633 421.561 168.098 421.924C168.95 422.125 169.677 422.35 170.278 422.588C170.879 422.826 171.38 423.101 171.769 423.414C172.169 423.727 172.458 424.09 172.658 424.503C172.858 424.916 172.984 425.404 173.046 425.967C173.096 426.468 173.046 426.931 172.921 427.369C172.783 427.807 172.57 428.195 172.245 428.546C171.931 428.883 171.518 429.171 171.03 429.397C170.529 429.622 169.94 429.76 169.263 429.835C168.675 429.897 168.086 429.872 167.497 429.772C166.908 429.672 166.37 429.459 165.894 429.121C165.405 428.783 165.004 428.308 164.666 427.694C164.341 427.081 164.128 426.305 164.027 425.354L157.764 425.967C157.915 427.582 158.315 428.933 158.954 430.035C159.581 431.136 160.37 432.025 161.309 432.701C162.249 433.377 163.301 433.865 164.466 434.153C165.631 434.441 166.808 434.591 168.023 434.603L168.412 438.584L171.856 438.246L171.468 434.24C172.758 433.99 173.911 433.615 174.938 433.089C175.89 432.613 176.691 432.025 177.343 431.337C177.393 431.287 177.443 431.224 177.493 431.174C178.182 430.41 178.683 429.547 178.996 428.571C179.322 427.594 179.422 426.505 179.309 425.329L179.284 425.341Z" fill="#1F2994"/>
</g>
<defs>
<filter id="filter0_d_1384_21568" x="222.227" y="163.463" width="156.939" height="156.823" filterUnits="userSpaceOnUse" color-interpolation-filters="sRGB">
<feFlood flood-opacity="0" result="BackgroundImageFix"/>
<feColorMatrix in="SourceAlpha" type="matrix" values="0 0 0 0 0 0 0 0 0 0 0 0 0 0 0 0 0 0 127 0" result="hardAlpha"/>
<feOffset dx="4.39" dy="4.39"/>
<feGaussianBlur stdDeviation="3.14"/>
<feColorMatrix type="matrix" values="0 0 0 0 0 0 0 0 0 0 0 0 0 0 0 0 0 0 0.05 0"/>
<feBlend mode="normal" in2="BackgroundImageFix" result="effect1_dropShadow_1384_21568"/>
<feBlend mode="normal" in="SourceGraphic" in2="effect1_dropShadow_1384_21568" result="shape"/>
</filter>
<clipPath id="clip0_1384_21568">
<rect width="609" height="528" fill="white"/>
</clipPath>
</defs>
</svg>
