<svg width="716" height="504" viewBox="0 0 716 504" fill="none" xmlns="http://www.w3.org/2000/svg">
<path d="M491.664 146.864C491.664 146.864 503.181 114.089 547.21 133.221C591.24 152.353 629.128 122.262 639.919 140.987C650.425 159.214 608.286 180.48 619.637 211.244C627.756 233.248 692.204 229.614 673.685 269.442C655.167 309.268 573.549 301.086 566.509 297.428C559.468 293.77 499.291 249.623 499.291 249.623L491.664 146.864Z" fill="#D4E1FF"/>
<path d="M99.4944 265.063C99.4944 265.063 57.0471 206.007 87.2716 185.071C132.084 154.031 169.217 270.78 240.62 258.383C312.023 245.985 338.304 255.441 352.027 291.264C365.75 327.09 364.825 366.661 419.042 371.271C473.259 375.881 489.732 406.305 489.732 406.305H103.426L99.4944 265.063Z" fill="#D4E1FF"/>
<path d="M145.864 350.593C145.864 350.593 146.61 299.674 117.273 248.579C90.3879 201.749 48.2578 197.962 48.2578 197.962C48.2578 197.962 65.7912 205.599 73.7673 267.429C78.3652 303.069 84.9042 336.45 101.569 356.973C123.1 383.49 144.653 374.216 145.864 350.593Z" fill="#0E4F77"/>
<path d="M128.755 362.655C128.755 362.655 128.641 359.898 128.256 355.088C127.833 350.281 127.282 343.403 126.199 335.194C125.114 326.989 123.785 317.412 121.764 307.248C119.749 297.087 117.231 286.305 113.985 275.701C112.302 270.419 110.409 265.195 108.254 260.161C106.155 255.103 103.515 250.335 101.033 245.839C98.4996 241.311 95.8019 237.035 93.1313 233.102C90.4489 229.164 87.7223 225.574 85.0976 222.349C82.41 219.171 79.8294 216.358 77.3336 214.072C74.8989 211.728 72.5592 209.921 70.6063 208.49C68.628 207.084 66.9483 206.174 65.7911 205.596C64.617 205.043 63.957 204.837 63.957 204.837C63.957 204.837 64.6001 205.092 65.7233 205.725C66.8363 206.375 68.4057 207.43 70.2924 208.911C72.1469 210.431 74.3542 212.338 76.6295 214.785C78.9607 217.174 81.3445 220.097 83.9133 223.297C86.3989 226.57 88.9711 230.203 91.4906 234.183C94.0153 238.17 96.4653 242.459 98.9695 246.952C101.43 251.528 103.92 256.141 105.929 261.14C107.987 266.104 109.799 271.274 111.403 276.512C114.725 286.953 117.35 297.633 119.465 307.717C121.568 317.803 123.393 327.261 124.696 335.413C126.016 343.562 127.097 350.364 127.737 355.144C128.381 359.925 128.755 362.655 128.755 362.655Z" fill="white"/>
<path d="M123.683 329.429C123.683 329.429 123.447 328.689 122.855 327.468C122.256 326.251 121.326 324.539 119.988 322.629C119.319 321.674 118.569 320.657 117.726 319.621C116.92 318.552 115.963 317.517 114.994 316.426C113.968 315.394 112.953 314.274 111.818 313.248C110.675 312.233 109.56 311.144 108.343 310.179C107.132 309.208 105.943 308.209 104.694 307.328C103.46 306.429 102.254 305.53 101.022 304.76C99.8074 303.964 98.6164 303.217 97.4762 302.534C96.3174 301.882 95.2213 301.266 94.2101 300.698C93.2125 300.107 92.2606 299.634 91.4004 299.245C90.5504 298.842 89.8089 298.49 89.1981 298.2C87.968 297.642 87.2656 297.323 87.2656 297.323C87.2656 297.323 87.907 297.754 89.0285 298.507C90.1517 299.254 91.7924 300.257 93.6858 301.566C94.6394 302.208 95.6726 302.903 96.7653 303.638C97.8308 304.408 98.954 305.221 100.116 306.063C101.307 306.86 102.429 307.832 103.644 308.716C104.862 309.598 106.014 310.598 107.193 311.563C108.403 312.495 109.506 313.545 110.642 314.526C111.759 315.527 112.821 316.55 113.861 317.529C114.833 318.57 115.872 319.493 116.737 320.476C117.643 321.424 118.456 322.359 119.185 323.241C120.627 325.014 121.835 326.509 122.555 327.643C123.303 328.754 123.683 329.429 123.683 329.429Z" fill="white"/>
<path d="M117.163 297.426C117.163 297.426 116.779 296.911 116.038 296.066C115.281 295.238 114.207 294.04 112.812 292.71C111.414 291.386 109.743 289.876 107.853 288.387C105.987 286.863 103.891 285.377 101.781 283.913C99.6344 282.503 97.4559 281.144 95.3605 279.961C93.2533 278.8 91.2665 277.755 89.5155 276.958C87.7917 276.108 86.2782 275.553 85.2518 275.11C84.2134 274.688 83.6094 274.471 83.6094 274.471C83.6094 274.471 84.1421 274.832 85.0923 275.424C86.0492 276.004 87.4048 276.848 89.0218 277.867C90.6387 278.878 92.5237 280.058 94.5444 281.322C96.538 282.623 98.6775 283.984 100.776 285.407C104.987 288.23 109.097 291.2 112.144 293.495C113.654 294.657 114.938 295.606 115.797 296.32C116.666 297.024 117.163 297.426 117.163 297.426Z" fill="white"/>
<path d="M110.32 273.084C110.32 273.084 109.901 272.684 109.126 272.032C108.34 271.398 107.241 270.453 105.848 269.424C103.082 267.336 99.2343 264.77 95.2115 262.495C93.1959 261.369 91.1565 260.279 89.1951 259.356C87.2456 258.411 85.3861 257.61 83.7692 256.984C82.1624 256.335 80.7796 255.898 79.821 255.58C78.859 255.266 78.3008 255.111 78.3008 255.111C78.3008 255.111 78.7979 255.413 79.6819 255.9C80.5777 256.362 81.8197 257.093 83.3297 257.921C86.3447 259.585 90.3488 261.798 94.3241 264.063C98.3096 266.326 102.295 268.59 105.283 270.288C108.306 271.964 110.32 273.084 110.32 273.084Z" fill="white"/>
<path d="M101.219 249.623C101.219 249.623 100.85 249.278 100.154 248.739C99.4515 248.211 98.4555 247.437 97.1949 246.613C95.9445 245.771 94.4395 244.867 92.7988 243.946C91.1581 243.026 89.3682 242.125 87.5612 241.258C83.932 239.56 80.1993 238.097 77.3354 237.183C75.9152 236.694 74.6886 236.402 73.8504 236.148C73.0038 235.914 72.5117 235.805 72.5117 235.805C72.5117 235.805 72.9461 236.063 73.7214 236.475C74.4985 236.877 75.6081 237.452 76.9417 238.141C78.2787 238.813 79.8447 239.578 81.5261 240.383C83.2075 241.183 85.0009 242.037 86.7943 242.89C94.0085 246.255 101.219 249.623 101.219 249.623Z" fill="white"/>
<path d="M88.3187 229.392C88.3187 229.392 87.221 228.297 85.3563 226.96C83.5053 225.603 80.8907 224.006 78.1404 222.671C76.7593 222.018 75.3612 221.395 74.0158 220.901C72.6754 220.394 71.4012 219.977 70.2882 219.69C69.1837 219.378 68.242 219.189 67.5786 219.076C66.9152 218.969 66.5352 218.908 66.5352 218.908C66.5352 218.908 66.8728 219.093 67.4632 219.415C68.0571 219.715 68.9037 220.143 69.9217 220.657C71.9492 221.648 74.6537 222.97 77.3565 224.29C80.0627 225.589 82.774 226.894 84.8371 227.846C86.8935 228.803 88.3187 229.392 88.3187 229.392Z" fill="white"/>
<path d="M126.316 336.08C126.316 336.08 127.139 335.386 128.2 334.239C129.27 333.097 130.584 331.504 131.815 329.853C133.034 328.194 134.172 326.477 134.961 325.128C135.758 323.788 136.201 322.807 136.201 322.807C136.201 322.807 135.297 323.397 134.155 324.482C133 325.554 131.608 327.113 130.368 328.784C129.135 330.461 128.055 332.244 127.355 333.652C126.64 335.05 126.316 336.08 126.316 336.08Z" fill="white"/>
<path d="M122.816 317.479C122.816 317.479 123.682 316.539 124.798 315.04C125.926 313.545 127.316 311.495 128.638 309.41C129.946 307.316 131.191 305.192 132.112 303.584C133.047 301.96 133.67 300.877 133.67 300.877C133.67 300.877 132.582 301.571 131.284 302.963C129.97 304.334 128.448 306.339 127.114 308.451C125.787 310.571 124.645 312.793 123.907 314.524C123.156 316.248 122.816 317.479 122.816 317.479Z" fill="white"/>
<path d="M117.832 289.594C117.832 289.594 118.534 288.892 119.407 287.753C120.289 286.622 121.356 285.062 122.347 283.469C123.328 281.868 124.242 280.237 124.911 278.985C125.582 277.743 126.015 276.851 126.015 276.851C126.015 276.851 125.135 277.332 124.086 278.359C123.026 279.37 121.824 280.894 120.815 282.523C119.812 284.158 118.993 285.894 118.504 287.256C118.002 288.612 117.832 289.594 117.832 289.594Z" fill="white"/>
<path d="M110.82 267.546C110.82 267.546 111.46 266.912 112.23 265.882C113.014 264.859 113.942 263.446 114.802 262.007C115.649 260.56 116.433 259.09 117.02 257.975C117.6 256.866 118.046 256.09 118.046 256.09C118.046 256.09 117.183 256.42 116.207 257.338C115.215 258.228 114.134 259.611 113.253 261.092C112.38 262.58 111.703 264.167 111.316 265.41C110.917 266.649 110.82 267.546 110.82 267.546Z" fill="white"/>
<path d="M99.3243 243.291C99.3243 243.291 99.8147 242.76 100.347 241.908C100.894 241.06 101.493 239.894 101.993 238.694C102.482 237.49 102.881 236.253 103.11 235.279C103.352 234.315 103.42 233.594 103.42 233.594C103.42 233.594 102.826 234.013 102.185 234.817C101.532 235.612 100.841 236.775 100.329 238.009C99.8265 239.246 99.4991 240.547 99.3786 241.56C99.2446 242.568 99.3243 243.291 99.3243 243.291Z" fill="white"/>
<path d="M126.286 345.379C126.286 345.379 125.841 344.909 125.01 344.142C124.168 343.391 122.989 342.283 121.484 341.068C118.498 338.603 114.311 335.567 109.887 332.895C107.671 331.568 105.422 330.294 103.248 329.222C102.178 328.655 101.112 328.168 100.098 327.715C99.0897 327.249 98.1294 326.826 97.2234 326.48C95.4351 325.735 93.8945 325.238 92.8222 324.883C91.7499 324.53 91.1289 324.354 91.1289 324.354C91.1289 324.354 91.6905 324.68 92.6864 325.206C93.696 325.701 95.094 326.495 96.7822 327.415C100.154 329.257 104.595 331.777 108.958 334.434C111.158 335.73 113.308 337.111 115.349 338.37C117.373 339.661 119.261 340.866 120.88 341.899C124.122 343.988 126.286 345.379 126.286 345.379Z" fill="white"/>
<path d="M154.516 386.544C154.516 386.544 141.022 337.441 98.5938 296.563C59.7078 259.097 18.1953 248.391 18.1953 248.391C18.1953 248.391 37.1624 269.659 62.0763 326.806C76.4387 359.749 92.0328 389.977 113.762 405.035C141.837 424.487 159.944 409.566 154.516 386.544Z" fill="#62C1C5"/>
<path d="M141.455 402.9C141.455 402.9 140.576 400.285 138.864 395.772C137.117 391.274 134.668 384.822 131.338 377.243C128.006 369.667 124.057 360.841 119.28 351.645C114.509 342.451 109.083 332.799 103.005 323.523C99.9155 318.922 96.6392 314.432 93.1645 310.201C89.7389 305.93 85.8705 302.087 82.2345 298.465C78.5391 294.822 74.7556 291.469 71.0925 288.439C67.4192 285.406 63.7968 282.72 60.3763 280.356C56.91 278.056 53.6456 276.072 50.6119 274.576C47.619 273.005 44.8687 271.92 42.5935 271.094C40.3013 270.297 38.4332 269.891 37.1607 269.659C35.8797 269.455 35.1875 269.441 35.1875 269.441C35.1875 269.441 35.8763 269.506 37.1302 269.801C38.3806 270.115 40.1808 270.69 42.4068 271.584C44.6125 272.526 47.2627 273.743 50.1318 275.456C53.0382 277.1 56.1431 279.241 59.5025 281.598C62.8025 284.048 66.2875 286.819 69.8166 289.937C73.3541 293.061 76.9036 296.497 80.5616 300.112C84.2009 303.819 87.8793 307.556 91.2031 311.794C94.5659 315.986 97.7472 320.445 100.749 325.026C106.853 334.125 112.354 343.651 117.2 352.741C122.033 361.841 126.424 370.412 129.952 377.877C133.493 385.334 136.43 391.565 138.377 395.974C140.335 400.382 141.455 402.9 141.455 402.9Z" fill="white"/>
<path d="M127.31 372.409C127.31 372.409 126.878 371.764 125.967 370.758C125.052 369.757 123.681 368.373 121.862 366.912C120.955 366.181 119.95 365.415 118.851 364.654C117.778 363.851 116.57 363.125 115.335 362.348C114.061 361.644 112.775 360.851 111.399 360.181C110.018 359.525 108.644 358.792 107.206 358.205C105.773 357.611 104.351 356.983 102.905 356.486C101.47 355.967 100.062 355.439 98.662 355.044C97.2724 354.618 95.9219 354.234 94.6358 353.895C93.3413 353.593 92.1163 353.308 90.9863 353.045C89.8631 352.757 88.8179 352.567 87.8831 352.434C86.9533 352.283 86.144 352.153 85.4755 352.044C84.1385 351.851 83.375 351.74 83.375 351.74C83.375 351.74 84.1114 351.974 85.3991 352.385C86.6869 352.789 88.5414 353.293 90.725 354.024C91.8193 354.374 93.0053 354.754 94.2608 355.154C95.4994 355.597 96.8042 356.063 98.1547 356.547C99.5222 356.98 100.869 357.599 102.283 358.111C103.698 358.619 105.084 359.257 106.485 359.855C107.907 360.412 109.259 361.113 110.624 361.739C111.976 362.387 113.281 363.074 114.553 363.724C115.778 364.453 117.032 365.049 118.136 365.751C119.27 366.41 120.312 367.08 121.258 367.725C123.137 369.024 124.714 370.122 125.722 371.009C126.757 371.868 127.31 372.409 127.31 372.409Z" fill="white"/>
<path d="M112.109 343.5C112.109 343.5 111.596 343.111 110.648 342.507C109.691 341.924 108.323 341.074 106.613 340.185C104.901 339.304 102.875 338.32 100.644 337.416C98.4266 336.474 95.9987 335.631 93.5657 334.813C91.1106 334.058 88.6402 333.361 86.2971 332.809C83.9489 332.283 81.75 331.832 79.8464 331.557C77.9529 331.223 76.3462 331.111 75.2365 330.973C74.1218 330.858 73.4805 330.817 73.4805 330.817C73.4805 330.817 74.093 331.016 75.1721 331.318C76.2528 331.608 77.79 332.039 79.6258 332.568C81.4599 333.087 83.6011 333.695 85.8933 334.345C88.1703 335.037 90.605 335.748 93.0176 336.528C97.8498 338.064 102.624 339.767 106.191 341.123C107.965 341.817 109.463 342.37 110.487 342.816C111.52 343.252 112.109 343.5 112.109 343.5Z" fill="white"/>
<path d="M98.7429 322.035C98.7429 322.035 98.2288 321.767 97.3024 321.36C96.371 320.969 95.0526 320.369 93.4272 319.77C90.1883 318.536 85.7769 317.147 81.2808 316.083C79.031 315.564 76.7676 315.085 74.6264 314.748C72.4903 314.385 70.4815 314.134 68.7542 313.983C67.0287 313.806 65.5798 313.776 64.5702 313.735C63.559 313.703 62.9805 313.709 62.9805 313.709C62.9805 313.709 63.5421 313.862 64.5261 314.083C65.5153 314.276 66.9134 314.631 68.5931 315.004C71.9525 315.761 76.4147 316.769 80.8651 317.834C85.3239 318.896 89.7828 319.957 93.1269 320.754C96.4948 321.523 98.7429 322.035 98.7429 322.035Z" fill="white"/>
<path d="M83.4597 302.043C83.4597 302.043 83.0084 301.816 82.1906 301.492C81.3694 301.181 80.197 300.716 78.7566 300.275C77.3212 299.817 75.6228 299.368 73.7921 298.942C71.9614 298.516 69.9898 298.151 68.0132 297.822C64.0549 297.204 60.0609 296.841 57.0561 296.761C55.5563 296.687 54.2956 296.751 53.4202 296.739C52.543 296.751 52.0391 296.783 52.0391 296.783C52.0391 296.783 52.5277 296.911 53.3879 297.089C54.2464 297.259 55.4731 297.499 56.9442 297.79C58.4169 298.061 60.1322 298.36 61.9714 298.663C63.8089 298.962 65.7702 299.281 67.7299 299.6C75.594 300.822 83.4597 302.043 83.4597 302.043Z" fill="white"/>
<path d="M65.4288 286.217C65.4288 286.217 64.0697 285.473 61.9048 284.708C59.7483 283.921 56.791 283.119 53.7777 282.604C52.2694 282.362 50.7542 282.155 49.3222 282.056C47.8936 281.944 46.5533 281.899 45.4046 281.934C44.2577 281.943 43.2991 282.024 42.6306 282.101C41.9638 282.184 41.582 282.231 41.582 282.231C41.582 282.231 41.957 282.314 42.6136 282.459C43.2668 282.581 44.2 282.755 45.3215 282.966C47.5458 283.351 50.5099 283.865 53.4757 284.379C56.4381 284.871 59.4056 285.368 61.652 285.708C63.8967 286.05 65.4288 286.217 65.4288 286.217Z" fill="white"/>
<path d="M131.691 378.062C131.691 378.062 132.289 377.166 132.986 375.768C133.697 374.374 134.513 372.477 135.234 370.548C135.942 368.614 136.554 366.647 136.936 365.132C137.328 363.624 137.479 362.556 137.479 362.556C137.479 362.556 136.775 363.376 135.981 364.735C135.171 366.087 134.27 367.974 133.544 369.923C132.828 371.876 132.289 373.892 132.009 375.439C131.715 376.983 131.691 378.062 131.691 378.062Z" fill="white"/>
<path d="M123.141 361.177C123.141 361.177 123.709 360.034 124.363 358.281C125.029 356.532 125.791 354.173 126.478 351.803C127.15 349.428 127.753 347.041 128.189 345.237C128.633 343.417 128.928 342.203 128.928 342.203C128.928 342.203 128.077 343.174 127.22 344.872C126.339 346.555 125.438 348.907 124.746 351.308C124.064 353.712 123.587 356.165 123.362 358.033C123.122 359.898 123.141 361.177 123.141 361.177Z" fill="white"/>
<path d="M110.567 335.792C110.567 335.792 111.046 334.919 111.565 333.584C112.098 332.251 112.687 330.457 113.194 328.65C113.688 326.838 114.112 325.016 114.405 323.63C114.704 322.25 114.87 321.271 114.87 321.271C114.87 321.271 114.159 321.979 113.44 323.258C112.704 324.526 111.976 326.322 111.46 328.17C110.954 330.019 110.651 331.916 110.561 333.36C110.455 334.801 110.567 335.792 110.567 335.792Z" fill="white"/>
<path d="M97.686 316.577C97.686 316.577 98.122 315.788 98.5767 314.585C99.045 313.384 99.5405 311.767 99.9646 310.146C100.375 308.521 100.716 306.891 100.967 305.655C101.215 304.427 101.425 303.558 101.425 303.558C101.425 303.558 100.689 304.115 100.007 305.269C99.3029 306.4 98.6514 308.029 98.2188 309.699C97.7946 311.371 97.5876 313.085 97.5638 314.386C97.5282 315.686 97.686 316.577 97.686 316.577Z" fill="white"/>
<path d="M79.8788 296.492C79.8788 296.492 80.2012 295.845 80.476 294.878C80.7645 293.913 81.0139 292.625 81.1598 291.334C81.2938 290.041 81.3312 288.743 81.2786 287.742C81.2429 286.748 81.1055 286.037 81.1055 286.037C81.1055 286.037 80.6525 286.605 80.2606 287.557C79.8551 288.502 79.5157 289.814 79.3681 291.14C79.2324 292.469 79.2799 293.809 79.4462 294.815C79.5989 295.822 79.8788 296.492 79.8788 296.492Z" fill="white"/>
<path d="M134.26 387.001C134.26 387.001 133.702 386.673 132.69 386.169C131.672 385.682 130.232 384.947 128.445 384.201C124.891 382.667 120.021 380.92 115.028 379.589C112.53 378.935 110.014 378.337 107.627 377.915C106.441 377.67 105.282 377.499 104.181 377.348C103.083 377.18 102.043 377.043 101.076 376.965C99.1505 376.748 97.5319 376.7 96.4036 376.659C95.2753 376.62 94.6289 376.624 94.6289 376.624C94.6289 376.624 95.2584 376.78 96.3612 377.007C97.4691 377.201 99.0335 377.574 100.91 377.986C104.663 378.814 109.631 379.995 114.561 381.329C117.037 381.96 119.487 382.686 121.798 383.324C124.102 383.999 126.251 384.629 128.094 385.168C131.794 386.269 134.26 387.001 134.26 387.001Z" fill="white"/>
<path d="M144.209 371.162C144.209 371.162 117.148 338.581 70.9819 322.152C28.6704 307.096 0 308.654 0 308.654C0 308.654 15.209 322.828 53.681 357.587C75.8582 377.625 98.0388 395.184 119.666 399.144C147.61 404.259 156.216 386.744 144.209 371.162Z" fill="#EFA748"/>
<path d="M118.748 369.778C118.748 369.778 118.2 369.439 117.164 368.987C116.129 368.543 114.614 367.963 112.735 367.481C111.797 367.238 110.772 367.002 109.68 366.802C108.592 366.561 107.428 366.425 106.225 366.261C105.019 366.164 103.772 366.005 102.499 365.969C101.229 365.945 99.9358 365.86 98.6446 365.908C97.3535 365.949 96.0606 365.96 94.7966 366.081C93.5309 366.179 92.2821 366.262 91.0876 366.442C89.8898 366.597 88.7344 366.768 87.6434 366.951C86.5592 367.167 85.5327 367.37 84.586 367.557C83.6359 367.723 82.779 367.939 82.024 368.158C81.2673 368.363 80.609 368.541 80.0661 368.689C78.987 369.001 78.3711 369.179 78.3711 369.179C78.3711 369.179 79.009 369.104 80.1254 368.974C81.2385 368.838 82.8181 368.585 84.7234 368.388C85.6736 368.278 86.7017 368.159 87.7893 368.034C88.8786 367.946 90.0289 367.851 91.2183 367.754C92.4026 367.613 93.636 367.622 94.8814 367.523C96.1285 367.421 97.3959 367.431 98.6633 367.404C99.9307 367.34 101.196 367.406 102.445 367.411C103.692 367.44 104.916 367.513 106.103 367.569C107.281 367.701 108.436 367.723 109.513 367.876C110.599 367.986 111.617 368.137 112.556 368.3C114.425 368.641 115.996 368.931 117.064 369.259C118.144 369.557 118.748 369.778 118.748 369.778Z" fill="white"/>
<path d="M97.3193 353.082C97.3193 353.082 96.7984 352.964 95.872 352.831C94.9456 352.718 93.6188 352.541 92.0189 352.455C90.4206 352.375 88.5475 352.324 86.5471 352.404C84.5433 352.45 82.4157 352.643 80.2915 352.858C78.1723 353.128 76.0617 353.447 74.0969 353.832C72.1373 354.238 70.3167 354.652 68.7796 355.095C67.2305 355.49 65.975 355.957 65.0859 356.233C64.2019 356.528 63.7031 356.717 63.7031 356.717C63.7031 356.717 64.2359 356.657 65.1555 356.516C66.0734 356.365 67.3866 356.165 68.9594 355.936C70.5271 355.7 72.3578 355.427 74.3175 355.134C76.2805 354.877 78.3691 354.581 80.4645 354.346C84.6519 353.853 88.8546 353.507 92.0223 353.311C93.6053 353.23 94.9304 353.135 95.8584 353.121C96.7865 353.096 97.3193 353.082 97.3193 353.082Z" fill="white"/>
<path d="M79.8319 341.399C79.8319 341.399 79.3501 341.372 78.5085 341.38C77.6687 341.404 76.4624 341.401 75.027 341.504C72.1494 341.681 68.3302 342.139 64.5585 342.875C62.6752 343.253 60.797 343.667 59.0596 344.144C57.3171 344.601 55.7087 345.099 54.3479 345.578C52.9804 346.036 51.8708 346.509 51.092 346.825C50.3149 347.147 49.8789 347.351 49.8789 347.351C49.8789 347.351 50.3574 347.273 51.1786 347.103C51.993 346.91 53.1755 346.701 54.577 346.408C57.3816 345.829 61.1092 345.062 64.8469 344.344C68.5898 343.62 72.331 342.895 75.139 342.353C77.9537 341.781 79.8319 341.399 79.8319 341.399Z" fill="white"/>
<path d="M61.3942 331.492C61.3942 331.492 60.9751 331.475 60.2439 331.509C59.5143 331.555 58.4675 331.606 57.2238 331.765C55.9784 331.911 54.538 332.152 53.0042 332.458C51.4704 332.763 49.8517 333.163 48.2416 333.591C45.0298 334.48 41.8791 335.573 39.575 336.543C38.4128 337.001 37.4796 337.481 36.8128 337.773C36.1511 338.084 35.7812 338.281 35.7812 338.281C35.7812 338.281 36.1952 338.209 36.9078 338.05C37.6171 337.884 38.6283 337.646 39.8431 337.363C41.0511 337.064 42.4543 336.703 43.9524 336.301C45.4472 335.897 47.0421 335.468 48.6369 335.037C55.0164 333.262 61.3942 331.492 61.3942 331.492Z" fill="white"/>
<path d="M42.3065 325.681C42.3065 325.681 41.0221 325.583 39.1201 325.747C37.2165 325.891 34.7003 326.295 32.2401 326.938C31.0134 327.273 29.7952 327.634 28.6771 328.051C27.5556 328.455 26.5257 328.881 25.6655 329.302C24.7985 329.702 24.1012 330.092 23.621 330.379C23.1443 330.671 22.8711 330.837 22.8711 330.837C22.8711 330.837 23.185 330.771 23.7313 330.656C24.2692 330.525 25.036 330.337 25.9573 330.113C27.7745 329.643 30.1973 329.015 32.6202 328.389C35.0345 327.748 37.4523 327.106 39.2711 326.592C41.0883 326.08 42.3065 325.681 42.3065 325.681Z" fill="white"/>
<path d="M124.009 372.558C124.009 372.558 124.155 371.674 124.203 370.377C124.262 369.077 124.231 367.358 124.116 365.65C123.989 363.941 123.78 362.241 123.549 360.963C123.329 359.686 123.078 358.826 123.078 358.826C123.078 358.826 122.825 359.687 122.689 360.991C122.538 362.292 122.503 364.031 122.623 365.757C122.75 367.482 123.032 369.194 123.351 370.461C123.656 371.734 124.009 372.558 124.009 372.558Z" fill="white"/>
<path d="M111.735 362.696C111.735 362.696 111.774 361.634 111.667 360.083C111.572 358.529 111.342 356.481 111.05 354.448C110.744 352.417 110.383 350.403 110.094 348.886C109.808 347.356 109.616 346.335 109.616 346.335C109.616 346.335 109.304 347.361 109.236 348.942C109.146 350.52 109.268 352.611 109.569 354.667C109.876 356.723 110.356 358.746 110.826 360.237C111.282 361.734 111.735 362.696 111.735 362.696Z" fill="white"/>
<path d="M93.5121 347.77C93.5121 347.77 93.5766 346.946 93.5121 345.756C93.4578 344.564 93.2882 343.003 93.054 341.459C92.808 339.917 92.5043 338.391 92.2498 337.239C92.0038 336.092 91.7934 335.293 91.7934 335.293C91.7934 335.293 91.4982 336.074 91.3896 337.29C91.2657 338.503 91.3302 340.115 91.5728 341.69C91.8239 343.266 92.2447 344.805 92.6706 345.93C93.088 347.058 93.5121 347.77 93.5121 347.77Z" fill="white"/>
<path d="M77.1595 337.627C77.1595 337.627 77.2189 336.881 77.151 335.814C77.0933 334.743 76.9152 333.348 76.681 331.974C76.4333 330.602 76.1347 329.249 75.9023 328.228C75.6681 327.213 75.5307 326.482 75.5307 326.482C75.5307 326.482 75.1625 327.157 75.0421 328.265C74.8962 329.365 74.9606 330.822 75.2049 332.235C75.4577 333.649 75.887 335.018 76.3163 336.012C76.7337 337.008 77.1595 337.627 77.1595 337.627Z" fill="white"/>
<path d="M56.7761 328.515C56.7761 328.515 56.7998 327.914 56.676 327.088C56.564 326.256 56.3112 325.196 55.9787 324.168C55.6359 323.143 55.2202 322.145 54.8385 321.406C54.4703 320.664 54.1225 320.174 54.1225 320.174C54.1225 320.174 53.9749 320.761 54.0037 321.614C54.0207 322.469 54.2141 323.579 54.5568 324.634C54.9081 325.688 55.4052 326.687 55.8769 327.393C56.335 328.102 56.7761 328.515 56.7761 328.515Z" fill="white"/>
<path d="M129.014 378.451C129.014 378.451 128.479 378.395 127.539 378.359C126.601 378.339 125.257 378.278 123.649 378.324C120.43 378.38 116.141 378.726 111.901 379.43C109.784 379.79 107.673 380.2 105.72 380.699C104.738 380.92 103.799 381.188 102.914 381.451C102.025 381.7 101.19 381.953 100.43 382.224C98.896 382.722 97.654 383.239 96.7853 383.595C95.9166 383.953 95.4297 384.177 95.4297 384.177C95.4297 384.177 95.9607 384.079 96.8752 383.874C97.7813 383.641 99.0945 383.387 100.657 383.056C103.784 382.397 107.953 381.588 112.147 380.908C114.239 380.536 116.345 380.248 118.314 379.939C120.291 379.661 122.137 379.401 123.718 379.177C126.894 378.743 129.014 378.451 129.014 378.451Z" fill="white"/>
<path d="M570.131 350.593C570.131 350.593 569.384 299.674 598.721 248.579C625.608 201.749 667.737 197.962 667.737 197.962C667.737 197.962 650.205 205.599 642.227 267.429C637.629 303.069 631.09 336.45 614.426 356.973C592.895 383.49 571.342 374.216 570.131 350.593Z" fill="#EFA748"/>
<path d="M587.234 362.655C587.234 362.655 587.348 359.898 587.733 355.088C588.156 350.281 588.707 343.403 589.79 335.194C590.875 326.989 592.204 317.411 594.225 307.248C596.24 297.087 598.758 286.305 602.004 275.7C603.687 270.419 605.58 265.195 607.735 260.161C609.834 255.103 612.474 250.335 614.956 245.839C617.489 241.311 620.187 237.035 622.858 233.102C625.54 229.164 628.267 225.574 630.891 222.349C633.577 219.171 636.16 216.358 638.655 214.072C641.09 211.727 643.43 209.92 645.384 208.49C647.363 207.084 649.042 206.174 650.2 205.596C651.374 205.042 652.034 204.837 652.034 204.837C652.034 204.837 651.391 205.092 650.267 205.725C649.154 206.374 647.585 207.43 645.698 208.911C643.844 210.431 641.636 212.338 639.361 214.785C637.03 217.174 634.646 220.097 632.077 223.297C629.592 226.57 627.02 230.202 624.5 234.183C621.975 238.17 619.525 242.459 617.021 246.952C614.563 251.528 612.07 256.141 610.061 261.14C608.003 266.104 606.191 271.274 604.588 276.511C601.266 286.953 598.641 297.633 596.525 307.717C594.423 317.803 592.598 327.261 591.295 335.413C589.975 343.562 588.894 350.364 588.254 355.144C587.606 359.925 587.234 362.655 587.234 362.655Z" fill="white"/>
<path d="M592.309 329.429C592.309 329.429 592.544 328.689 593.137 327.467C593.736 326.251 594.665 324.539 596.004 322.628C596.672 321.673 597.422 320.657 598.266 319.62C599.072 318.551 600.028 317.516 600.997 316.425C602.024 315.394 603.038 314.274 604.173 313.248C605.315 312.233 606.432 311.144 607.648 310.178C608.86 309.208 610.049 308.208 611.298 307.328C612.531 306.429 613.738 305.529 614.969 304.759C616.184 303.963 617.375 303.217 618.515 302.533C619.674 301.882 620.77 301.266 621.781 300.697C622.779 300.107 623.731 299.633 624.591 299.245C625.441 298.841 626.183 298.49 626.793 298.2C628.023 297.642 628.726 297.323 628.726 297.323C628.726 297.323 628.085 297.754 626.963 298.507C625.84 299.253 624.199 300.256 622.306 301.566C621.352 302.207 620.319 302.903 619.226 303.638C618.161 304.408 617.038 305.221 615.875 306.062C614.684 306.86 613.563 307.832 612.348 308.716C611.13 309.598 609.978 310.597 608.799 311.563C607.589 312.494 606.486 313.544 605.349 314.525C604.233 315.526 603.171 316.549 602.131 317.528C601.158 318.57 600.12 319.493 599.255 320.475C598.349 321.424 597.536 322.359 596.806 323.241C595.364 325.014 594.156 326.509 593.437 327.642C592.689 328.753 592.309 329.429 592.309 329.429Z" fill="white"/>
<path d="M598.836 297.426C598.836 297.426 599.219 296.91 599.961 296.066C600.718 295.238 601.792 294.04 603.186 292.71C604.584 291.386 606.255 289.876 608.146 288.386C610.012 286.863 612.107 285.377 614.218 283.912C616.364 282.502 618.543 281.143 620.638 279.961C622.745 278.8 624.732 277.755 626.483 276.958C628.207 276.108 629.719 275.553 630.747 275.11C631.785 274.687 632.389 274.47 632.389 274.47C632.389 274.47 631.857 274.832 630.905 275.424C629.948 276.004 628.592 276.847 626.977 277.867C625.36 278.878 623.475 280.057 621.454 281.321C619.461 282.623 617.321 283.984 615.222 285.407C611.011 288.23 606.902 291.199 603.855 293.495C602.345 294.657 601.06 295.606 600.202 296.32C599.333 297.024 598.836 297.426 598.836 297.426Z" fill="white"/>
<path d="M605.684 273.084C605.684 273.084 606.103 272.683 606.878 272.032C607.664 271.397 608.763 270.452 610.156 269.424C612.922 267.336 616.77 264.77 620.792 262.495C622.808 261.368 624.847 260.279 626.809 259.356C628.758 258.411 630.618 257.61 632.235 256.984C633.842 256.334 635.224 255.898 636.183 255.579C637.145 255.265 637.703 255.111 637.703 255.111C637.703 255.111 637.206 255.413 636.322 255.9C635.426 256.361 634.184 257.093 632.674 257.921C629.659 259.585 625.655 261.798 621.68 264.063C617.694 266.326 613.709 268.589 610.721 270.288C607.698 271.964 605.684 273.084 605.684 273.084Z" fill="white"/>
<path d="M614.777 249.622C614.777 249.622 615.147 249.278 615.843 248.738C616.545 248.211 617.541 247.437 618.802 246.613C620.052 245.771 621.557 244.867 623.198 243.945C624.839 243.026 626.629 242.125 628.436 241.258C632.065 239.559 635.797 238.097 638.661 237.182C640.081 236.694 641.308 236.402 642.146 236.147C642.993 235.913 643.485 235.805 643.485 235.805C643.485 235.805 643.051 236.063 642.275 236.475C641.498 236.877 640.389 237.452 639.055 238.141C637.718 238.813 636.152 239.578 634.471 240.382C632.789 241.183 630.996 242.037 629.202 242.89C621.988 246.255 614.777 249.622 614.777 249.622Z" fill="white"/>
<path d="M627.684 229.391C627.684 229.391 628.781 228.297 630.646 226.96C632.497 225.603 635.112 224.006 637.862 222.671C639.243 222.018 640.641 221.395 641.987 220.901C643.327 220.394 644.601 219.976 645.714 219.69C646.819 219.378 647.76 219.189 648.424 219.076C649.087 218.969 649.467 218.908 649.467 218.908C649.467 218.908 649.13 219.092 648.539 219.415C647.945 219.715 647.099 220.143 646.081 220.657C644.053 221.648 641.349 222.969 638.646 224.289C635.94 225.589 633.228 226.894 631.165 227.846C629.109 228.803 627.684 229.391 627.684 229.391Z" fill="white"/>
<path d="M589.682 336.08C589.682 336.08 588.857 335.386 587.798 334.239C586.728 333.097 585.415 331.504 584.183 329.853C582.965 328.194 581.826 326.477 581.037 325.128C580.24 323.787 579.797 322.807 579.797 322.807C579.797 322.807 580.701 323.397 581.843 324.481C582.998 325.554 584.39 327.113 585.63 328.784C586.863 330.46 587.943 332.244 588.643 333.652C589.358 335.05 589.682 336.08 589.682 336.08Z" fill="white"/>
<path d="M593.174 317.479C593.174 317.479 592.309 316.539 591.192 315.039C590.064 313.544 588.674 311.495 587.353 309.41C586.045 307.316 584.799 305.192 583.878 303.583C582.943 301.96 582.32 300.877 582.32 300.877C582.32 300.877 583.408 301.571 584.706 302.962C586.021 304.333 587.543 306.339 588.876 308.451C590.203 310.57 591.345 312.793 592.083 314.523C592.835 316.247 593.174 317.479 593.174 317.479Z" fill="white"/>
<path d="M598.167 289.594C598.167 289.594 597.465 288.892 596.593 287.753C595.711 286.621 594.643 285.062 593.653 283.469C592.672 281.867 591.757 280.237 591.089 278.985C590.417 277.743 589.984 276.85 589.984 276.85C589.984 276.85 590.865 277.332 591.914 278.359C592.974 279.37 594.175 280.894 595.185 282.522C596.187 284.158 597.007 285.894 597.496 287.256C597.998 288.612 598.167 289.594 598.167 289.594Z" fill="white"/>
<path d="M605.175 267.546C605.175 267.546 604.537 266.911 603.765 265.882C602.982 264.858 602.053 263.445 601.193 262.006C600.347 260.559 599.563 259.09 598.976 257.975C598.395 256.865 597.949 256.09 597.949 256.09C597.949 256.09 598.813 256.419 599.788 257.337C600.781 258.228 601.862 259.611 602.742 261.092C603.616 262.58 604.295 264.166 604.68 265.41C605.079 266.648 605.175 267.546 605.175 267.546Z" fill="white"/>
<path d="M616.674 243.29C616.674 243.29 616.184 242.759 615.651 241.908C615.104 241.059 614.505 239.894 614.005 238.694C613.516 237.49 613.118 236.253 612.889 235.279C612.646 234.315 612.578 233.594 612.578 233.594C612.578 233.594 613.172 234.013 613.813 234.817C614.467 235.611 615.157 236.775 615.669 238.009C616.172 239.246 616.499 240.547 616.62 241.56C616.754 242.568 616.674 243.29 616.674 243.29Z" fill="white"/>
<path d="M589.711 345.379C589.711 345.379 590.155 344.909 590.985 344.142C591.827 343.39 593.006 342.282 594.511 341.068C597.497 338.602 601.684 335.567 606.108 332.895C608.323 331.568 610.573 330.294 612.747 329.222C613.817 328.655 614.883 328.168 615.897 327.715C616.905 327.248 617.866 326.826 618.772 326.48C620.56 325.735 622.1 325.238 623.173 324.883C624.247 324.53 624.866 324.354 624.866 324.354C624.866 324.354 624.304 324.68 623.308 325.205C622.299 325.701 620.901 326.495 619.213 327.415C615.841 329.257 611.399 331.777 607.037 334.434C604.837 335.73 602.687 337.111 600.646 338.37C598.622 339.661 596.734 340.866 595.115 341.899C591.873 343.988 589.711 345.379 589.711 345.379Z" fill="white"/>
<path d="M561.488 386.544C561.488 386.544 574.982 337.441 617.41 296.563C656.298 259.097 697.809 267.217 697.809 267.217C697.809 267.217 678.842 269.659 653.928 326.806C639.565 359.749 623.971 389.977 602.242 405.035C574.167 424.487 556.06 409.566 561.488 386.544Z" fill="#0E4F77"/>
<path d="M574.551 402.9C574.551 402.9 575.43 400.285 577.142 395.772C578.887 391.274 581.337 384.822 584.668 377.243C588 369.667 591.948 360.841 596.726 351.645C601.497 342.451 606.923 332.799 613.001 323.523C616.09 318.921 619.368 314.432 622.841 310.201C626.267 305.93 630.134 302.087 633.771 298.465C637.467 294.822 641.25 291.469 644.913 288.439C648.587 285.405 652.209 282.72 655.63 280.356C659.096 278.055 662.36 276.072 665.396 274.576C668.389 273.004 671.139 271.92 673.414 271.094C675.706 270.297 677.574 269.891 678.847 269.659C680.128 269.455 680.818 269.441 680.818 269.441C680.818 269.441 680.13 269.506 678.876 269.801C677.625 270.115 675.825 270.69 673.599 271.584C671.393 272.526 668.743 273.743 665.874 275.456C662.968 277.1 659.863 279.241 656.503 281.598C653.203 284.048 649.718 286.819 646.189 289.937C642.652 293.061 639.102 296.497 635.444 300.112C631.805 303.819 628.127 307.556 624.803 311.794C621.44 315.986 618.259 320.445 615.257 325.026C609.153 334.125 603.652 343.65 598.806 352.741C593.973 361.841 589.582 370.412 586.054 377.877C582.513 385.334 579.576 391.565 577.629 395.974C575.669 400.382 574.551 402.9 574.551 402.9Z" fill="white"/>
<path d="M588.691 372.409C588.691 372.409 589.124 371.765 590.035 370.758C590.95 369.757 592.321 368.373 594.139 366.912C595.049 366.181 596.052 365.416 597.151 364.654C598.223 363.851 599.431 363.125 600.666 362.348C601.941 361.644 603.227 360.852 604.603 360.181C605.984 359.525 607.358 358.792 608.795 358.205C610.229 357.611 611.651 356.983 613.096 356.486C614.532 355.967 615.94 355.439 617.34 355.044C618.729 354.618 620.08 354.235 621.366 353.895C622.66 353.593 623.885 353.308 625.015 353.045C626.137 352.757 627.184 352.567 628.119 352.434C629.048 352.283 629.858 352.153 630.526 352.044C631.863 351.851 632.627 351.74 632.627 351.74C632.627 351.74 631.89 351.975 630.603 352.385C629.315 352.789 627.46 353.293 625.277 354.024C624.182 354.374 622.996 354.754 621.741 355.154C620.502 355.597 619.198 356.064 617.847 356.547C616.479 356.98 615.132 357.599 613.719 358.111C612.304 358.619 610.918 359.257 609.516 359.856C608.095 360.412 606.742 361.113 605.378 361.739C604.026 362.387 602.721 363.074 601.449 363.724C600.225 364.454 598.97 365.049 597.865 365.752C596.73 366.41 595.69 367.08 594.743 367.725C592.865 369.024 591.287 370.122 590.279 371.01C589.245 371.868 588.691 372.409 588.691 372.409Z" fill="white"/>
<path d="M603.887 343.5C603.887 343.5 604.399 343.111 605.348 342.507C606.304 341.923 607.672 341.073 609.382 340.184C611.094 339.304 613.12 338.32 615.351 337.415C617.569 336.474 619.997 335.63 622.43 334.813C624.885 334.058 627.355 333.36 629.698 332.809C632.046 332.283 634.245 331.832 636.149 331.557C638.042 331.222 639.649 331.11 640.759 330.973C641.873 330.858 642.515 330.817 642.515 330.817C642.515 330.817 641.902 331.015 640.823 331.317C639.742 331.608 638.205 332.039 636.369 332.568C634.535 333.087 632.394 333.694 630.102 334.344C627.825 335.037 625.39 335.747 622.978 336.528C618.146 338.063 613.371 339.767 609.805 341.123C608.03 341.816 606.532 342.37 605.509 342.816C604.475 343.252 603.887 343.5 603.887 343.5Z" fill="white"/>
<path d="M617.254 322.035C617.254 322.035 617.768 321.767 618.694 321.36C619.626 320.97 620.946 320.369 622.57 319.77C625.809 318.537 630.22 317.147 634.716 316.083C636.968 315.564 639.229 315.086 641.369 314.748C643.505 314.385 645.514 314.134 647.241 313.983C648.966 313.806 650.415 313.776 651.425 313.735C652.436 313.703 653.015 313.71 653.015 313.71C653.015 313.71 652.453 313.862 651.469 314.083C650.48 314.276 649.082 314.631 647.402 315.004C644.043 315.761 639.58 316.769 635.13 317.834C630.671 318.896 626.212 319.957 622.868 320.754C619.502 321.523 617.254 322.035 617.254 322.035Z" fill="white"/>
<path d="M632.539 302.043C632.539 302.043 632.99 301.816 633.808 301.492C634.629 301.181 635.802 300.717 637.242 300.275C638.678 299.817 640.376 299.368 642.207 298.942C644.037 298.516 646.011 298.151 647.986 297.822C651.944 297.204 655.938 296.841 658.943 296.762C660.442 296.687 661.703 296.751 662.579 296.74C663.456 296.751 663.96 296.784 663.96 296.784C663.96 296.784 663.471 296.911 662.611 297.089C661.752 297.259 660.526 297.5 659.055 297.79C657.582 298.061 655.867 298.36 654.027 298.664C652.19 298.962 650.229 299.281 648.269 299.6C640.405 300.822 632.539 302.043 632.539 302.043Z" fill="white"/>
<path d="M650.57 286.217C650.57 286.217 651.929 285.474 654.094 284.708C656.251 283.921 659.206 283.119 662.22 282.605C663.728 282.362 665.243 282.155 666.675 282.057C668.104 281.945 669.444 281.899 670.593 281.934C671.741 281.943 672.698 282.024 673.365 282.101C674.032 282.184 674.414 282.231 674.414 282.231C674.414 282.231 674.039 282.314 673.382 282.459C672.729 282.581 671.796 282.756 670.674 282.966C668.45 283.351 665.486 283.865 662.52 284.379C659.558 284.871 656.59 285.368 654.344 285.708C652.102 286.051 650.57 286.217 650.57 286.217Z" fill="white"/>
<path d="M584.311 378.063C584.311 378.063 583.714 377.167 583.016 375.769C582.305 374.374 581.489 372.477 580.768 370.548C580.061 368.614 579.448 366.647 579.066 365.132C578.674 363.624 578.523 362.557 578.523 362.557C578.523 362.557 579.228 363.376 580.022 364.735C580.831 366.087 581.732 367.974 582.458 369.924C583.174 371.876 583.712 373.892 583.994 375.439C584.287 376.983 584.311 378.063 584.311 378.063Z" fill="white"/>
<path d="M592.862 361.178C592.862 361.178 592.293 360.034 591.64 358.281C590.973 356.532 590.211 354.174 589.524 351.803C588.852 349.428 588.25 347.041 587.814 345.237C587.369 343.417 587.074 342.204 587.074 342.204C587.074 342.204 587.926 343.174 588.783 344.872C589.663 346.556 590.564 348.907 591.257 351.308C591.939 353.712 592.415 356.166 592.641 358.034C592.88 359.898 592.862 361.178 592.862 361.178Z" fill="white"/>
<path d="M605.43 335.792C605.43 335.792 604.952 334.92 604.432 333.584C603.9 332.251 603.311 330.457 602.804 328.65C602.31 326.838 601.886 325.016 601.594 323.63C601.295 322.251 601.129 321.272 601.129 321.272C601.129 321.272 601.84 321.979 602.559 323.258C603.296 324.526 604.023 326.323 604.539 328.17C605.045 330.02 605.349 331.916 605.437 333.36C605.542 334.801 605.43 335.792 605.43 335.792Z" fill="white"/>
<path d="M618.318 316.577C618.318 316.577 617.882 315.788 617.427 314.585C616.959 313.384 616.463 311.767 616.039 310.147C615.628 308.521 615.287 306.891 615.036 305.656C614.789 304.427 614.578 303.558 614.578 303.558C614.578 303.558 615.315 304.115 615.997 305.269C616.701 306.4 617.352 308.029 617.785 309.699C618.209 311.372 618.416 313.085 618.44 314.387C618.475 315.686 618.318 316.577 618.318 316.577Z" fill="white"/>
<path d="M636.126 296.492C636.126 296.492 635.803 295.846 635.529 294.878C635.24 293.913 634.991 292.625 634.845 291.334C634.711 290.041 634.673 288.743 634.726 287.742C634.762 286.748 634.899 286.037 634.899 286.037C634.899 286.037 635.352 286.605 635.744 287.557C636.15 288.502 636.489 289.814 636.636 291.141C636.772 292.469 636.725 293.81 636.558 294.816C636.406 295.822 636.126 296.492 636.126 296.492Z" fill="white"/>
<path d="M581.746 387.001C581.746 387.001 582.304 386.673 583.316 386.169C584.332 385.682 585.774 384.948 587.559 384.201C591.113 382.667 595.983 380.92 600.976 379.59C603.474 378.935 605.99 378.337 608.377 377.915C609.563 377.671 610.724 377.499 611.823 377.348C612.921 377.18 613.961 377.043 614.928 376.965C616.854 376.748 618.472 376.7 619.601 376.659C620.729 376.62 621.375 376.624 621.375 376.624C621.375 376.624 620.746 376.78 619.643 377.007C618.535 377.201 616.971 377.574 615.094 377.986C611.341 378.814 606.375 379.995 601.443 381.329C598.967 381.96 596.517 382.686 594.206 383.324C591.902 383.999 589.753 384.629 587.91 385.168C584.211 386.269 581.746 387.001 581.746 387.001Z" fill="white"/>
<path d="M571.79 371.162C571.79 371.162 598.85 338.58 645.014 322.152C687.326 307.095 715.998 327.481 715.998 327.481C715.998 327.481 700.789 322.827 662.317 357.588C640.14 377.626 617.959 395.185 596.33 399.145C568.388 404.259 559.782 386.744 571.79 371.162Z" fill="#62C1C5"/>
<path d="M576.074 388.033C576.074 388.033 577.637 386.354 580.482 383.522C583.348 380.712 587.415 376.664 592.537 372.063C597.659 367.465 603.677 362.13 610.45 356.799C617.218 351.468 624.64 346.014 632.424 341.07C636.343 338.642 640.364 336.365 644.448 334.347C648.508 332.286 652.757 330.701 656.754 329.201C660.803 327.708 664.82 326.465 668.634 325.425C672.459 324.386 676.124 323.592 679.525 322.973C682.941 322.418 686.093 322.035 688.906 321.941C691.713 321.777 694.169 321.899 696.176 322.052C698.187 322.233 699.741 322.566 700.785 322.825C701.825 323.11 702.354 323.338 702.354 323.338C702.354 323.338 701.809 323.151 700.759 322.944C699.704 322.752 698.143 322.571 696.149 322.486C694.156 322.444 691.73 322.455 688.967 322.771C686.202 323.02 683.116 323.579 679.761 324.211C676.42 324.936 672.83 325.84 669.087 326.994C665.336 328.149 661.469 329.536 657.457 331.02C653.429 332.583 649.359 334.151 645.388 336.222C641.403 338.246 637.463 340.533 633.619 342.977C625.873 347.78 618.44 353.111 611.652 358.338C604.87 363.576 598.603 368.566 593.37 373.013C588.129 377.45 583.769 381.164 580.781 383.838C577.786 386.508 576.074 388.033 576.074 388.033Z" fill="white"/>
<path d="M597.25 369.777C597.25 369.777 597.798 369.438 598.835 368.986C599.871 368.542 601.385 367.962 603.263 367.48C604.201 367.237 605.226 367.001 606.319 366.801C607.406 366.56 608.57 366.424 609.773 366.26C610.979 366.163 612.227 366.004 613.499 365.968C614.77 365.944 616.063 365.859 617.354 365.907C618.645 365.948 619.936 365.959 621.202 366.08C622.468 366.178 623.716 366.261 624.911 366.441C626.109 366.596 627.264 366.767 628.355 366.95C629.439 367.166 630.466 367.369 631.412 367.556C632.363 367.722 633.219 367.938 633.973 368.157C634.728 368.362 635.388 368.54 635.931 368.688C637.01 369 637.626 369.178 637.626 369.178C637.626 369.178 636.988 369.103 635.871 368.973C634.758 368.837 633.179 368.584 631.273 368.387C630.323 368.277 629.295 368.158 628.207 368.033C627.118 367.945 625.968 367.85 624.778 367.753C623.594 367.612 622.361 367.62 621.115 367.522C619.868 367.42 618.599 367.43 617.332 367.403C616.064 367.339 614.799 367.405 613.55 367.41C612.303 367.439 611.08 367.512 609.892 367.568C608.714 367.7 607.559 367.722 606.482 367.875C605.396 367.985 604.378 368.136 603.439 368.299C601.57 368.64 599.997 368.93 598.931 369.258C597.854 369.556 597.25 369.777 597.25 369.777Z" fill="white"/>
<path d="M618.668 353.082C618.668 353.082 619.189 352.963 620.115 352.831C621.042 352.717 622.368 352.541 623.968 352.454C625.568 352.374 627.44 352.323 629.44 352.403C631.444 352.449 633.572 352.642 635.696 352.858C637.815 353.128 639.926 353.447 641.89 353.832C643.85 354.237 645.671 354.651 647.208 355.094C648.757 355.489 650.012 355.956 650.901 356.233C651.787 356.528 652.286 356.716 652.286 356.716C652.286 356.716 651.753 356.657 650.833 356.516C649.916 356.365 648.602 356.165 647.03 355.936C645.462 355.7 643.631 355.427 641.671 355.133C639.708 354.877 637.62 354.58 635.524 354.346C631.337 353.852 627.134 353.506 623.967 353.311C622.384 353.229 621.059 353.134 620.13 353.121C619.201 353.095 618.668 353.082 618.668 353.082Z" fill="white"/>
<path d="M636.16 341.399C636.16 341.399 636.642 341.372 637.484 341.38C638.323 341.404 639.53 341.4 640.965 341.504C643.843 341.68 647.662 342.138 651.434 342.875C653.317 343.253 655.195 343.667 656.932 344.144C658.675 344.6 660.283 345.099 661.644 345.578C663.012 346.036 664.121 346.509 664.9 346.825C665.677 347.147 666.113 347.351 666.113 347.351C666.113 347.351 665.636 347.273 664.814 347.103C663.999 346.909 662.817 346.701 661.415 346.407C658.61 345.829 654.883 345.062 651.145 344.344C647.402 343.62 643.661 342.895 640.853 342.352C638.038 341.78 636.16 341.399 636.16 341.399Z" fill="white"/>
<path d="M654.598 331.492C654.598 331.492 655.017 331.475 655.748 331.509C656.478 331.554 657.524 331.605 658.768 331.765C660.013 331.911 661.454 332.152 662.988 332.457C664.522 332.762 666.14 333.163 667.75 333.59C670.962 334.479 674.111 335.572 676.417 336.543C677.579 337.001 678.512 337.481 679.179 337.773C679.841 338.083 680.211 338.28 680.211 338.28C680.211 338.28 679.797 338.209 679.084 338.049C678.375 337.883 677.364 337.645 676.149 337.362C674.941 337.063 673.538 336.702 672.039 336.3C670.545 335.896 668.95 335.467 667.355 335.036C660.975 333.261 654.598 331.492 654.598 331.492Z" fill="white"/>
<path d="M673.688 325.68C673.688 325.68 674.972 325.582 676.874 325.747C678.778 325.891 681.294 326.295 683.754 326.938C684.981 327.272 686.199 327.633 687.319 328.051C688.44 328.455 689.47 328.88 690.328 329.301C691.195 329.702 691.893 330.092 692.373 330.379C692.85 330.67 693.123 330.837 693.123 330.837C693.123 330.837 692.811 330.77 692.263 330.655C691.727 330.524 690.958 330.336 690.038 330.112C688.221 329.642 685.798 329.014 683.376 328.388C680.961 327.747 678.543 327.106 676.725 326.592C674.906 326.079 673.688 325.68 673.688 325.68Z" fill="white"/>
<path d="M591.985 372.558C591.985 372.558 591.839 371.674 591.791 370.376C591.732 369.076 591.762 367.358 591.878 365.649C592.005 363.94 592.214 362.24 592.445 360.963C592.665 359.685 592.916 358.825 592.916 358.825C592.916 358.825 593.169 359.687 593.305 360.99C593.456 362.291 593.491 364.03 593.371 365.756C593.244 367.481 592.96 369.193 592.643 370.461C592.338 371.733 591.985 372.558 591.985 372.558Z" fill="white"/>
<path d="M604.257 362.695C604.257 362.695 604.218 361.633 604.325 360.082C604.42 358.528 604.651 356.48 604.942 354.448C605.248 352.417 605.609 350.403 605.898 348.886C606.184 347.355 606.376 346.334 606.376 346.334C606.376 346.334 606.688 347.361 606.756 348.942C606.846 350.52 606.724 352.61 606.424 354.666C606.116 356.723 605.636 358.745 605.166 360.237C604.71 361.733 604.257 362.695 604.257 362.695Z" fill="white"/>
<path d="M622.486 347.769C622.486 347.769 622.421 346.945 622.486 345.755C622.54 344.563 622.708 343.002 622.944 341.458C623.19 339.915 623.493 338.39 623.748 337.238C623.994 336.091 624.204 335.292 624.204 335.292C624.204 335.292 624.5 336.073 624.607 337.289C624.73 338.502 624.666 340.114 624.423 341.688C624.172 343.265 623.751 344.804 623.324 345.929C622.91 347.057 622.486 347.769 622.486 347.769Z" fill="white"/>
<path d="M638.833 337.627C638.833 337.627 638.773 336.88 638.841 335.813C638.899 334.743 639.077 333.348 639.311 331.974C639.559 330.601 639.857 329.249 640.09 328.227C640.324 327.213 640.461 326.481 640.461 326.481C640.461 326.481 640.83 327.157 640.95 328.265C641.096 329.364 641.032 330.822 640.787 332.235C640.534 333.648 640.105 335.017 639.676 336.012C639.257 337.008 638.833 337.627 638.833 337.627Z" fill="white"/>
<path d="M659.212 328.514C659.212 328.514 659.19 327.913 659.313 327.087C659.426 326.256 659.677 325.195 660.01 324.167C660.353 323.142 660.768 322.145 661.15 321.405C661.518 320.664 661.864 320.173 661.864 320.173C661.864 320.173 662.014 320.76 661.983 321.614C661.966 322.469 661.773 323.578 661.43 324.634C661.079 325.687 660.582 326.687 660.11 327.393C659.655 328.102 659.212 328.514 659.212 328.514Z" fill="white"/>
<path d="M586.977 378.45C586.977 378.45 587.513 378.394 588.451 378.359C589.389 378.338 590.733 378.277 592.341 378.323C595.56 378.379 599.849 378.725 604.089 379.429C606.207 379.789 608.317 380.2 610.27 380.698C611.253 380.919 612.191 381.187 613.076 381.45C613.966 381.7 614.8 381.952 615.56 382.224C617.094 382.721 618.336 383.238 619.205 383.595C620.074 383.953 620.56 384.177 620.56 384.177C620.56 384.177 620.029 384.078 619.117 383.873C618.211 383.641 616.897 383.386 615.335 383.055C612.208 382.397 608.039 381.588 603.845 380.907C601.753 380.536 599.647 380.247 597.677 379.938C595.701 379.66 593.855 379.401 592.274 379.177C589.096 378.742 586.977 378.45 586.977 378.45Z" fill="white"/>
<path d="M249.752 168.929C241.711 169.024 235.114 162.578 235.024 154.538C234.931 146.497 241.372 139.897 249.416 139.807C257.461 139.707 264.053 146.158 264.146 154.204C264.241 162.239 257.797 168.839 249.752 168.929Z" fill="#45ADAD"/>
<path d="M330.863 146.614C330.854 145.978 330.328 145.466 329.682 145.466L310.621 141.387C310.068 138.759 309.352 136.212 308.485 133.726L322.64 120.326C323.192 120.004 323.368 119.288 323.048 118.731L316.098 107.014C315.769 106.464 315.055 106.283 314.503 106.612L295.933 112.608C294.169 110.631 292.273 108.794 290.266 107.067L295.833 88.3591C296.14 87.8025 295.95 87.0984 295.389 86.7744L283.51 80.0996C282.95 79.7925 282.244 79.9945 281.929 80.5442L268.859 95.0151C266.36 94.199 263.79 93.5424 261.163 93.0504L256.635 74.0833C256.626 73.4419 256.1 72.9227 255.456 72.9295L241.833 73.089C241.195 73.1043 240.681 73.6336 240.69 74.2699L236.596 93.3388C233.979 93.8885 231.431 94.5994 228.949 95.4732L215.548 81.3162C215.217 80.7698 214.51 80.5849 213.957 80.9124L202.233 87.8568C201.685 88.186 201.505 88.9003 201.832 89.4517L207.823 108.027C205.864 109.785 204.009 111.676 202.285 113.684L183.58 108.127C183.021 107.808 182.319 108.01 181.997 108.571L175.329 120.441C175.011 121.008 175.212 121.707 175.773 122.024L190.231 135.097C189.423 137.596 188.763 140.165 188.271 142.798L169.309 147.322C168.666 147.327 168.152 147.851 168.16 148.492L168.32 162.122C168.325 162.758 168.853 163.27 169.496 163.26L188.556 167.359C189.112 169.976 189.83 172.529 190.697 175.013L176.544 188.408C175.99 188.731 175.805 189.452 176.13 189.996L183.082 201.719C183.413 202.275 184.121 202.46 184.674 202.126L203.242 196.125C205.014 198.09 206.911 199.944 208.913 201.671L203.351 220.369C203.032 220.93 203.234 221.644 203.79 221.952L215.67 228.626C216.229 228.944 216.934 228.743 217.252 228.187L230.321 213.726C232.822 214.537 235.391 215.189 238.017 215.686L242.547 234.653C242.553 235.289 243.084 235.808 243.722 235.796L257.346 235.637C257.987 235.632 258.498 235.108 258.496 234.471L262.582 215.397C265.201 214.841 267.751 214.132 270.232 213.263L283.632 227.417C283.961 227.968 284.671 228.153 285.224 227.819L296.943 220.874C297.494 220.55 297.676 219.831 297.35 219.281L291.354 200.709C293.315 198.941 295.173 197.044 296.892 195.042L315.594 200.609C316.152 200.921 316.863 200.721 317.177 200.163L323.854 188.283C324.166 187.726 323.966 187.017 323.409 186.705L308.948 173.637C309.761 171.136 310.413 168.567 310.905 165.941L329.872 161.401C330.513 161.396 331.027 160.866 331.022 160.23L330.863 146.614ZM250.184 206.133C221.597 206.473 198.149 183.558 197.815 154.967C197.487 126.375 220.397 102.927 248.986 102.603C277.579 102.268 301.027 125.182 301.357 153.769C301.688 182.361 278.776 205.806 250.184 206.133Z" fill="#45ADAD"/>
<path d="M250.095 198.064C225.965 198.351 206.173 179.009 205.89 154.875C205.613 130.74 224.952 110.949 249.083 110.675C273.217 110.394 293.01 129.734 293.29 153.864C293.567 177.998 274.228 197.786 250.095 198.064Z" stroke="#45ADAD" stroke-width="3" stroke-miterlimit="10"/>
<path d="M642.225 414.117H73.7624C67.5916 414.117 62.5898 409.115 62.5898 402.944C62.5898 396.773 67.5916 391.772 73.7624 391.772H642.224C648.395 391.772 653.396 396.773 653.396 402.944C653.396 409.115 648.395 414.117 642.225 414.117Z" fill="#D4E1FF"/>
<path d="M506.276 458.806H104.591C98.4198 458.806 93.418 453.804 93.418 447.633C93.418 441.462 98.4198 436.46 104.591 436.46H506.276C512.447 436.46 517.448 441.462 517.448 447.633C517.448 453.804 512.447 458.806 506.276 458.806Z" fill="#D4E1FF"/>
<path d="M594.058 458.806H545.876C539.705 458.806 534.703 453.804 534.703 447.633C534.703 441.462 539.705 436.46 545.876 436.46H594.058C600.229 436.46 605.23 441.462 605.23 447.633C605.23 453.804 600.229 458.806 594.058 458.806Z" fill="#D4E1FF"/>
<path d="M183.245 425.289C183.245 419.118 188.247 414.117 194.417 414.117H129.715C135.886 414.117 140.887 419.118 140.887 425.289C140.887 431.46 135.886 436.462 129.715 436.462H194.417C188.247 436.46 183.245 431.458 183.245 425.289Z" fill="#D4E1FF"/>
<path d="M214.493 503.494H442.431C448.601 503.494 453.603 498.492 453.603 492.321C453.603 486.151 448.601 481.149 442.431 481.149H214.493C208.322 481.149 203.32 486.151 203.32 492.321C203.32 498.492 208.322 503.494 214.493 503.494Z" fill="#D4E1FF"/>
<path d="M363.782 469.978C363.782 463.807 358.78 458.805 352.609 458.805H417.312C411.141 458.805 406.139 463.807 406.139 469.978C406.139 476.149 411.141 481.151 417.312 481.151H352.609C358.78 481.149 363.782 476.147 363.782 469.978Z" fill="#D4E1FF"/>
<path d="M484.118 391.773H597.997C603.818 391.773 608.536 387.055 608.536 381.234V162.941C608.536 157.12 603.818 152.402 597.997 152.402H484.118C478.297 152.402 473.578 157.12 473.578 162.941V381.234C473.58 387.055 478.298 391.773 484.118 391.773Z" fill="white"/>
<path d="M474.528 391.773H588.407C594.228 391.773 598.947 387.055 598.947 381.234V162.941C598.947 157.12 594.228 152.402 588.407 152.402H474.528C468.707 152.402 463.988 157.12 463.988 162.941V381.234C463.988 387.055 468.707 391.773 474.528 391.773Z" fill="#62C1C5"/>
<path d="M583.788 162.243H562.679C560.121 162.243 558.048 164.316 558.048 166.874C558.048 169.005 556.32 170.733 554.188 170.733H508.747C506.616 170.733 504.887 169.005 504.887 166.874C504.887 164.316 502.814 162.243 500.256 162.243H479.147C476.21 162.243 473.828 164.625 473.828 167.562V376.614C473.828 379.551 476.21 381.933 479.147 381.933H583.784C586.721 381.933 589.103 379.552 589.103 376.614V167.562C589.107 164.623 586.725 162.243 583.788 162.243Z" fill="#0A3C5F"/>
<path d="M588.411 152.402H531.473V391.773H588.411C594.233 391.773 598.951 387.055 598.951 381.234V162.941C598.951 157.12 594.233 152.402 588.411 152.402Z" fill="#45ADAD"/>
<path d="M582.156 162.243H561.048C558.489 162.243 556.416 164.316 556.416 166.874C556.416 169.005 554.689 170.733 552.556 170.733H529.836V381.933H582.154C585.093 381.933 587.474 379.551 587.474 376.614V167.562C587.475 164.623 585.095 162.243 582.156 162.243Z" fill="#0A3C5F"/>
<path d="M537.132 165.614H514.892C513.965 165.614 513.207 164.855 513.207 163.929C513.207 163.003 513.965 162.244 514.892 162.244H537.132C538.06 162.244 538.818 163.003 538.818 163.929C538.817 164.855 538.058 165.614 537.132 165.614Z" fill="#0A3C5F"/>
<path d="M545.371 163.928C545.371 164.842 544.63 165.582 543.717 165.582C542.804 165.582 542.062 164.84 542.062 163.928C542.062 163.013 542.804 162.273 543.717 162.273C544.63 162.273 545.371 163.015 545.371 163.928Z" fill="#0A3C5F"/>
<path d="M550.523 163.928C550.523 164.842 549.782 165.582 548.869 165.582C547.956 165.582 547.215 164.84 547.215 163.928C547.215 163.013 547.956 162.273 548.869 162.273C549.782 162.273 550.523 163.015 550.523 163.928Z" fill="#0A3C5F"/>
<path d="M231.883 391.773H118.005C112.183 391.773 107.465 387.055 107.465 381.233V162.941C107.465 157.12 112.183 152.402 118.005 152.402H231.883C237.705 152.402 242.423 157.12 242.423 162.941V381.233C242.423 387.055 237.705 391.773 231.883 391.773Z" fill="white"/>
<path d="M241.473 391.773H127.594C121.773 391.773 117.055 387.055 117.055 381.233V162.941C117.055 157.12 121.773 152.402 127.594 152.402H241.473C247.295 152.402 252.013 157.12 252.013 162.941V381.233C252.013 387.055 247.293 391.773 241.473 391.773Z" fill="#5472D1"/>
<path d="M132.214 162.242H153.322C155.881 162.242 157.954 164.316 157.954 166.874C157.954 169.005 159.682 170.733 161.814 170.733H207.255C209.386 170.733 211.114 169.005 211.114 166.874C211.114 164.316 213.188 162.242 215.746 162.242H236.855C239.792 162.242 242.174 164.625 242.174 167.562V376.614C242.174 379.55 239.792 381.933 236.855 381.933H132.218C129.281 381.933 126.898 379.552 126.898 376.614V167.562C126.895 164.623 129.277 162.242 132.214 162.242Z" fill="#E9F0FF"/>
<path d="M127.594 152.402H184.533V391.773H127.594C121.773 391.773 117.055 387.055 117.055 381.233V162.941C117.055 157.12 121.773 152.402 127.594 152.402Z" fill="#3459B7"/>
<path d="M133.763 162.242H154.871C157.43 162.242 159.503 164.316 159.503 166.874C159.503 169.005 161.23 170.733 163.363 170.733H186.083V381.933H133.764C130.827 381.933 128.445 379.55 128.445 376.614V167.562C128.445 164.623 130.826 162.242 133.763 162.242Z" fill="#E9F0FF"/>
<path d="M178.87 165.614H201.11C202.036 165.614 202.795 164.855 202.795 163.929C202.795 163.002 202.036 162.244 201.11 162.244H178.87C177.942 162.244 177.184 163.002 177.184 163.929C177.185 164.855 177.944 165.614 178.87 165.614Z" fill="#0A3C5F"/>
<path d="M170.625 163.927C170.625 164.842 171.366 165.582 172.279 165.582C173.192 165.582 173.934 164.84 173.934 163.927C173.934 163.013 173.192 162.273 172.279 162.273C171.366 162.273 170.625 163.015 170.625 163.927Z" fill="#0A3C5F"/>
<path d="M165.477 163.927C165.477 164.842 166.218 165.582 167.131 165.582C168.045 165.582 168.785 164.84 168.785 163.927C168.785 163.013 168.044 162.273 167.131 162.273C166.218 162.273 165.477 163.015 165.477 163.927Z" fill="#0A3C5F"/>
<path d="M457.505 317.732C458.228 320.162 460.783 321.545 463.213 320.822C465.642 320.099 467.025 317.544 466.302 315.114C465.579 312.685 463.024 311.302 460.595 312.025C458.165 312.749 456.78 315.304 457.505 317.732Z" fill="#0E4F77"/>
<path d="M343.225 359.727L349.285 352.636C351.51 350.035 355.421 349.728 358.022 351.952C360.623 354.177 360.93 358.088 358.705 360.689L352.645 367.779C350.421 370.38 346.51 370.687 343.909 368.463C341.308 366.24 341.001 362.329 343.225 359.727Z" fill="#EF9D75"/>
<path d="M397.964 332.278L389.801 304.856C387.848 298.297 380.948 294.561 374.387 296.514L386.085 335.812C387.063 339.092 390.512 340.96 393.792 339.982C397.071 339.008 398.939 335.557 397.964 332.278Z" fill="#F8B690"/>
<path d="M356.375 301.875L358.85 310.192C361.811 320.139 372.276 325.803 382.224 322.842L374.387 296.513L356.375 301.875Z" fill="#F8B690"/>
<path d="M361.391 351.991L400.406 340.489C402.359 347.049 398.623 353.951 392.063 355.904L364.927 363.87C361.647 364.847 358.196 362.979 357.221 359.699C356.243 356.418 358.11 352.968 361.391 351.991Z" fill="#EF9D75"/>
<path d="M357.86 340.113L396.875 328.611L400.411 340.489L361.396 351.991C358.116 352.967 354.665 351.1 353.689 347.821C352.712 344.539 354.578 341.09 357.86 340.113Z" fill="#EF9D75"/>
<path d="M354.321 328.236L393.336 316.734L396.871 328.613L357.856 340.114C354.577 341.09 351.126 339.224 350.15 335.944C349.173 332.663 351.041 329.212 354.321 328.236Z" fill="#EF9D75"/>
<path d="M350.785 316.358L389.8 304.856L393.336 316.734L354.321 328.236C351.042 329.212 347.591 327.345 346.615 324.066C345.638 320.784 347.506 317.333 350.785 316.358Z" fill="#EF9D75"/>
<path d="M408.299 299.32L389.789 304.83L400.512 340.851L419.022 335.341L408.299 299.32Z" fill="#F8B690"/>
<path d="M413.662 317.331L395.152 322.841L400.514 340.851L419.024 335.341L413.662 317.331Z" fill="#EF9D75"/>
<path d="M432.169 286.289L405.363 294.269L419.328 341.18L446.134 333.2L432.169 286.289Z" fill="#E6E7E8"/>
<path d="M439.15 309.745L412.344 317.725L419.326 341.181L446.132 333.201L439.15 309.745Z" fill="#BCBEC0"/>
<path d="M589.133 238.369L417.586 290.658L431.55 337.573L589.133 289.538V238.369Z" fill="#EFA748"/>
<path d="M589.132 263.955L424.566 314.117L431.548 337.573L589.132 289.539V263.955Z" fill="#E89234"/>
<path d="M436.114 278.534L415.77 284.59L433.332 343.588L453.676 337.532L436.114 278.534Z" fill="#F4BD4E"/>
<path d="M318.111 332.277L326.274 304.856C328.227 298.297 335.127 294.56 341.688 296.513L329.989 335.812C329.014 339.091 325.563 340.959 322.283 339.982C319.002 339.008 317.134 335.557 318.111 332.277Z" fill="#F8B690"/>
<path d="M359.699 301.875L357.223 310.192C354.263 320.139 343.797 325.803 333.852 322.842L341.688 296.513L359.699 301.875Z" fill="#F8B690"/>
<path d="M378.303 359.134L315.667 340.489C313.714 347.049 317.45 353.951 324.009 355.903L348.709 363.255L374.769 371.012C378.048 371.988 381.499 370.122 382.475 366.842C383.45 363.561 381.582 360.11 378.303 359.134Z" fill="#F8B690"/>
<path d="M381.836 347.256L319.2 328.611L315.664 340.489L378.3 359.134C381.58 360.109 385.031 358.243 386.006 354.963C386.984 351.682 385.116 348.233 381.836 347.256Z" fill="#F8B690"/>
<path d="M385.367 335.377L322.731 316.733L319.195 328.611L381.831 347.256C385.111 348.231 388.562 346.365 389.538 343.085C390.515 339.806 388.647 336.355 385.367 335.377Z" fill="#F8B690"/>
<path d="M388.906 323.501L326.27 304.856L322.734 316.734L385.37 335.379C388.65 336.356 392.101 334.488 393.077 331.209C394.052 327.927 392.186 324.476 388.906 323.501Z" fill="#F8B690"/>
<path d="M307.739 299.368L297.016 335.389L315.525 340.899L326.248 304.878L307.739 299.368Z" fill="#F8B690"/>
<path d="M302.377 317.379L297.016 335.389L315.525 340.899L320.887 322.889L302.377 317.379Z" fill="#EF9D75"/>
<path d="M283.867 286.332L269.902 333.244L296.708 341.223L310.673 294.312L283.867 286.332Z" fill="#E6E7E8"/>
<path d="M276.885 309.789L269.902 333.246L296.708 341.225L303.691 317.769L276.885 309.789Z" fill="#BCBEC0"/>
<path d="M126.887 238.353V289.523L284.521 337.573L298.486 290.658L126.887 238.353Z" fill="#5472D1"/>
<path d="M126.887 263.939V289.523L284.521 337.573L291.505 314.116L126.887 263.939Z" fill="#3459B7"/>
<path d="M279.926 278.579L262.363 337.577L282.707 343.633L300.27 284.635L279.926 278.579Z" fill="#6B8BDB"/>
<path d="M242.055 312.816C241.333 315.246 238.778 316.629 236.348 315.906C233.918 315.183 232.535 312.628 233.258 310.198C233.981 307.769 236.536 306.386 238.966 307.109C241.395 307.831 242.778 310.387 242.055 312.816Z" fill="#FBB040"/>
<path d="M258.571 317.731C257.848 320.161 255.293 321.544 252.863 320.821C250.434 320.098 249.051 317.543 249.774 315.113C250.497 312.684 253.052 311.301 255.481 312.024C257.911 312.748 259.294 315.303 258.571 317.731Z" fill="#FBB040"/>
<path d="M369.101 304.676L341.68 296.513C335.119 294.56 328.218 298.297 326.266 304.856L365.564 316.554C368.844 317.53 372.295 315.664 373.27 312.384C374.249 309.103 372.381 305.652 369.101 304.676Z" fill="#F8B690"/>
<path d="M320.902 322.868L329.219 325.343C339.167 328.304 349.63 322.64 352.593 312.693L326.264 304.856L320.902 322.868Z" fill="#F8B690"/>
<path d="M378.296 359.134L369.356 356.472C366.077 355.497 362.626 357.363 361.65 360.643C360.673 363.922 362.541 367.373 365.821 368.349L374.76 371.011C378.04 371.987 381.491 370.12 382.467 366.841C383.444 363.561 381.576 360.11 378.296 359.134Z" fill="#F8B690"/>
<path d="M381.833 347.256L372.892 344.594C369.612 343.618 366.161 345.485 365.185 348.764C364.208 352.044 366.076 355.495 369.356 356.471L378.296 359.133C381.575 360.108 385.026 358.242 386.002 354.962C386.981 351.683 385.113 348.233 381.833 347.256Z" fill="#F8B690"/>
<path d="M385.366 335.377L376.427 332.715C373.147 331.738 369.696 333.606 368.72 336.886C367.743 340.165 369.611 343.616 372.891 344.592L381.832 347.254C385.112 348.23 388.563 346.363 389.539 343.084C390.514 339.806 388.646 336.355 385.366 335.377Z" fill="#F8B690"/>
<path d="M388.909 323.501L379.969 320.839C376.689 319.861 373.238 321.729 372.263 325.009C371.287 328.289 373.154 331.74 376.435 332.715L385.375 335.377C388.654 336.355 392.105 334.487 393.081 331.207C394.055 327.927 392.189 324.476 388.909 323.501Z" fill="#F8B690"/>
<path d="M346.968 304.676L374.39 296.514C380.949 294.561 387.851 298.297 389.804 304.856L350.506 316.555C347.226 317.53 343.775 315.664 342.799 312.384C341.821 309.103 343.687 305.652 346.968 304.676Z" fill="#EF9D75"/>
<path d="M395.159 322.868L386.842 325.343C376.895 328.304 366.431 322.64 363.469 312.693L389.798 304.856L395.159 322.868Z" fill="#EF9D75"/>
<path d="M332.436 353.596L338.497 346.506C340.721 343.905 344.632 343.598 347.233 345.822C349.834 348.045 350.141 351.957 347.917 354.558L341.856 361.649C339.632 364.25 335.721 364.557 333.12 362.333C330.518 360.11 330.212 356.199 332.436 353.596Z" fill="#EF9D75"/>
<path d="M320.862 348.106L326.922 341.015C329.146 338.414 333.057 338.107 335.658 340.332C338.259 342.556 338.566 346.467 336.342 349.068L330.282 356.158C328.057 358.759 324.146 359.066 321.545 356.842C318.944 354.619 318.637 350.709 320.862 348.106Z" fill="#EF9D75"/>
<path d="M310.256 341.428L316.316 334.337C318.54 331.736 322.451 331.429 325.052 333.653C327.653 335.878 327.96 339.789 325.736 342.39L319.675 349.48C317.451 352.081 313.54 352.388 310.939 350.164C308.338 347.939 308.033 344.029 310.256 341.428Z" fill="#EF9D75"/>
<path d="M474.248 318.146C474.248 318.146 471.521 317.522 471.148 319.956C470.773 322.391 470.712 327.384 474.248 327.198C476.326 327.091 477.227 318.395 474.248 318.146Z" fill="#FED4D5"/>
<path d="M365.19 83.453C352.66 83.6006 342.382 73.558 342.236 61.0246C342.092 48.4913 352.134 38.2129 364.666 38.0721C377.199 37.9262 387.476 47.9688 387.622 60.5004C387.766 73.032 377.723 83.3087 365.19 83.453Z" fill="#5472D1"/>
<path d="M365.026 69.411C360.25 69.4687 356.332 65.6393 356.278 60.8632C356.224 56.087 360.05 52.166 364.826 52.1134C369.605 52.0541 373.521 55.8852 373.575 60.6647C373.633 65.4374 369.805 69.3584 365.026 69.411Z" fill="white"/>
<path d="M413.204 56.1568C413.199 55.7784 412.887 55.4747 412.504 55.4747L401.182 53.0519C400.853 51.491 400.429 49.9775 399.913 48.5014L408.321 40.5406C408.649 40.3489 408.754 39.9248 408.564 39.5939L404.436 32.6342C404.241 32.3067 403.815 32.1998 403.489 32.3949L392.458 35.9562C391.411 34.7821 390.284 33.6912 389.091 32.6647L392.398 21.5515C392.581 21.2206 392.468 20.8033 392.134 20.6098L385.077 16.6447C384.745 16.4632 384.325 16.5819 384.139 16.9094L376.375 25.5047C374.89 25.0195 373.363 24.6293 371.804 24.3374L369.115 13.0698C369.11 12.6898 368.797 12.381 368.416 12.3844L360.323 12.4794C359.943 12.4896 359.639 12.8035 359.642 13.1801L357.211 24.5071C355.657 24.8346 354.143 25.2553 352.669 25.7745L344.71 17.3658C344.513 17.0417 344.094 16.9315 343.765 17.1266L336.8 21.2512C336.474 21.4463 336.367 21.8705 336.562 22.1979L340.12 33.2314C338.956 34.2765 337.855 35.3997 336.83 36.5908L325.719 33.2908C325.386 33.1024 324.971 33.2212 324.779 33.5554L320.817 40.6068C320.629 40.9428 320.748 41.3584 321.082 41.5468L329.669 49.3124C329.189 50.797 328.797 52.324 328.505 53.8867L317.241 56.5742C316.859 56.5776 316.554 56.8881 316.559 57.2698L316.654 65.3646C316.657 65.743 316.969 66.0467 317.353 66.0416L328.675 68.4763C329.005 70.0305 329.431 71.5473 329.945 73.0234L321.538 80.9808C321.209 81.1725 321.099 81.6001 321.292 81.9242L325.422 88.8873C325.619 89.2181 326.04 89.3284 326.367 89.1299L337.397 85.5652C338.449 86.7325 339.576 87.8337 340.765 88.8584L337.462 99.9649C337.273 100.299 337.392 100.723 337.723 100.905L344.781 104.87C345.112 105.058 345.531 104.94 345.719 104.609L353.483 96.0184C354.968 96.5003 356.495 96.8871 358.056 97.1823L360.747 108.448C360.75 108.825 361.064 109.134 361.444 109.129L369.537 109.034C369.917 109.03 370.221 108.72 370.219 108.341L372.647 97.011C374.203 96.6801 375.718 96.2593 377.191 95.7435L385.152 104.151C385.347 104.478 385.768 104.588 386.097 104.39L393.058 100.265C393.386 100.073 393.494 99.6459 393.301 99.3184L389.74 88.2867C390.905 87.2364 392.008 86.1098 393.029 84.9205L404.139 88.2273C404.472 88.4122 404.892 88.2934 405.081 87.9626L409.046 80.9062C409.231 80.5753 409.112 80.1545 408.781 79.9679L400.193 72.2056C400.676 70.721 401.063 69.194 401.355 67.6348L412.623 64.9388C413.004 64.9354 413.308 64.6215 413.306 64.2431L413.204 56.1568ZM365.282 91.5103C348.302 91.7122 334.374 78.0999 334.175 61.1179C333.98 44.1342 347.589 30.2045 364.571 30.0128C381.555 29.8143 395.483 43.425 395.68 60.4053C395.875 77.3907 382.266 91.3152 365.282 91.5103Z" fill="#5472D1"/>
<path d="M497.955 65.7004C497.955 68.0503 496.05 69.9557 493.698 69.9557C491.347 69.9557 489.441 68.0503 489.441 65.7004C489.441 63.3505 491.347 61.4452 493.698 61.4452C496.05 61.4452 497.955 63.3505 497.955 65.7004Z" fill="#3459B7"/>
<path d="M493.696 69.9571C493.696 72.307 491.79 74.2124 489.439 74.2124C487.089 74.2124 485.184 72.307 485.184 69.9571C485.184 67.6072 487.089 65.7019 489.439 65.7019C491.79 65.7002 493.696 67.6055 493.696 69.9571Z" fill="#3459B7"/>
<path d="M493.249 78.4694C495.6 78.4694 497.506 76.5636 497.506 74.2125C497.506 71.8615 495.6 69.9556 493.249 69.9556C490.898 69.9556 488.992 71.8615 488.992 74.2125C488.992 76.5636 490.898 78.4694 493.249 78.4694Z" fill="#3459B7"/>
<path d="M504.089 71.4416C504.089 73.7915 502.183 75.6969 499.833 75.6969C497.483 75.6969 495.578 73.7915 495.578 71.4416C495.578 69.0917 497.483 67.1863 499.833 67.1863C502.183 67.1863 504.089 69.0917 504.089 71.4416Z" fill="#3459B7"/>
<path d="M504.467 63.5692C504.467 65.9191 502.562 67.8245 500.21 67.8245C497.86 67.8245 495.953 65.9191 495.953 63.5692C495.953 61.2193 497.858 59.314 500.21 59.314C502.562 59.314 504.467 61.2193 504.467 63.5692Z" fill="#3459B7"/>
<path d="M511.128 63.9577C511.128 66.3076 509.222 68.2147 506.872 68.2147C504.523 68.2147 502.617 66.3093 502.617 63.9577C502.617 61.6078 504.523 59.7025 506.872 59.7025C509.222 59.7008 511.128 61.6061 511.128 63.9577Z" fill="#3459B7"/>
<path d="M516.129 67.1867C516.129 69.5366 514.224 71.442 511.872 71.442C509.521 71.442 507.617 69.5366 507.617 67.1867C507.617 64.8368 509.523 62.9315 511.872 62.9315C514.222 62.9315 516.129 64.8351 516.129 67.1867Z" fill="#3459B7"/>
<path d="M516.543 73.2828C516.543 75.6327 514.638 77.538 512.288 77.538C509.938 77.538 508.031 75.6327 508.031 73.2828C508.031 70.9329 509.937 69.0258 512.288 69.0258C514.64 69.0258 516.543 70.9329 516.543 73.2828Z" fill="#3459B7"/>
<path d="M495.249 98.0847C495.249 98.0847 492.886 114.855 488.563 122.51C484.238 130.165 471.603 125.858 459.285 118.525L461.464 112.44C461.464 112.44 468.361 115.912 474.465 117.194C482.428 118.866 482.555 105.509 482.555 105.509C482.555 105.509 482.708 99.006 483.923 96.064C486.861 88.9498 495.221 91.2403 495.249 98.0847Z" fill="#F4BD4E"/>
<path d="M502.483 140.984C502.483 140.984 505.547 160.109 489.186 155.524C473.431 151.109 465.015 149.828 462.289 191.473L454.796 190.878C454.796 190.878 451.674 150.417 461.423 141.961C471.172 133.505 502.483 140.984 502.483 140.984Z" fill="#0A3C5F"/>
<path d="M455.672 190.847C455.672 190.847 454.216 193.704 452.281 193.804C450.345 193.905 444.931 193.608 444.498 195.389C444.065 197.171 451.8 198.631 452.864 198.942C453.926 199.252 455.995 196.884 456.984 196.685C457.973 196.487 458.297 197.203 459.116 197.132C459.936 197.06 462.447 195.754 462.52 195.199C462.593 194.644 461.504 191.088 461.504 191.088L455.672 190.847Z" fill="#3459B7"/>
<path d="M489.445 139.385H518.631L519.862 91.7376H489.567L489.445 139.385Z" fill="#EFA748"/>
<path d="M517.292 139.362H482.633V154.367H517.292V139.362Z" fill="#0A3C5F"/>
<path d="M503.457 136.567C502.714 139.796 501.182 135.145 500.962 131.84C500.741 128.535 503.493 128.338 506.8 128.116C510.103 127.897 509.789 127.105 511.013 130.23C512.616 134.322 504.233 133.214 503.457 136.567Z" fill="#FED4D5"/>
<path d="M518.629 139.385C518.629 139.385 526.934 156.883 509.944 157.071C493.583 157.251 485.145 158.383 494.209 199.12L486.85 200.649C486.85 200.649 472.902 161.696 479.858 150.828C488.287 137.658 518.629 139.385 518.629 139.385Z" fill="#0E4F77"/>
<path d="M487.68 200.376C487.68 200.376 487.084 203.526 485.253 204.166C483.423 204.804 478.143 206.039 478.228 207.87C478.312 209.701 486.148 208.934 487.254 208.934C488.36 208.934 489.68 206.081 490.574 205.613C491.468 205.145 491.979 205.74 492.746 205.444C493.513 205.145 495.556 203.187 495.471 202.634C495.386 202.081 493.342 198.972 493.342 198.972L487.68 200.376Z" fill="#3459B7"/>
<path d="M492.816 140.987H512.763C513.401 140.987 513.919 140.47 513.919 139.832V139.72C513.919 139.082 513.401 138.564 512.763 138.564H492.816C492.178 138.564 491.66 139.082 491.66 139.72V139.832C491.66 140.47 492.178 140.987 492.816 140.987Z" fill="#45ADAD"/>
<path d="M451.179 140.987H493.251C494.352 140.987 495.247 140.094 495.247 138.992V111.483C495.247 110.381 494.354 109.488 493.251 109.488H451.179C450.078 109.488 449.184 110.381 449.184 111.483V138.992C449.184 140.093 450.076 140.987 451.179 140.987Z" fill="#45ADAD"/>
<path d="M493.253 109.488H470.223C471.324 109.488 472.218 110.382 472.218 111.483V138.992C472.218 140.093 471.325 140.987 470.223 140.987H493.253C494.354 140.987 495.249 140.093 495.249 138.992V111.483C495.249 110.381 494.356 109.488 493.253 109.488Z" fill="#62C1C5"/>
<path d="M493.256 109.488H491.758C492.859 109.488 493.753 110.382 493.753 111.483V138.992C493.753 140.093 492.861 140.987 491.758 140.987H493.256C494.357 140.987 495.251 140.093 495.251 138.992V111.483C495.251 110.381 494.359 109.488 493.256 109.488Z" fill="#45ADAD"/>
<path d="M524.502 94.0434C524.502 94.0434 533.883 108.144 535.741 116.738C537.598 125.332 525.294 130.512 511.217 133.22L508.801 127.225C508.801 127.225 516.261 125.235 521.675 122.135C528.735 118.092 519.955 108.029 519.955 108.029C519.955 108.029 515.747 103.068 514.698 100.061C512.162 92.7929 519.929 88.9483 524.502 94.0434Z" fill="#F4BD4E"/>
<path d="M502.615 95.1836C501.287 95.1836 500.211 94.1079 500.211 92.7794V88.5038H505.018V92.7794C505.019 94.1079 503.942 95.1836 502.615 95.1836Z" fill="#FED4D5"/>
<path d="M510.802 83.6854C513.152 83.6854 515.057 81.7802 515.057 79.4301C515.057 77.08 513.152 75.1749 510.802 75.1749C508.452 75.1749 506.547 77.08 506.547 79.4301C506.547 81.7802 508.452 83.6854 510.802 83.6854Z" fill="#3459B7"/>
<path d="M513.051 81.9971C513.051 84.347 511.146 86.254 508.796 86.254C506.446 86.254 504.539 84.3487 504.539 81.9971C504.539 79.6472 506.444 77.7418 508.796 77.7418C511.146 77.7401 513.051 79.6455 513.051 81.9971Z" fill="#3459B7"/>
<path d="M492.97 73.4986C492.97 73.4986 492.875 80.2106 494.485 85.5059C495.89 90.1259 501.1 92.6828 505.383 90.45C507.061 89.5762 508.554 87.9898 509.256 85.1988C509.256 85.1988 513.13 83.4224 513.377 80.0664C513.632 76.612 509.865 77.5757 509.456 79.9069L506.923 71.1724L501.855 71.0672L497.788 73.2933L492.97 73.4986Z" fill="#FED4D5"/>
<path d="M509.461 79.9101C509.461 79.9101 506.614 78.624 505.816 75.0186C505.02 71.4132 495.655 76.9393 490.738 74.2687C485.821 71.5998 487.835 65.933 491.674 64.9981C491.674 64.9981 491.002 66.3724 492.314 67.0578C493.626 67.745 503.364 58.9732 508.609 63.7493C508.609 63.7493 511.743 63.9682 513.392 67.5261C515.039 71.084 511.917 77.8147 511.917 77.8147C511.917 77.8147 510.083 77.8232 509.461 79.9101Z" fill="#3459B7"/>
<path d="M138.668 429.617C138.668 429.617 139.263 432.768 141.094 433.408C142.925 434.046 146.274 435.281 146.189 437.112C146.104 438.942 140.2 438.175 139.093 438.175C137.987 438.175 132.602 437.305 132.689 436.752C132.773 436.199 132.873 428.906 132.873 428.906L138.668 429.617Z" fill="#0A3C5F"/>
<path d="M142.856 349.397C147.851 380.863 139.499 429.89 139.499 429.89H132.14C132.14 429.89 133.996 382.623 130.875 360.895C127.753 339.168 140.546 333.233 142.856 349.397Z" fill="#0A3C5F"/>
<path d="M142.856 349.373H118.906V364.378H142.856V349.373Z" fill="#0A3C5F"/>
<path d="M121.859 429.617C121.859 429.617 122.455 432.768 124.285 433.408C126.116 434.046 129.465 435.281 129.38 437.112C129.296 438.942 123.391 438.175 122.285 438.175C121.179 438.175 115.793 437.305 115.88 436.752C115.965 436.199 116.067 428.906 116.067 428.906L121.859 429.617Z" fill="#0A3C5F"/>
<path d="M129.72 349.397C130.385 379.893 122.687 429.891 122.687 429.891H115.329C115.329 429.891 117.875 391.714 114.597 370.01C112.439 355.712 113.669 349.395 113.669 349.395C117.487 343.135 128.042 337.66 129.72 349.397Z" fill="#0E4F77"/>
<path d="M137.051 308.097C137.051 308.097 139.414 324.866 143.737 332.522C148.062 340.177 160.697 335.869 173.015 328.536L170.837 322.452C170.837 322.452 163.94 325.924 157.835 327.206C149.873 328.877 149.744 315.521 149.744 315.521C149.744 315.521 149.591 309.018 148.376 306.076C145.441 298.962 137.08 301.252 137.051 308.097Z" fill="#45ADAD"/>
<path d="M142.858 349.397H113.672L112.441 301.75H142.734L142.858 349.397Z" fill="#62C1C5"/>
<path d="M135.116 301.75V304.113C135.116 307.191 132.622 309.685 129.545 309.685C126.467 309.685 123.973 307.191 123.973 304.113V301.75H135.116Z" fill="#FED4D5"/>
<path d="M128.848 346.579C129.592 349.808 131.124 345.157 131.344 341.852C131.565 338.547 128.813 338.35 125.506 338.128C122.203 337.909 122.515 337.117 121.293 340.242C119.69 344.334 128.073 343.226 128.848 346.579Z" fill="#FED4D5"/>
<path d="M107.8 304.055C107.8 304.055 98.4193 318.154 96.5614 326.75C94.7036 335.345 107.008 340.523 121.085 343.233L123.501 337.238C123.501 337.238 116.041 335.248 110.627 332.148C103.567 328.105 112.347 318.041 112.347 318.041C112.347 318.041 116.555 313.08 117.604 310.073C120.14 302.805 112.371 298.96 107.8 304.055Z" fill="#45ADAD"/>
<path d="M129.68 305.195C131.007 305.195 132.084 304.119 132.084 302.791V298.515H127.277V302.791C127.277 304.118 128.353 305.195 129.68 305.195Z" fill="#FED4D5"/>
<path d="M139.326 283.51C139.326 283.51 139.421 290.222 137.811 295.519C136.406 300.139 131.196 302.696 126.913 300.463C125.235 299.589 123.742 298.003 123.04 295.212C123.04 295.212 119.166 293.436 118.919 290.08C118.664 286.625 122.432 287.589 122.84 289.92L125.373 281.186L130.441 281.08L134.508 283.306L139.326 283.51Z" fill="#FED4D5"/>
<path d="M122.839 289.922C122.839 289.922 125.686 288.636 126.483 285.03C127.279 281.425 136.644 286.951 141.56 284.282C152.656 277.224 130.184 267.877 123.689 273.763C123.689 273.763 120.555 273.981 118.906 277.539C117.258 281.099 120.38 287.828 120.38 287.828C120.38 287.828 122.214 287.835 122.839 289.922Z" fill="#E89234"/>
<path d="M163.573 294.719L155.809 325.933L179.766 331.892L187.531 300.679L163.573 294.719Z" fill="white"/>
<path d="M184.403 313.295C184.403 313.295 186.353 314.125 185.942 316.429C185.248 320.316 184.515 321.682 182.374 321.458C180.233 321.234 181.417 317.771 181.729 316.303C182.04 314.836 182.366 312.16 184.403 313.295Z" fill="#FED4D5"/>
<path d="M460.699 429.618C460.699 429.618 461.294 432.769 463.125 433.408C464.956 434.046 468.305 435.281 468.22 437.112C468.135 438.943 462.231 438.176 461.125 438.176C460.018 438.176 454.633 437.305 454.72 436.752C454.805 436.199 454.905 428.907 454.905 428.907L460.699 429.618Z" fill="#0A3C5F"/>
<path d="M464.891 349.397C469.886 380.864 461.533 429.891 461.533 429.891H454.175C454.175 429.891 456.031 382.623 452.909 360.896C449.789 339.168 462.582 333.233 464.891 349.397Z" fill="#0A3C5F"/>
<path d="M464.89 349.374H440.941V364.379H464.89V349.374Z" fill="#0A3C5F"/>
<path d="M443.894 429.618C443.894 429.618 444.49 432.769 446.32 433.408C448.151 434.046 451.5 435.281 451.416 437.112C451.331 438.943 445.426 438.176 444.32 438.176C443.214 438.176 437.829 437.305 437.915 436.752C438 436.199 438.1 428.907 438.1 428.907L443.894 429.618Z" fill="#0A3C5F"/>
<path d="M452.916 349.373C453.324 375.019 444.722 429.891 444.722 429.891H437.364C437.364 429.891 439.911 391.714 436.633 370.01C434.474 355.712 435.705 349.395 435.705 349.395C439.522 343.135 451.239 337.636 452.916 349.373Z" fill="#0E4F77"/>
<path d="M464.893 349.397H435.707L434.477 301.75H464.771L464.893 349.397Z" fill="#5472D1"/>
<path d="M446.148 301.75V304.113C446.148 307.191 448.643 309.685 451.72 309.685C454.798 309.685 457.292 307.191 457.292 304.113V301.75H446.148Z" fill="#0A3C5F"/>
<path d="M451.715 305.196C453.042 305.196 454.119 304.12 454.119 302.792V298.516H449.313V302.792C449.311 304.118 450.386 305.196 451.715 305.196Z" fill="#FED4D5"/>
<path d="M461.365 283.511C461.365 283.511 461.46 290.223 459.85 295.52C458.445 300.14 453.235 302.697 448.952 300.464C447.274 299.59 445.781 298.004 445.079 295.213C445.079 295.213 441.205 293.436 440.958 290.08C440.703 286.626 444.471 287.589 444.879 289.921L447.412 281.186L452.48 281.081L456.547 283.307L461.365 283.511Z" fill="#FED4D5"/>
<path d="M444.872 289.922C444.872 289.922 447.721 288.636 448.517 285.031C449.312 281.425 458.678 286.951 463.595 284.282C468.512 281.614 466.498 275.947 462.658 275.012C462.658 275.012 463.33 276.386 462.019 277.072C460.707 277.759 450.968 268.987 445.724 273.763C445.724 273.763 442.59 273.982 440.941 277.54C439.293 281.1 442.415 287.828 442.415 287.828C442.415 287.828 444.249 287.835 444.872 289.922Z" fill="#3459B7"/>
<path d="M433.987 301.694C433.987 301.694 441.619 301.628 440.975 311.368C440.332 321.107 436.966 330.462 439.213 330.822C441.457 331.182 452.348 327.095 454.389 326.847C456.429 326.599 460.531 329.636 456.098 332.258C451.666 334.879 440.236 342.797 434.374 343.196C428.512 343.595 427.183 335.06 427.032 320.153C426.883 305.243 430.166 301.845 433.987 301.694Z" fill="#3459B7"/>
<path d="M464.766 301.75C464.766 301.75 469.72 309.517 470.385 316.813C471.05 324.108 464.613 320.113 464.613 320.113L464.766 301.75Z" fill="#3459B7"/>
<path d="M474.252 310.949H454.871V336.308H474.252V310.949Z" fill="white"/>
<path d="M457.126 310.949H454.871V336.308H457.126V310.949Z" fill="#D1D3D4"/>
<path d="M229.207 280.611C229.207 280.611 226.024 281.546 226.087 285.667C226.15 289.788 230.581 302.087 229.708 309.329C228.834 316.572 246.627 311.64 246.627 311.64L253.712 306.154C253.712 306.154 252.421 300.23 254.494 293.472C258.23 281.29 243.878 268.437 229.207 280.611Z" fill="#0E4F77"/>
<path d="M231.066 429.618C231.066 429.618 230.47 432.768 228.64 433.408C226.809 434.046 223.46 435.281 223.545 437.112C223.629 438.942 229.534 438.176 230.64 438.176C231.746 438.176 237.131 437.305 237.045 436.752C236.96 436.199 236.86 428.907 236.86 428.907L231.066 429.618Z" fill="#0A3C5F"/>
<path d="M230.409 346.175C223.544 377.194 230.237 429.891 230.237 429.891H237.596C237.596 429.891 236.9 384.924 241.622 357.479C245.344 335.846 233.824 331.9 230.409 346.175Z" fill="#0E4F77"/>
<path d="M250.824 346.175H231.766V361.181H250.824V346.175Z" fill="#0E4F77"/>
<path d="M247.874 429.618C247.874 429.618 247.279 432.768 245.448 433.408C243.618 434.046 240.268 435.281 240.353 437.112C240.438 438.942 246.342 438.176 247.449 438.176C248.555 438.176 253.94 437.305 253.854 436.752C253.769 436.199 253.667 428.907 253.667 428.907L247.874 429.618Z" fill="#0A3C5F"/>
<path d="M240.937 345.366C240.621 378.768 247.048 429.889 247.048 429.889H254.407C254.407 429.889 251.86 388.516 255.138 366.812C257.298 352.514 253.099 346.197 253.099 346.197C249.28 339.937 242.613 333.63 240.937 345.366Z" fill="#0E4F77"/>
<path d="M235.031 311.81C235.031 311.81 228.67 323.96 221.977 329.664C215.284 335.366 205.904 328.834 195.969 318.625L198.785 314.692C198.785 314.692 204.622 320.257 210.016 323.395C217.055 327.489 222.773 315.719 222.773 315.719C222.773 315.719 225.153 309.665 227.305 307.319C232.508 301.645 238.272 306.56 235.031 311.81Z" fill="#FED4D5"/>
<path d="M230.408 346.176C230.408 346.176 255.943 346.2 253.096 346.2C250.827 330.931 253.814 323.868 254.557 319.787C255.873 312.56 255.118 308.754 255.118 308.754C255.164 305.96 251.579 304.786 248.785 304.786C248.785 304.786 232.69 304.786 231.472 304.786C232.22 310.797 226.92 319.362 230.406 324.162C234.329 329.559 230.408 346.176 230.408 346.176Z" fill="#E89234"/>
<path d="M255.789 308.932C255.789 308.932 259.907 322.015 259.221 330.78C258.538 339.547 247.29 341.58 233.044 341.412L232.246 336.641C232.246 336.641 240.309 336.434 246.337 334.829C254.206 332.733 249.905 320.375 249.905 320.375C249.905 320.375 247.296 314.416 247.153 311.235C246.809 303.545 254.357 302.931 255.789 308.932Z" fill="#FED4D5"/>
<path d="M240.049 308.231C238.722 308.231 237.645 307.155 237.645 305.827V301.549H242.451V305.827C242.453 307.155 241.375 308.231 240.049 308.231Z" fill="#FED4D5"/>
<path d="M224.748 343.43C223.109 346.311 222.977 341.416 223.713 338.186C224.45 334.955 227.142 335.556 230.375 336.292C233.603 337.03 233.529 336.18 233.805 339.525C234.165 343.905 226.452 340.441 224.748 343.43Z" fill="#FED4D5"/>
<path d="M248.915 290.903C247.466 291.341 247.026 292.486 246.924 292.843C246.916 292.882 246.901 292.917 246.894 292.958C235.58 294.785 230.407 286.548 230.407 286.548C230.407 286.548 230.312 293.26 231.922 298.557C233.327 303.177 238.538 305.734 242.82 303.501C244.498 302.627 245.991 301.041 246.694 298.25C246.694 298.25 250.567 296.473 250.815 293.117C250.949 291.278 249.944 290.7 248.915 290.903Z" fill="#FED4D5"/>
<path d="M216.417 335.625L194.438 336.893C193.702 336.935 193.069 336.372 193.027 335.636L191.326 306.193C191.284 305.457 191.847 304.824 192.584 304.782L214.562 303.514C215.299 303.472 215.932 304.035 215.974 304.771L217.672 334.214C217.716 334.952 217.153 335.583 216.417 335.625Z" fill="#EFA748"/>
<path d="M214.137 333.819L196.485 334.836C195.748 334.879 195.115 334.316 195.073 333.579L193.565 307.425C193.522 306.689 194.086 306.056 194.822 306.013L212.474 304.995C213.21 304.953 213.843 305.516 213.886 306.253L215.394 332.407C215.437 333.145 214.873 333.776 214.137 333.819Z" fill="white"/>
<path d="M207.859 302.896L199.004 303.407L199.192 306.669L208.047 306.158L207.859 302.896Z" fill="#0A3C5F"/>
<path d="M205.71 301.946L200.844 302.227L200.968 304.378L205.834 304.097L205.71 301.946Z" fill="#0E4F77"/>
<path d="M192.986 318.426C192.986 318.426 190.72 318.815 190.708 321.163C190.686 325.123 191.205 326.623 193.558 326.871C195.911 327.119 195.321 323.466 195.275 321.959C195.228 320.452 195.407 317.758 192.986 318.426Z" fill="#FED4D5"/>
<path d="M570.52 105.387H562.898V121.646H570.52V105.387Z" fill="#EFA748"/>
<path d="M583.225 97.769H575.605V121.648H583.225V97.769Z" fill="#EFA748"/>
<path d="M597.45 91.6689H589.828V121.647H597.45V91.6689Z" fill="#EFA748"/>
<path d="M597.06 82.2407L599.287 69.57L586.617 72.4119L590.527 76.092L579.511 87.5462L574.054 82.6513L559.399 97.6838C558.778 98.3201 558.791 99.3381 559.427 99.9574C560.064 100.577 561.082 100.563 561.701 99.9285L574.202 87.1017L579.675 92.0085L592.867 78.2943L597.06 82.2407Z" fill="#EFA748"/>
<path d="M604.481 121.646H555.109V125.179H604.481V121.646Z" fill="#EFA748"/>
<path d="M421.294 217.34C419.382 215.428 416.282 215.428 414.37 217.34L376.041 255.67L360.386 240.014C358.473 238.102 355.374 238.102 353.461 240.014C351.549 241.927 351.549 245.026 353.461 246.939L369.117 262.595L376.041 269.52L382.965 262.595L421.294 224.266C423.207 222.352 423.207 219.252 421.294 217.34Z" fill="#45ADAD"/>
<path d="M105.488 169.979C105.488 169.979 104.374 168.868 102.711 166.781" stroke="#8CB0EA" stroke-width="2" stroke-miterlimit="10"/>
<path d="M97.9244 159.92C90.1859 147.251 81.2546 123.658 96.3787 95.1815C128.254 35.1651 202.183 46.8229 226.094 81.1686C270.92 145.562 311.797 201.987 374.613 163.408" stroke="#8CB0EA" stroke-width="2" stroke-miterlimit="10" stroke-dasharray="4.94 4.94"/>
<path d="M378.152 161.148C379.311 160.381 380.477 159.582 381.651 158.749" stroke="#8CB0EA" stroke-width="2" stroke-miterlimit="10"/>
<path d="M398.635 154.748L428.235 118.869L371.645 139.989L398.635 154.748Z" fill="#D4E1FF"/>
<path d="M382.824 146.1L385.39 158.255L386.184 147.938L428.241 118.869L382.824 146.1Z" fill="#A6C0F4"/>
<path d="M385.391 158.256L392.746 151.525L386.185 147.938L385.391 158.256Z" fill="#8CB0EA"/>
<path d="M591.77 198.971C591.77 198.971 690.691 168.931 667.744 95.1835C638.49 1.16079 529.679 77.7231 467.172 36.6653" stroke="#8CB0EA" stroke-width="2" stroke-miterlimit="10" stroke-dasharray="5 5"/>
<path d="M453.917 35.8795L424.316 0L480.909 21.1202L453.917 35.8795Z" fill="#D4E1FF"/>
<path d="M469.735 27.2316L467.168 39.3865L466.373 29.0691L424.316 0L469.735 27.2316Z" fill="#A6C0F4"/>
<path d="M467.171 39.3868L459.816 32.6561L466.377 29.0693L467.171 39.3868Z" fill="#8CB0EA"/>
<path d="M135.512 383.521C132.647 380.711 128.578 376.663 123.458 372.061C118.335 367.463 112.317 362.129 105.544 356.798C98.776 351.467 91.3548 346.012 83.5705 341.068C79.6511 338.64 75.63 336.363 71.5462 334.346C67.4843 332.285 63.2376 330.7 59.2402 329.2C55.1919 327.707 51.1742 326.463 47.3601 325.423C43.5358 324.385 39.871 323.591 36.4692 322.971C33.0538 322.417 29.8997 322.033 27.0883 321.94C24.282 321.775 21.8252 321.897 19.818 322.05C19.5907 322.071 19.3684 321.842 19.1529 321.438L19.0664 321.587C19.3192 322.162 19.5788 322.496 19.8469 322.486C21.8405 322.444 24.2667 322.456 27.0289 322.771C29.7945 323.021 32.8824 323.579 36.235 324.212C39.5741 324.936 43.1659 325.841 46.9088 326.994C50.6601 328.15 54.5268 329.536 58.5395 331.02C62.5674 332.583 66.636 334.151 70.6079 336.222C74.5934 338.247 78.5331 340.534 82.3777 342.977C90.123 347.78 97.5561 353.111 104.345 358.339C111.126 363.576 117.394 368.566 122.626 373.013C127.867 377.45 132.228 381.164 135.215 383.838C138.21 386.507 139.922 388.03 139.922 388.03C139.922 388.03 138.358 386.354 135.512 383.521Z" fill="white"/>
</svg>
