<svg width="40" height="40" viewBox="0 0 40 40" fill="none" xmlns="http://www.w3.org/2000/svg">
<path fill-rule="evenodd" clip-rule="evenodd" d="M15.245 9.99023H24.755C25.914 9.99023 26.493 9.99023 26.961 10.1532C27.4023 10.3096 27.8015 10.5656 28.1277 10.9014C28.454 11.2372 28.6984 11.6437 28.842 12.0892C29 12.5712 29 13.1672 29 14.3602V28.3642C29 29.2222 28.015 29.6782 27.392 29.1082C27.2172 28.9467 26.988 28.857 26.75 28.857C26.512 28.857 26.2828 28.9467 26.108 29.1082L25.625 29.5502C25.3188 29.8334 24.9171 29.9907 24.5 29.9907C24.0829 29.9907 23.6812 29.8334 23.375 29.5502C23.0688 29.2671 22.6671 29.1098 22.25 29.1098C21.8329 29.1098 21.4312 29.2671 21.125 29.5502C20.8188 29.8334 20.4171 29.9907 20 29.9907C19.5829 29.9907 19.1812 29.8334 18.875 29.5502C18.5688 29.2671 18.1671 29.1098 17.75 29.1098C17.3329 29.1098 16.9312 29.2671 16.625 29.5502C16.3188 29.8334 15.9171 29.9907 15.5 29.9907C15.0829 29.9907 14.6812 29.8334 14.375 29.5502L13.892 29.1082C13.7172 28.9467 13.488 28.857 13.25 28.857C13.012 28.857 12.7828 28.9467 12.608 29.1082C11.985 29.6782 11 29.2222 11 28.3642V14.3602C11 13.1672 11 12.5702 11.158 12.0902C11.458 11.1772 12.153 10.4612 13.039 10.1532C13.507 9.99023 14.086 9.99023 15.245 9.99023ZM15 14.7402C14.8011 14.7402 14.6103 14.8193 14.4697 14.9599C14.329 15.1006 14.25 15.2913 14.25 15.4902C14.25 15.6891 14.329 15.8799 14.4697 16.0206C14.6103 16.1612 14.8011 16.2402 15 16.2402H15.5C15.6989 16.2402 15.8897 16.1612 16.0303 16.0206C16.171 15.8799 16.25 15.6891 16.25 15.4902C16.25 15.2913 16.171 15.1006 16.0303 14.9599C15.8897 14.8193 15.6989 14.7402 15.5 14.7402H15ZM18.5 14.7402C18.3011 14.7402 18.1103 14.8193 17.9697 14.9599C17.829 15.1006 17.75 15.2913 17.75 15.4902C17.75 15.6891 17.829 15.8799 17.9697 16.0206C18.1103 16.1612 18.3011 16.2402 18.5 16.2402H25C25.1989 16.2402 25.3897 16.1612 25.5303 16.0206C25.671 15.8799 25.75 15.6891 25.75 15.4902C25.75 15.2913 25.671 15.1006 25.5303 14.9599C25.3897 14.8193 25.1989 14.7402 25 14.7402H18.5ZM15 18.2402C14.8011 18.2402 14.6103 18.3193 14.4697 18.4599C14.329 18.6006 14.25 18.7913 14.25 18.9902C14.25 19.1891 14.329 19.3799 14.4697 19.5206C14.6103 19.6612 14.8011 19.7402 15 19.7402H15.5C15.6989 19.7402 15.8897 19.6612 16.0303 19.5206C16.171 19.3799 16.25 19.1891 16.25 18.9902C16.25 18.7913 16.171 18.6006 16.0303 18.4599C15.8897 18.3193 15.6989 18.2402 15.5 18.2402H15ZM18.5 18.2402C18.3011 18.2402 18.1103 18.3193 17.9697 18.4599C17.829 18.6006 17.75 18.7913 17.75 18.9902C17.75 19.1891 17.829 19.3799 17.9697 19.5206C18.1103 19.6612 18.3011 19.7402 18.5 19.7402H25C25.1989 19.7402 25.3897 19.6612 25.5303 19.5206C25.671 19.3799 25.75 19.1891 25.75 18.9902C25.75 18.7913 25.671 18.6006 25.5303 18.4599C25.3897 18.3193 25.1989 18.2402 25 18.2402H18.5ZM15 21.7402C14.8011 21.7402 14.6103 21.8193 14.4697 21.9599C14.329 22.1006 14.25 22.2913 14.25 22.4902C14.25 22.6891 14.329 22.8799 14.4697 23.0206C14.6103 23.1612 14.8011 23.2402 15 23.2402H15.5C15.6989 23.2402 15.8897 23.1612 16.0303 23.0206C16.171 22.8799 16.25 22.6891 16.25 22.4902C16.25 22.2913 16.171 22.1006 16.0303 21.9599C15.8897 21.8193 15.6989 21.7402 15.5 21.7402H15ZM18.5 21.7402C18.3011 21.7402 18.1103 21.8193 17.9697 21.9599C17.829 22.1006 17.75 22.2913 17.75 22.4902C17.75 22.6891 17.829 22.8799 17.9697 23.0206C18.1103 23.1612 18.3011 23.2402 18.5 23.2402H25C25.1989 23.2402 25.3897 23.1612 25.5303 23.0206C25.671 22.8799 25.75 22.6891 25.75 22.4902C25.75 22.2913 25.671 22.1006 25.5303 21.9599C25.3897 21.8193 25.1989 21.7402 25 21.7402H18.5Z" fill="#5119B7"/>
</svg>
